<mxfile host="65bd71144e">
    <diagram id="TOL9l9-fivf1h805JfDV" name="Page-1">
        <mxGraphModel dx="2327" dy="1707" grid="1" gridSize="10" guides="1" tooltips="1" connect="1" arrows="1" fold="1" page="1" pageScale="1" pageWidth="850" pageHeight="1100" math="0" shadow="0">
            <root>
                <mxCell id="0"/>
                <mxCell id="1" parent="0"/>
                <UserObject label="" mermaidData="{&#xa;  &quot;data&quot;: &quot;\nclassDiagram\n\n    class EstrategiaCalculo {\n        &lt;&lt;interface&gt;&gt;\n        +calcular(): int\n    }\n\n    class CalculoAlquilerFijo {\n        &lt;&lt;interface&gt;&gt;\n        +calcular(): int\n    }\n\n    class CalculoAlquilerPorcentaje {\n        &lt;&lt;interface&gt;&gt;\n        +calcular(): int\n    }\n\n     class CalculoAlquilerPorcentajeFijo {\n        &lt;&lt;interface&gt;&gt;\n        +calcular(): int\n    }\n\n    class ElementoAlquiler {\n        &lt;&lt;abstract&gt;&gt;\n        -codigoIdentificacion: int\n        +getCopia(Condicion c1): elementoAlquiler\n        +getPrecio(): int\n        +getValorAlquiler(): int\n    }\n\n    class ElementoBase {\n        -antiguedadMeses: int\n        -descripcion: String\n        -estragiaAlquier: EstrategiaCalculo\n        +getCopia(Condicion c1): ElemetnoAlquiler\n        +getPrecio(): int\n        +getValorAlquiler(): int\n    }\n\n    class Combo {\n        -antiguedadMeses: int\n        -descripcion: String\n        +getCopia(Condicion c1): ElemetnoAlquiler\n        +getPrecio(): int\n        +getValorAlquiler(): int\n    }\n\n    class ElementoObsolencia{\n        -id: int\n        -elemento: elementoAlquier\n        -factorPrecioEnevecido: double;\n        -factorAlquilerEnvejecido: double;\n        +getPrecio()\n        +getValorAlquiler(): int\n\n    }\n\n    \n    class Condicion {\n        &lt;&lt;interface&gt;&gt;\n        +cumpleCon(elementoBase eb)\n    }\n\n    class CondicionAntiguedad {\n        -antiguedad: int\n        +cumpleCon(elementoBase eb)\n    }\n\n    class CondicionTexto {\n        -palabra: String\n        +cumpleCon(elementoBase eb)\n    }\n\n    class CondicionCodigo{\n        -codigo: int\n        +cumpleCon(elementoBase eb)\n    }\n\n    class CondicionAND{\n        -c1,c2: Condicion\n        +cumpleCon(elementoBase eb)\n    }\n\n    class CondicionOR{\n        -c1,c2: Condicion\n        +cumpleCon(elementoBase eb)\n    }\n\n    ElementoAlquiler &lt;|-- ElementoBase\n    ElementoAlquiler &lt;|-- Combo\n    ElementoBase &lt;|-- ElementoObsolencia\n\n    Condicion &lt;|-- CondicionAntiguedad\n    Condicion &lt;|-- CondicionTexto\n    Condicion &lt;|-- CondicionCodigo\n    Condicion &lt;|-- CondicionOR\n    Condicion &lt;|-- CondicionAND\n\n    EstrategiaCalculo &lt;|-- CalculoAlquilerFijo\n    EstrategiaCalculo &lt;|-- CalculoAlquilerPorcentaje\n    EstrategiaCalculo &lt;|-- CalculoAlquilerPorcentajeFijo\n&quot;&#xa;}" id="3">
                    <mxCell style="shape=image;noLabel=1;verticalAlign=top;imageAspect=1;image=data:image/svg+xml,PHN2ZyBhcmlhLXJvbGVkZXNjcmlwdGlvbj0iY2xhc3MiIHJvbGU9ImdyYXBoaWNzLWRvY3VtZW50IGRvY3VtZW50IiB2aWV3Qm94PSIwIDAgMzQ5My4yMjAyMTQ4NDM3NSA4MTEuOTQ3ODc1OTc2NTYyNSIgc3R5bGU9Im1heC13aWR0aDogMzQ5My4yMjAyMTQ4NDM3NXB4OyIgY2xhc3M9ImNsYXNzRGlhZ3JhbSIgeG1sbnM9Imh0dHA6Ly93d3cudzMub3JnLzIwMDAvc3ZnIiB3aWR0aD0iMTAwJSIgaWQ9ImdlTWVybWFpZE91dHB1dC0xNzQ3MDExMzgxNzg2Ij48c3R5bGU+I2dlTWVybWFpZE91dHB1dC0xNzQ3MDExMzgxNzg2e2ZvbnQtZmFtaWx5OiJ0cmVidWNoZXQgbXMiLHZlcmRhbmEsYXJpYWwsc2Fucy1zZXJpZjtmb250LXNpemU6MTZweDtmaWxsOiMwMDAwMDA7fSNnZU1lcm1haWRPdXRwdXQtMTc0NzAxMTM4MTc4NiAuZXJyb3ItaWNvbntmaWxsOiM1NTIyMjI7fSNnZU1lcm1haWRPdXRwdXQtMTc0NzAxMTM4MTc4NiAuZXJyb3ItdGV4dHtmaWxsOiM1NTIyMjI7c3Ryb2tlOiM1NTIyMjI7fSNnZU1lcm1haWRPdXRwdXQtMTc0NzAxMTM4MTc4NiAuZWRnZS10aGlja25lc3Mtbm9ybWFse3N0cm9rZS13aWR0aDoxcHg7fSNnZU1lcm1haWRPdXRwdXQtMTc0NzAxMTM4MTc4NiAuZWRnZS10aGlja25lc3MtdGhpY2t7c3Ryb2tlLXdpZHRoOjMuNXB4O30jZ2VNZXJtYWlkT3V0cHV0LTE3NDcwMTEzODE3ODYgLmVkZ2UtcGF0dGVybi1zb2xpZHtzdHJva2UtZGFzaGFycmF5OjA7fSNnZU1lcm1haWRPdXRwdXQtMTc0NzAxMTM4MTc4NiAuZWRnZS10aGlja25lc3MtaW52aXNpYmxle3N0cm9rZS13aWR0aDowO2ZpbGw6bm9uZTt9I2dlTWVybWFpZE91dHB1dC0xNzQ3MDExMzgxNzg2IC5lZGdlLXBhdHRlcm4tZGFzaGVke3N0cm9rZS1kYXNoYXJyYXk6Mzt9I2dlTWVybWFpZE91dHB1dC0xNzQ3MDExMzgxNzg2IC5lZGdlLXBhdHRlcm4tZG90dGVke3N0cm9rZS1kYXNoYXJyYXk6Mjt9I2dlTWVybWFpZE91dHB1dC0xNzQ3MDExMzgxNzg2IC5tYXJrZXJ7ZmlsbDojNjY2O3N0cm9rZTojNjY2O30jZ2VNZXJtYWlkT3V0cHV0LTE3NDcwMTEzODE3ODYgLm1hcmtlci5jcm9zc3tzdHJva2U6IzY2Njt9I2dlTWVybWFpZE91dHB1dC0xNzQ3MDExMzgxNzg2IHN2Z3tmb250LWZhbWlseToidHJlYnVjaGV0IG1zIix2ZXJkYW5hLGFyaWFsLHNhbnMtc2VyaWY7Zm9udC1zaXplOjE2cHg7fSNnZU1lcm1haWRPdXRwdXQtMTc0NzAxMTM4MTc4NiBwe21hcmdpbjowO30jZ2VNZXJtYWlkT3V0cHV0LTE3NDcwMTEzODE3ODYgZy5jbGFzc0dyb3VwIHRleHR7ZmlsbDojOTk5O3N0cm9rZTpub25lO2ZvbnQtZmFtaWx5OiJ0cmVidWNoZXQgbXMiLHZlcmRhbmEsYXJpYWwsc2Fucy1zZXJpZjtmb250LXNpemU6MTBweDt9I2dlTWVybWFpZE91dHB1dC0xNzQ3MDExMzgxNzg2IGcuY2xhc3NHcm91cCB0ZXh0IC50aXRsZXtmb250LXdlaWdodDpib2xkZXI7fSNnZU1lcm1haWRPdXRwdXQtMTc0NzAxMTM4MTc4NiAubm9kZUxhYmVsLCNnZU1lcm1haWRPdXRwdXQtMTc0NzAxMTM4MTc4NiAuZWRnZUxhYmVse2NvbG9yOiMxMTExMTE7fSNnZU1lcm1haWRPdXRwdXQtMTc0NzAxMTM4MTc4NiAuZWRnZUxhYmVsIC5sYWJlbCByZWN0e2ZpbGw6I2VlZTt9I2dlTWVybWFpZE91dHB1dC0xNzQ3MDExMzgxNzg2IC5sYWJlbCB0ZXh0e2ZpbGw6IzExMTExMTt9I2dlTWVybWFpZE91dHB1dC0xNzQ3MDExMzgxNzg2IC5sYWJlbEJrZ3tiYWNrZ3JvdW5kOiNlZWU7fSNnZU1lcm1haWRPdXRwdXQtMTc0NzAxMTM4MTc4NiAuZWRnZUxhYmVsIC5sYWJlbCBzcGFue2JhY2tncm91bmQ6I2VlZTt9I2dlTWVybWFpZE91dHB1dC0xNzQ3MDExMzgxNzg2IC5jbGFzc1RpdGxle2ZvbnQtd2VpZ2h0OmJvbGRlcjt9I2dlTWVybWFpZE91dHB1dC0xNzQ3MDExMzgxNzg2IC5ub2RlIHJlY3QsI2dlTWVybWFpZE91dHB1dC0xNzQ3MDExMzgxNzg2IC5ub2RlIGNpcmNsZSwjZ2VNZXJtYWlkT3V0cHV0LTE3NDcwMTEzODE3ODYgLm5vZGUgZWxsaXBzZSwjZ2VNZXJtYWlkT3V0cHV0LTE3NDcwMTEzODE3ODYgLm5vZGUgcG9seWdvbiwjZ2VNZXJtYWlkT3V0cHV0LTE3NDcwMTEzODE3ODYgLm5vZGUgcGF0aHtmaWxsOiNlZWU7c3Ryb2tlOiM5OTk7c3Ryb2tlLXdpZHRoOjFweDt9I2dlTWVybWFpZE91dHB1dC0xNzQ3MDExMzgxNzg2IC5kaXZpZGVye3N0cm9rZTojOTk5O3N0cm9rZS13aWR0aDoxO30jZ2VNZXJtYWlkT3V0cHV0LTE3NDcwMTEzODE3ODYgZy5jbGlja2FibGV7Y3Vyc29yOnBvaW50ZXI7fSNnZU1lcm1haWRPdXRwdXQtMTc0NzAxMTM4MTc4NiBnLmNsYXNzR3JvdXAgcmVjdHtmaWxsOiNlZWU7c3Ryb2tlOiM5OTk7fSNnZU1lcm1haWRPdXRwdXQtMTc0NzAxMTM4MTc4NiBnLmNsYXNzR3JvdXAgbGluZXtzdHJva2U6Izk5OTtzdHJva2Utd2lkdGg6MTt9I2dlTWVybWFpZE91dHB1dC0xNzQ3MDExMzgxNzg2IC5jbGFzc0xhYmVsIC5ib3h7c3Ryb2tlOm5vbmU7c3Ryb2tlLXdpZHRoOjA7ZmlsbDojZWVlO29wYWNpdHk6MC41O30jZ2VNZXJtYWlkT3V0cHV0LTE3NDcwMTEzODE3ODYgLmNsYXNzTGFiZWwgLmxhYmVse2ZpbGw6Izk5OTtmb250LXNpemU6MTBweDt9I2dlTWVybWFpZE91dHB1dC0xNzQ3MDExMzgxNzg2IC5yZWxhdGlvbntzdHJva2U6IzY2NjtzdHJva2Utd2lkdGg6MTtmaWxsOm5vbmU7fSNnZU1lcm1haWRPdXRwdXQtMTc0NzAxMTM4MTc4NiAuZGFzaGVkLWxpbmV7c3Ryb2tlLWRhc2hhcnJheTozO30jZ2VNZXJtYWlkT3V0cHV0LTE3NDcwMTEzODE3ODYgLmRvdHRlZC1saW5le3N0cm9rZS1kYXNoYXJyYXk6MSAyO30jZ2VNZXJtYWlkT3V0cHV0LTE3NDcwMTEzODE3ODYgI2NvbXBvc2l0aW9uU3RhcnQsI2dlTWVybWFpZE91dHB1dC0xNzQ3MDExMzgxNzg2IC5jb21wb3NpdGlvbntmaWxsOiM2NjYhaW1wb3J0YW50O3N0cm9rZTojNjY2IWltcG9ydGFudDtzdHJva2Utd2lkdGg6MTt9I2dlTWVybWFpZE91dHB1dC0xNzQ3MDExMzgxNzg2ICNjb21wb3NpdGlvbkVuZCwjZ2VNZXJtYWlkT3V0cHV0LTE3NDcwMTEzODE3ODYgLmNvbXBvc2l0aW9ue2ZpbGw6IzY2NiFpbXBvcnRhbnQ7c3Ryb2tlOiM2NjYhaW1wb3J0YW50O3N0cm9rZS13aWR0aDoxO30jZ2VNZXJtYWlkT3V0cHV0LTE3NDcwMTEzODE3ODYgI2RlcGVuZGVuY3lTdGFydCwjZ2VNZXJtYWlkT3V0cHV0LTE3NDcwMTEzODE3ODYgLmRlcGVuZGVuY3l7ZmlsbDojNjY2IWltcG9ydGFudDtzdHJva2U6IzY2NiFpbXBvcnRhbnQ7c3Ryb2tlLXdpZHRoOjE7fSNnZU1lcm1haWRPdXRwdXQtMTc0NzAxMTM4MTc4NiAjZGVwZW5kZW5jeVN0YXJ0LCNnZU1lcm1haWRPdXRwdXQtMTc0NzAxMTM4MTc4NiAuZGVwZW5kZW5jeXtmaWxsOiM2NjYhaW1wb3J0YW50O3N0cm9rZTojNjY2IWltcG9ydGFudDtzdHJva2Utd2lkdGg6MTt9I2dlTWVybWFpZE91dHB1dC0xNzQ3MDExMzgxNzg2ICNleHRlbnNpb25TdGFydCwjZ2VNZXJtYWlkT3V0cHV0LTE3NDcwMTEzODE3ODYgLmV4dGVuc2lvbntmaWxsOnRyYW5zcGFyZW50IWltcG9ydGFudDtzdHJva2U6IzY2NiFpbXBvcnRhbnQ7c3Ryb2tlLXdpZHRoOjE7fSNnZU1lcm1haWRPdXRwdXQtMTc0NzAxMTM4MTc4NiAjZXh0ZW5zaW9uRW5kLCNnZU1lcm1haWRPdXRwdXQtMTc0NzAxMTM4MTc4NiAuZXh0ZW5zaW9ue2ZpbGw6dHJhbnNwYXJlbnQhaW1wb3J0YW50O3N0cm9rZTojNjY2IWltcG9ydGFudDtzdHJva2Utd2lkdGg6MTt9I2dlTWVybWFpZE91dHB1dC0xNzQ3MDExMzgxNzg2ICNhZ2dyZWdhdGlvblN0YXJ0LCNnZU1lcm1haWRPdXRwdXQtMTc0NzAxMTM4MTc4NiAuYWdncmVnYXRpb257ZmlsbDp0cmFuc3BhcmVudCFpbXBvcnRhbnQ7c3Ryb2tlOiM2NjYhaW1wb3J0YW50O3N0cm9rZS13aWR0aDoxO30jZ2VNZXJtYWlkT3V0cHV0LTE3NDcwMTEzODE3ODYgI2FnZ3JlZ2F0aW9uRW5kLCNnZU1lcm1haWRPdXRwdXQtMTc0NzAxMTM4MTc4NiAuYWdncmVnYXRpb257ZmlsbDp0cmFuc3BhcmVudCFpbXBvcnRhbnQ7c3Ryb2tlOiM2NjYhaW1wb3J0YW50O3N0cm9rZS13aWR0aDoxO30jZ2VNZXJtYWlkT3V0cHV0LTE3NDcwMTEzODE3ODYgI2xvbGxpcG9wU3RhcnQsI2dlTWVybWFpZE91dHB1dC0xNzQ3MDExMzgxNzg2IC5sb2xsaXBvcHtmaWxsOiNlZWUhaW1wb3J0YW50O3N0cm9rZTojNjY2IWltcG9ydGFudDtzdHJva2Utd2lkdGg6MTt9I2dlTWVybWFpZE91dHB1dC0xNzQ3MDExMzgxNzg2ICNsb2xsaXBvcEVuZCwjZ2VNZXJtYWlkT3V0cHV0LTE3NDcwMTEzODE3ODYgLmxvbGxpcG9we2ZpbGw6I2VlZSFpbXBvcnRhbnQ7c3Ryb2tlOiM2NjYhaW1wb3J0YW50O3N0cm9rZS13aWR0aDoxO30jZ2VNZXJtYWlkT3V0cHV0LTE3NDcwMTEzODE3ODYgLmVkZ2VUZXJtaW5hbHN7Zm9udC1zaXplOjExcHg7bGluZS1oZWlnaHQ6aW5pdGlhbDt9I2dlTWVybWFpZE91dHB1dC0xNzQ3MDExMzgxNzg2IC5jbGFzc1RpdGxlVGV4dHt0ZXh0LWFuY2hvcjptaWRkbGU7Zm9udC1zaXplOjE4cHg7ZmlsbDojMDAwMDAwO30jZ2VNZXJtYWlkT3V0cHV0LTE3NDcwMTEzODE3ODYgOnJvb3R7LS1tZXJtYWlkLWZvbnQtZmFtaWx5OiJ0cmVidWNoZXQgbXMiLHZlcmRhbmEsYXJpYWwsc2Fucy1zZXJpZjt9PC9zdHlsZT48Zz48ZGVmcz48bWFya2VyIG9yaWVudD0iYXV0byIgbWFya2VySGVpZ2h0PSIyNDAiIG1hcmtlcldpZHRoPSIxOTAiIHJlZlk9IjciIHJlZlg9IjE4IiBjbGFzcz0ibWFya2VyIGFnZ3JlZ2F0aW9uIGNsYXNzIiBpZD0iZ2VNZXJtYWlkT3V0cHV0LTE3NDcwMTEzODE3ODZfY2xhc3MtYWdncmVnYXRpb25TdGFydCI+PHBhdGggZD0iTSAxOCw3IEw5LDEzIEwxLDcgTDksMSBaIj48L3BhdGg+PC9tYXJrZXI+PC9kZWZzPjxkZWZzPjxtYXJrZXIgb3JpZW50PSJhdXRvIiBtYXJrZXJIZWlnaHQ9IjI4IiBtYXJrZXJXaWR0aD0iMjAiIHJlZlk9IjciIHJlZlg9IjEiIGNsYXNzPSJtYXJrZXIgYWdncmVnYXRpb24gY2xhc3MiIGlkPSJnZU1lcm1haWRPdXRwdXQtMTc0NzAxMTM4MTc4Nl9jbGFzcy1hZ2dyZWdhdGlvbkVuZCI+PHBhdGggZD0iTSAxOCw3IEw5LDEzIEwxLDcgTDksMSBaIj48L3BhdGg+PC9tYXJrZXI+PC9kZWZzPjxkZWZzPjxtYXJrZXIgb3JpZW50PSJhdXRvIiBtYXJrZXJIZWlnaHQ9IjI0MCIgbWFya2VyV2lkdGg9IjE5MCIgcmVmWT0iNyIgcmVmWD0iMTgiIGNsYXNzPSJtYXJrZXIgZXh0ZW5zaW9uIGNsYXNzIiBpZD0iZ2VNZXJtYWlkT3V0cHV0LTE3NDcwMTEzODE3ODZfY2xhc3MtZXh0ZW5zaW9uU3RhcnQiPjxwYXRoIGQ9Ik0gMSw3IEwxOCwxMyBWIDEgWiI+PC9wYXRoPjwvbWFya2VyPjwvZGVmcz48ZGVmcz48bWFya2VyIG9yaWVudD0iYXV0byIgbWFya2VySGVpZ2h0PSIyOCIgbWFya2VyV2lkdGg9IjIwIiByZWZZPSI3IiByZWZYPSIxIiBjbGFzcz0ibWFya2VyIGV4dGVuc2lvbiBjbGFzcyIgaWQ9ImdlTWVybWFpZE91dHB1dC0xNzQ3MDExMzgxNzg2X2NsYXNzLWV4dGVuc2lvbkVuZCI+PHBhdGggZD0iTSAxLDEgViAxMyBMMTgsNyBaIj48L3BhdGg+PC9tYXJrZXI+PC9kZWZzPjxkZWZzPjxtYXJrZXIgb3JpZW50PSJhdXRvIiBtYXJrZXJIZWlnaHQ9IjI0MCIgbWFya2VyV2lkdGg9IjE5MCIgcmVmWT0iNyIgcmVmWD0iMTgiIGNsYXNzPSJtYXJrZXIgY29tcG9zaXRpb24gY2xhc3MiIGlkPSJnZU1lcm1haWRPdXRwdXQtMTc0NzAxMTM4MTc4Nl9jbGFzcy1jb21wb3NpdGlvblN0YXJ0Ij48cGF0aCBkPSJNIDE4LDcgTDksMTMgTDEsNyBMOSwxIFoiPjwvcGF0aD48L21hcmtlcj48L2RlZnM+PGRlZnM+PG1hcmtlciBvcmllbnQ9ImF1dG8iIG1hcmtlckhlaWdodD0iMjgiIG1hcmtlcldpZHRoPSIyMCIgcmVmWT0iNyIgcmVmWD0iMSIgY2xhc3M9Im1hcmtlciBjb21wb3NpdGlvbiBjbGFzcyIgaWQ9ImdlTWVybWFpZE91dHB1dC0xNzQ3MDExMzgxNzg2X2NsYXNzLWNvbXBvc2l0aW9uRW5kIj48cGF0aCBkPSJNIDE4LDcgTDksMTMgTDEsNyBMOSwxIFoiPjwvcGF0aD48L21hcmtlcj48L2RlZnM+PGRlZnM+PG1hcmtlciBvcmllbnQ9ImF1dG8iIG1hcmtlckhlaWdodD0iMjQwIiBtYXJrZXJXaWR0aD0iMTkwIiByZWZZPSI3IiByZWZYPSI2IiBjbGFzcz0ibWFya2VyIGRlcGVuZGVuY3kgY2xhc3MiIGlkPSJnZU1lcm1haWRPdXRwdXQtMTc0NzAxMTM4MTc4Nl9jbGFzcy1kZXBlbmRlbmN5U3RhcnQiPjxwYXRoIGQ9Ik0gNSw3IEw5LDEzIEwxLDcgTDksMSBaIj48L3BhdGg+PC9tYXJrZXI+PC9kZWZzPjxkZWZzPjxtYXJrZXIgb3JpZW50PSJhdXRvIiBtYXJrZXJIZWlnaHQ9IjI4IiBtYXJrZXJXaWR0aD0iMjAiIHJlZlk9IjciIHJlZlg9IjEzIiBjbGFzcz0ibWFya2VyIGRlcGVuZGVuY3kgY2xhc3MiIGlkPSJnZU1lcm1haWRPdXRwdXQtMTc0NzAxMTM4MTc4Nl9jbGFzcy1kZXBlbmRlbmN5RW5kIj48cGF0aCBkPSJNIDE4LDcgTDksMTMgTDE0LDcgTDksMSBaIj48L3BhdGg+PC9tYXJrZXI+PC9kZWZzPjxkZWZzPjxtYXJrZXIgb3JpZW50PSJhdXRvIiBtYXJrZXJIZWlnaHQ9IjI0MCIgbWFya2VyV2lkdGg9IjE5MCIgcmVmWT0iNyIgcmVmWD0iMTMiIGNsYXNzPSJtYXJrZXIgbG9sbGlwb3AgY2xhc3MiIGlkPSJnZU1lcm1haWRPdXRwdXQtMTc0NzAxMTM4MTc4Nl9jbGFzcy1sb2xsaXBvcFN0YXJ0Ij48Y2lyY2xlIHI9IjYiIGN5PSI3IiBjeD0iNyIgZmlsbD0idHJhbnNwYXJlbnQiIHN0cm9rZT0iYmxhY2siPjwvY2lyY2xlPjwvbWFya2VyPjwvZGVmcz48ZGVmcz48bWFya2VyIG9yaWVudD0iYXV0byIgbWFya2VySGVpZ2h0PSIyNDAiIG1hcmtlcldpZHRoPSIxOTAiIHJlZlk9IjciIHJlZlg9IjEiIGNsYXNzPSJtYXJrZXIgbG9sbGlwb3AgY2xhc3MiIGlkPSJnZU1lcm1haWRPdXRwdXQtMTc0NzAxMTM4MTc4Nl9jbGFzcy1sb2xsaXBvcEVuZCI+PGNpcmNsZSByPSI2IiBjeT0iNyIgY3g9IjciIGZpbGw9InRyYW5zcGFyZW50IiBzdHJva2U9ImJsYWNrIj48L2NpcmNsZT48L21hcmtlcj48L2RlZnM+PGcgY2xhc3M9InJvb3QiPjxnIGNsYXNzPSJjbHVzdGVycyI+PC9nPjxnIGNsYXNzPSJlZGdlUGF0aHMiPjxwYXRoIG1hcmtlci1zdGFydD0idXJsKCNnZU1lcm1haWRPdXRwdXQtMTc0NzAxMTM4MTc4Nl9jbGFzcy1leHRlbnNpb25TdGFydCkiIHN0eWxlPSI7IiBjbGFzcz0iZWRnZS10aGlja25lc3Mtbm9ybWFsIGVkZ2UtcGF0dGVybi1zb2xpZCByZWxhdGlvbiIgaWQ9ImlkX0VsZW1lbnRvQWxxdWlsZXJfRWxlbWVudG9CYXNlXzEiIGQ9Ik0xMTA2LjE5NCwyMzMuMzM1TDExMDEuOTAzLDIzNS45NDNDMTA5Ny42MTMsMjM4LjU1MSwxMDg5LjAzMiwyNDMuNzY4LDEwODQuNzQxLDI1MC41NDNDMTA4MC40NSwyNTcuMzE4LDEwODAuNDUsMjY1LjY1MSwxMDgwLjQ1LDI2OS44MThMMTA4MC40NSwyNzMuOTg0Ij48L3BhdGg+PHBhdGggbWFya2VyLXN0YXJ0PSJ1cmwoI2dlTWVybWFpZE91dHB1dC0xNzQ3MDExMzgxNzg2X2NsYXNzLWV4dGVuc2lvblN0YXJ0KSIgc3R5bGU9IjsiIGNsYXNzPSJlZGdlLXRoaWNrbmVzcy1ub3JtYWwgZWRnZS1wYXR0ZXJuLXNvbGlkIHJlbGF0aW9uIiBpZD0iaWRfRWxlbWVudG9BbHF1aWxlcl9Db21ib18yIiBkPSJNMTQ5Mi4yNDIsMjMzLjMzNUwxNDk2LjUzMywyMzUuOTQzQzE1MDAuODIzLDIzOC41NTEsMTUwOS40MDUsMjQzLjc2OCwxNTEzLjY5NSwyNTIuNTQzQzE1MTcuOTg2LDI2MS4zMTcsMTUxNy45ODYsMjczLjY1LDE1MTcuOTg2LDI3OS44MTdMMTUxNy45ODYsMjg1Ljk4MyI+PC9wYXRoPjxwYXRoIG1hcmtlci1zdGFydD0idXJsKCNnZU1lcm1haWRPdXRwdXQtMTc0NzAxMTM4MTc4Nl9jbGFzcy1leHRlbnNpb25TdGFydCkiIHN0eWxlPSI7IiBjbGFzcz0iZWRnZS10aGlja25lc3Mtbm9ybWFsIGVkZ2UtcGF0dGVybi1zb2xpZCByZWxhdGlvbiIgaWQ9ImlkX0VsZW1lbnRvQmFzZV9FbGVtZW50b09ic29sZW5jaWFfMyIgZD0iTTEwODAuNDUsNTMxLjk2NkwxMDgwLjQ1LDUzMy4xMzNDMTA4MC40NSw1MzQuMjk5LDEwODAuNDUsNTM2LjYzMywxMDgwLjQ1LDU0MS45NjZDMTA4MC40NSw1NDcuMjk5LDEwODAuNDUsNTU1LjYzMywxMDgwLjQ1LDU1OS43OTlMMTA4MC40NSw1NjMuOTY2Ij48L3BhdGg+PHBhdGggbWFya2VyLXN0YXJ0PSJ1cmwoI2dlTWVybWFpZE91dHB1dC0xNzQ3MDExMzgxNzg2X2NsYXNzLWV4dGVuc2lvblN0YXJ0KSIgc3R5bGU9IjsiIGNsYXNzPSJlZGdlLXRoaWNrbmVzcy1ub3JtYWwgZWRnZS1wYXR0ZXJuLXNvbGlkIHJlbGF0aW9uIiBpZD0iaWRfQ29uZGljaW9uX0NvbmRpY2lvbkFudGlndWVkYWRfNCIgZD0iTTI0NzcuMTExLDE0NS43OEwyMzgzLjg4MywxNjIuOTgxQzIyOTAuNjU1LDE4MC4xODIsMjEwNC4yLDIxNC41ODMsMjAxMC45NzIsMjQzLjk1QzE5MTcuNzQ0LDI3My4zMTYsMTkxNy43NDQsMjk3LjY0OCwxOTE3Ljc0NCwzMDkuODEzTDE5MTcuNzQ0LDMyMS45NzkiPjwvcGF0aD48cGF0aCBtYXJrZXItc3RhcnQ9InVybCgjZ2VNZXJtYWlkT3V0cHV0LTE3NDcwMTEzODE3ODZfY2xhc3MtZXh0ZW5zaW9uU3RhcnQpIiBzdHlsZT0iOyIgY2xhc3M9ImVkZ2UtdGhpY2tuZXNzLW5vcm1hbCBlZGdlLXBhdHRlcm4tc29saWQgcmVsYXRpb24iIGlkPSJpZF9Db25kaWNpb25fQ29uZGljaW9uVGV4dG9fNSIgZD0iTTI0NzcuOTQ5LDE3NS45NzZMMjQ0NS4zNjgsMTg4LjE0NEMyNDEyLjc4NywyMDAuMzEyLDIzNDcuNjI1LDIyNC42NDgsMjMxNS4wNDQsMjQ4Ljk4MkMyMjgyLjQ2MywyNzMuMzE2LDIyODIuNDYzLDI5Ny42NDgsMjI4Mi40NjMsMzA5LjgxM0wyMjgyLjQ2MywzMjEuOTc5Ij48L3BhdGg+PHBhdGggbWFya2VyLXN0YXJ0PSJ1cmwoI2dlTWVybWFpZE91dHB1dC0xNzQ3MDExMzgxNzg2X2NsYXNzLWV4dGVuc2lvblN0YXJ0KSIgc3R5bGU9IjsiIGNsYXNzPSJlZGdlLXRoaWNrbmVzcy1ub3JtYWwgZWRnZS1wYXR0ZXJuLXNvbGlkIHJlbGF0aW9uIiBpZD0iaWRfQ29uZGljaW9uX0NvbmRpY2lvbkNvZGlnb182IiBkPSJNMjYzOC41NjMsMjA4Ljk4OEwyNjM4LjU2MywyMTUuNjU0QzI2MzguNTYzLDIyMi4zMiwyNjM4LjU2MywyMzUuNjUyLDI2MzguNTYzLDI1NC40ODRDMjYzOC41NjMsMjczLjMxNiwyNjM4LjU2MywyOTcuNjQ4LDI2MzguNTYzLDMwOS44MTNMMjYzOC41NjMsMzIxLjk3OSI+PC9wYXRoPjxwYXRoIG1hcmtlci1zdGFydD0idXJsKCNnZU1lcm1haWRPdXRwdXQtMTc0NzAxMTM4MTc4Nl9jbGFzcy1leHRlbnNpb25TdGFydCkiIHN0eWxlPSI7IiBjbGFzcz0iZWRnZS10aGlja25lc3Mtbm9ybWFsIGVkZ2UtcGF0dGVybi1zb2xpZCByZWxhdGlvbiIgaWQ9ImlkX0NvbmRpY2lvbl9Db25kaWNpb25PUl83IiBkPSJNMjc5OS45OTgsMTQ2LjY3M0wyODg5LjcyMiwxNjMuNzI1QzI5NzkuNDQ2LDE4MC43NzcsMzE1OC44OTUsMjE0Ljg4LDMyNDguNjE5LDI0NC4wOThDMzMzOC4zNDQsMjczLjMxNiwzMzM4LjM0NCwyOTcuNjQ4LDMzMzguMzQ0LDMwOS44MTNMMzMzOC4zNDQsMzIxLjk3OSI+PC9wYXRoPjxwYXRoIG1hcmtlci1zdGFydD0idXJsKCNnZU1lcm1haWRPdXRwdXQtMTc0NzAxMTM4MTc4Nl9jbGFzcy1leHRlbnNpb25TdGFydCkiIHN0eWxlPSI7IiBjbGFzcz0iZWRnZS10aGlja25lc3Mtbm9ybWFsIGVkZ2UtcGF0dGVybi1zb2xpZCByZWxhdGlvbiIgaWQ9ImlkX0NvbmRpY2lvbl9Db25kaWNpb25BTkRfOCIgZD0iTTI3OTkuMTYyLDE3Ni40MUwyODMxLjMxNCwxODguNTA2QzI4NjMuNDY2LDIwMC42MDEsMjkyNy43NywyMjQuNzkzLDI5NTkuOTIzLDI0OS4wNTRDMjk5Mi4wNzUsMjczLjMxNiwyOTkyLjA3NSwyOTcuNjQ4LDI5OTIuMDc1LDMwOS44MTNMMjk5Mi4wNzUsMzIxLjk3OSI+PC9wYXRoPjxwYXRoIG1hcmtlci1zdGFydD0idXJsKCNnZU1lcm1haWRPdXRwdXQtMTc0NzAxMTM4MTc4Nl9jbGFzcy1leHRlbnNpb25TdGFydCkiIHN0eWxlPSI7IiBjbGFzcz0iZWRnZS10aGlja25lc3Mtbm9ybWFsIGVkZ2UtcGF0dGVybi1zb2xpZCByZWxhdGlvbiIgaWQ9ImlkX0VzdHJhdGVnaWFDYWxjdWxvX0NhbGN1bG9BbHF1aWxlckZpam9fOSIgZD0iTTI3Ni43MTIsMTczLjYwOUwyNTAuMTI1LDE4Ni4xNzFDMjIzLjUzOSwxOTguNzM0LDE3MC4zNjcsMjIzLjg1OSwxNDMuNzgsMjQ4LjA4OEMxMTcuMTk0LDI3Mi4zMTYsMTE3LjE5NCwyOTUuNjQ4LDExNy4xOTQsMzA3LjMxM0wxMTcuMTk0LDMxOC45NzkiPjwvcGF0aD48cGF0aCBtYXJrZXItc3RhcnQ9InVybCgjZ2VNZXJtYWlkT3V0cHV0LTE3NDcwMTEzODE3ODZfY2xhc3MtZXh0ZW5zaW9uU3RhcnQpIiBzdHlsZT0iOyIgY2xhc3M9ImVkZ2UtdGhpY2tuZXNzLW5vcm1hbCBlZGdlLXBhdHRlcm4tc29saWQgcmVsYXRpb24iIGlkPSJpZF9Fc3RyYXRlZ2lhQ2FsY3Vsb19DYWxjdWxvQWxxdWlsZXJQb3JjZW50YWplXzEwIiBkPSJNMzk4LjY0NSwyMDguOTg4TDM5OC42NDUsMjE1LjY1NEMzOTguNjQ1LDIyMi4zMiwzOTguNjQ1LDIzNS42NTIsMzk4LjY0NSwyNTMuOTg0QzM5OC42NDUsMjcyLjMxNiwzOTguNjQ1LDI5NS42NDgsMzk4LjY0NSwzMDcuMzEzTDM5OC42NDUsMzE4Ljk3OSI+PC9wYXRoPjxwYXRoIG1hcmtlci1zdGFydD0idXJsKCNnZU1lcm1haWRPdXRwdXQtMTc0NzAxMTM4MTc4Nl9jbGFzcy1leHRlbnNpb25TdGFydCkiIHN0eWxlPSI7IiBjbGFzcz0iZWRnZS10aGlja25lc3Mtbm9ybWFsIGVkZ2UtcGF0dGVybi1zb2xpZCByZWxhdGlvbiIgaWQ9ImlkX0VzdHJhdGVnaWFDYWxjdWxvX0NhbGN1bG9BbHF1aWxlclBvcmNlbnRhamVGaWpvXzExIiBkPSJNNTIwLjc3NSwxNjkuODE1TDU1MC43MTYsMTgzLjAxQzU4MC42NTYsMTk2LjIwNSw2NDAuNTM4LDIyMi41OTUsNjcwLjQ3OCwyNDcuNDU1QzcwMC40MTksMjcyLjMxNiw3MDAuNDE5LDI5NS42NDgsNzAwLjQxOSwzMDcuMzEzTDcwMC40MTksMzE4Ljk3OSI+PC9wYXRoPjwvZz48ZyBjbGFzcz0iZWRnZUxhYmVscyI+PGc+PHJlY3Qgc3R5bGU9InN0cm9rZTogbm9uZSIgY2xhc3M9ImJhY2tncm91bmQiPjwvcmVjdD48L2c+PGc+PHJlY3Qgc3R5bGU9InN0cm9rZTogbm9uZSIgY2xhc3M9ImJhY2tncm91bmQiPjwvcmVjdD48L2c+PGc+PHJlY3Qgc3R5bGU9InN0cm9rZTogbm9uZSIgY2xhc3M9ImJhY2tncm91bmQiPjwvcmVjdD48L2c+PGc+PHJlY3Qgc3R5bGU9InN0cm9rZTogbm9uZSIgY2xhc3M9ImJhY2tncm91bmQiPjwvcmVjdD48L2c+PGc+PHJlY3Qgc3R5bGU9InN0cm9rZTogbm9uZSIgY2xhc3M9ImJhY2tncm91bmQiPjwvcmVjdD48L2c+PGc+PHJlY3Qgc3R5bGU9InN0cm9rZTogbm9uZSIgY2xhc3M9ImJhY2tncm91bmQiPjwvcmVjdD48L2c+PGc+PHJlY3Qgc3R5bGU9InN0cm9rZTogbm9uZSIgY2xhc3M9ImJhY2tncm91bmQiPjwvcmVjdD48L2c+PGc+PHJlY3Qgc3R5bGU9InN0cm9rZTogbm9uZSIgY2xhc3M9ImJhY2tncm91bmQiPjwvcmVjdD48L2c+PGc+PHJlY3Qgc3R5bGU9InN0cm9rZTogbm9uZSIgY2xhc3M9ImJhY2tncm91bmQiPjwvcmVjdD48L2c+PGc+PHJlY3Qgc3R5bGU9InN0cm9rZTogbm9uZSIgY2xhc3M9ImJhY2tncm91bmQiPjwvcmVjdD48L2c+PGc+PHJlY3Qgc3R5bGU9InN0cm9rZTogbm9uZSIgY2xhc3M9ImJhY2tncm91bmQiPjwvcmVjdD48L2c+PGcgY2xhc3M9ImVkZ2VMYWJlbCI+PGcgdHJhbnNmb3JtPSJ0cmFuc2xhdGUoMCwgMCkiIGNsYXNzPSJsYWJlbCI+PHRleHQgeT0iLTEwLjEiPjx0c3BhbiBkeT0iMS4xZW0iIHk9Ii0wLjFlbSIgeD0iMCIgY2xhc3M9InRleHQtb3V0ZXItdHNwYW4iPjwvdHNwYW4+PC90ZXh0PjwvZz48L2c+PGcgY2xhc3M9ImVkZ2VMYWJlbCI+PGcgdHJhbnNmb3JtPSJ0cmFuc2xhdGUoMCwgMCkiIGNsYXNzPSJsYWJlbCI+PHRleHQgeT0iLTEwLjEiPjx0c3BhbiBkeT0iMS4xZW0iIHk9Ii0wLjFlbSIgeD0iMCIgY2xhc3M9InRleHQtb3V0ZXItdHNwYW4iPjwvdHNwYW4+PC90ZXh0PjwvZz48L2c+PGcgY2xhc3M9ImVkZ2VMYWJlbCI+PGcgdHJhbnNmb3JtPSJ0cmFuc2xhdGUoMCwgMCkiIGNsYXNzPSJsYWJlbCI+PHRleHQgeT0iLTEwLjEiPjx0c3BhbiBkeT0iMS4xZW0iIHk9Ii0wLjFlbSIgeD0iMCIgY2xhc3M9InRleHQtb3V0ZXItdHNwYW4iPjwvdHNwYW4+PC90ZXh0PjwvZz48L2c+PGcgY2xhc3M9ImVkZ2VMYWJlbCI+PGcgdHJhbnNmb3JtPSJ0cmFuc2xhdGUoMCwgMCkiIGNsYXNzPSJsYWJlbCI+PHRleHQgeT0iLTEwLjEiPjx0c3BhbiBkeT0iMS4xZW0iIHk9Ii0wLjFlbSIgeD0iMCIgY2xhc3M9InRleHQtb3V0ZXItdHNwYW4iPjwvdHNwYW4+PC90ZXh0PjwvZz48L2c+PGcgY2xhc3M9ImVkZ2VMYWJlbCI+PGcgdHJhbnNmb3JtPSJ0cmFuc2xhdGUoMCwgMCkiIGNsYXNzPSJsYWJlbCI+PHRleHQgeT0iLTEwLjEiPjx0c3BhbiBkeT0iMS4xZW0iIHk9Ii0wLjFlbSIgeD0iMCIgY2xhc3M9InRleHQtb3V0ZXItdHNwYW4iPjwvdHNwYW4+PC90ZXh0PjwvZz48L2c+PGcgY2xhc3M9ImVkZ2VMYWJlbCI+PGcgdHJhbnNmb3JtPSJ0cmFuc2xhdGUoMCwgMCkiIGNsYXNzPSJsYWJlbCI+PHRleHQgeT0iLTEwLjEiPjx0c3BhbiBkeT0iMS4xZW0iIHk9Ii0wLjFlbSIgeD0iMCIgY2xhc3M9InRleHQtb3V0ZXItdHNwYW4iPjwvdHNwYW4+PC90ZXh0PjwvZz48L2c+PGcgY2xhc3M9ImVkZ2VMYWJlbCI+PGcgdHJhbnNmb3JtPSJ0cmFuc2xhdGUoMCwgMCkiIGNsYXNzPSJsYWJlbCI+PHRleHQgeT0iLTEwLjEiPjx0c3BhbiBkeT0iMS4xZW0iIHk9Ii0wLjFlbSIgeD0iMCIgY2xhc3M9InRleHQtb3V0ZXItdHNwYW4iPjwvdHNwYW4+PC90ZXh0PjwvZz48L2c+PGcgY2xhc3M9ImVkZ2VMYWJlbCI+PGcgdHJhbnNmb3JtPSJ0cmFuc2xhdGUoMCwgMCkiIGNsYXNzPSJsYWJlbCI+PHRleHQgeT0iLTEwLjEiPjx0c3BhbiBkeT0iMS4xZW0iIHk9Ii0wLjFlbSIgeD0iMCIgY2xhc3M9InRleHQtb3V0ZXItdHNwYW4iPjwvdHNwYW4+PC90ZXh0PjwvZz48L2c+PGcgY2xhc3M9ImVkZ2VMYWJlbCI+PGcgdHJhbnNmb3JtPSJ0cmFuc2xhdGUoMCwgMCkiIGNsYXNzPSJsYWJlbCI+PHRleHQgeT0iLTEwLjEiPjx0c3BhbiBkeT0iMS4xZW0iIHk9Ii0wLjFlbSIgeD0iMCIgY2xhc3M9InRleHQtb3V0ZXItdHNwYW4iPjwvdHNwYW4+PC90ZXh0PjwvZz48L2c+PGcgY2xhc3M9ImVkZ2VMYWJlbCI+PGcgdHJhbnNmb3JtPSJ0cmFuc2xhdGUoMCwgMCkiIGNsYXNzPSJsYWJlbCI+PHRleHQgeT0iLTEwLjEiPjx0c3BhbiBkeT0iMS4xZW0iIHk9Ii0wLjFlbSIgeD0iMCIgY2xhc3M9InRleHQtb3V0ZXItdHNwYW4iPjwvdHNwYW4+PC90ZXh0PjwvZz48L2c+PGcgY2xhc3M9ImVkZ2VMYWJlbCI+PGcgdHJhbnNmb3JtPSJ0cmFuc2xhdGUoMCwgMCkiIGNsYXNzPSJsYWJlbCI+PHRleHQgeT0iLTEwLjEiPjx0c3BhbiBkeT0iMS4xZW0iIHk9Ii0wLjFlbSIgeD0iMCIgY2xhc3M9InRleHQtb3V0ZXItdHNwYW4iPjwvdHNwYW4+PC90ZXh0PjwvZz48L2c+PC9nPjxnIGNsYXNzPSJub2RlcyI+PGcgdHJhbnNmb3JtPSJ0cmFuc2xhdGUoMzk4LjY0NTE3MjExOTE0MDYsIDExNS45OTIxODc1KSIgaWQ9ImNsYXNzSWQtRXN0cmF0ZWdpYUNhbGN1bG8tMCIgY2xhc3M9Im5vZGUgZGVmYXVsdCI+PGcgY2xhc3M9ImJhc2ljIGxhYmVsLWNvbnRhaW5lciI+PHBhdGggc3R5bGU9IiIgZmlsbD0iI2VlZSIgc3Ryb2tlLXdpZHRoPSIwIiBzdHJva2U9Im5vbmUiIGQ9Ik0tMTA1LjY1ODg1MTYyMzUzNTE2IC03NC45OTYwODk5MzUzMDI3MyBMMTA1LjY1ODg1MTYyMzUzNTE2IC03NC45OTYwODk5MzUzMDI3MyBMMTA1LjY1ODg1MTYyMzUzNTE2IDc0Ljk5NjA4OTkzNTMwMjczIEwtMTA1LjY1ODg1MTYyMzUzNTE2IDc0Ljk5NjA4OTkzNTMwMjczIj48L3BhdGg+PHBhdGggc3R5bGU9IiIgZmlsbD0ibm9uZSIgc3Ryb2tlLXdpZHRoPSIxLjMiIHN0cm9rZT0iIzk5OSIgZD0iTS0xMDUuNjU4ODUxNjIzNTM1MTYgLTc0Ljk5NjA4OTkzNTMwMjczIEMtNTUuOTY4NjU4MTkxMDAxOTggLTc0Ljk5NjA4OTkzNTMwMjczLCAtNi4yNzg0NjQ3NTg0Njg4IC03NC45OTYwODk5MzUzMDI3MywgMTA1LjY1ODg1MTYyMzUzNTE2IC03NC45OTYwODk5MzUzMDI3MyBNLTEwNS42NTg4NTE2MjM1MzUxNiAtNzQuOTk2MDg5OTM1MzAyNzMgQy01Ny43MDEzNTU1OTkyMzEyMzUgLTc0Ljk5NjA4OTkzNTMwMjczLCAtOS43NDM4NTk1NzQ5MjczMTMgLTc0Ljk5NjA4OTkzNTMwMjczLCAxMDUuNjU4ODUxNjIzNTM1MTYgLTc0Ljk5NjA4OTkzNTMwMjczIE0xMDUuNjU4ODUxNjIzNTM1MTYgLTc0Ljk5NjA4OTkzNTMwMjczIEMxMDUuNjU4ODUxNjIzNTM1MTYgLTM5Ljc1MzcxMTI5MzUxNDE2LCAxMDUuNjU4ODUxNjIzNTM1MTYgLTQuNTExMzMyNjUxNzI1NTgxLCAxMDUuNjU4ODUxNjIzNTM1MTYgNzQuOTk2MDg5OTM1MzAyNzMgTTEwNS42NTg4NTE2MjM1MzUxNiAtNzQuOTk2MDg5OTM1MzAyNzMgQzEwNS42NTg4NTE2MjM1MzUxNiAtMzAuMjE0MTcwOTYzNDg0NjU1LCAxMDUuNjU4ODUxNjIzNTM1MTYgMTQuNTY3NzQ4MDA4MzMzNDI1LCAxMDUuNjU4ODUxNjIzNTM1MTYgNzQuOTk2MDg5OTM1MzAyNzMgTTEwNS42NTg4NTE2MjM1MzUxNiA3NC45OTYwODk5MzUzMDI3MyBDMjMuMTgwNjc0NTA0MjIwNDYyIDc0Ljk5NjA4OTkzNTMwMjczLCAtNTkuMjk3NTAyNjE1MDk0MjMgNzQuOTk2MDg5OTM1MzAyNzMsIC0xMDUuNjU4ODUxNjIzNTM1MTYgNzQuOTk2MDg5OTM1MzAyNzMgTTEwNS42NTg4NTE2MjM1MzUxNiA3NC45OTYwODk5MzUzMDI3MyBDMzMuMTIzMzUxNTEzMDMwNTg1IDc0Ljk5NjA4OTkzNTMwMjczLCAtMzkuNDEyMTQ4NTk3NDczOTkgNzQuOTk2MDg5OTM1MzAyNzMsIC0xMDUuNjU4ODUxNjIzNTM1MTYgNzQuOTk2MDg5OTM1MzAyNzMgTS0xMDUuNjU4ODUxNjIzNTM1MTYgNzQuOTk2MDg5OTM1MzAyNzMgQy0xMDUuNjU4ODUxNjIzNTM1MTYgMzEuNDU2NzAzNzU5ODEzMTUyLCAtMTA1LjY1ODg1MTYyMzUzNTE2IC0xMi4wODI2ODI0MTU2NzY0MywgLTEwNS42NTg4NTE2MjM1MzUxNiAtNzQuOTk2MDg5OTM1MzAyNzMgTS0xMDUuNjU4ODUxNjIzNTM1MTYgNzQuOTk2MDg5OTM1MzAyNzMgQy0xMDUuNjU4ODUxNjIzNTM1MTYgNDEuNzU1MDE3NDI5MDYxNywgLTEwNS42NTg4NTE2MjM1MzUxNiA4LjUxMzk0NDkyMjgyMDY3LCAtMTA1LjY1ODg1MTYyMzUzNTE2IC03NC45OTYwODk5MzUzMDI3MyI+PC9wYXRoPjwvZz48ZyB0cmFuc2Zvcm09InRyYW5zbGF0ZSgtNDEuMTcxODc4ODE0Njk3MjY2LCAtNTAuOTk2MDg5OTM1MzAyNzM0KSIgY2xhc3M9ImFubm90YXRpb24tZ3JvdXAgdGV4dCI+PGcgdHJhbnNmb3JtPSJ0cmFuc2xhdGUoMCwtMTEuOTk4Njk3MjgwODgzNzg5KSIgc3R5bGU9IiIgY2xhc3M9ImxhYmVsIj48Zm9yZWlnbk9iamVjdCBoZWlnaHQ9IjIzLjk5NzM5NDU2MTc2NzU3OCIgd2lkdGg9IjgyLjM0Mzc1NzYyOTM5NDUzIj48ZGl2IHN0eWxlPSJkaXNwbGF5OiB0YWJsZS1jZWxsOyB3aGl0ZS1zcGFjZTogbm93cmFwOyBsaW5lLWhlaWdodDogMS41OyBtYXgtd2lkdGg6IDEyOHB4OyB0ZXh0LWFsaWduOiBjZW50ZXI7IiB4bWxucz0iaHR0cDovL3d3dy53My5vcmcvMTk5OS94aHRtbCI+PHNwYW4gc3R5bGU9IiIgY2xhc3M9Im5vZGVMYWJlbCBtYXJrZG93bi1ub2RlLWxhYmVsIj48cD7Cq2ludGVyZmFjZcK7PC9wPjwvc3Bhbj48L2Rpdj48L2ZvcmVpZ25PYmplY3Q+PC9nPjwvZz48ZyB0cmFuc2Zvcm09InRyYW5zbGF0ZSgtNjQuMjU3ODEyNSwgLTI2Ljk5ODY5NTM3MzUzNTE1NikiIGNsYXNzPSJsYWJlbC1ncm91cCB0ZXh0Ij48ZyB0cmFuc2Zvcm09InRyYW5zbGF0ZSgwLC0xMS45OTg2OTcyODA4ODM3ODkpIiBzdHlsZT0iZm9udC13ZWlnaHQ6IGJvbGRlciIgY2xhc3M9ImxhYmVsIj48Zm9yZWlnbk9iamVjdCBoZWlnaHQ9IjIzLjk5NzM5NDU2MTc2NzU3OCIgd2lkdGg9IjEyOC41MTU2MjUiPjxkaXYgc3R5bGU9ImRpc3BsYXk6IHRhYmxlLWNlbGw7IHdoaXRlLXNwYWNlOiBub3dyYXA7IGxpbmUtaGVpZ2h0OiAxLjU7IG1heC13aWR0aDogMTcxcHg7IHRleHQtYWxpZ246IGNlbnRlcjsiIHhtbG5zPSJodHRwOi8vd3d3LnczLm9yZy8xOTk5L3hodG1sIj48c3BhbiBzdHlsZT0iIiBjbGFzcz0ibm9kZUxhYmVsIG1hcmtkb3duLW5vZGUtbGFiZWwiPjxwPkVzdHJhdGVnaWFDYWxjdWxvPC9wPjwvc3Bhbj48L2Rpdj48L2ZvcmVpZ25PYmplY3Q+PC9nPjwvZz48ZyB0cmFuc2Zvcm09InRyYW5zbGF0ZSgtOTMuNjU4ODUxNjIzNTM1MTYsIDIwLjk5ODY5OTE4ODIzMjQyMikiIGNsYXNzPSJtZW1iZXJzLWdyb3VwIHRleHQiPjwvZz48ZyB0cmFuc2Zvcm09InRyYW5zbGF0ZSgtOTMuNjU4ODUxNjIzNTM1MTYsIDUwLjk5ODY5OTE4ODIzMjQyKSIgY2xhc3M9Im1ldGhvZHMtZ3JvdXAgdGV4dCI+PGcgdHJhbnNmb3JtPSJ0cmFuc2xhdGUoMCwtMTEuOTk4Njk3MjgwODgzNzg5KSIgc3R5bGU9IiIgY2xhc3M9ImxhYmVsIj48Zm9yZWlnbk9iamVjdCBoZWlnaHQ9IjIzLjk5NzM5NDU2MTc2NzU3OCIgd2lkdGg9IjEyMy4wNTk4OTA3NDcwNzAzMSI+PGRpdiBzdHlsZT0iZGlzcGxheTogdGFibGUtY2VsbDsgd2hpdGUtc3BhY2U6IG5vd3JhcDsgbGluZS1oZWlnaHQ6IDEuNTsgbWF4LXdpZHRoOiAxNzBweDsgdGV4dC1hbGlnbjogY2VudGVyOyIgeG1sbnM9Imh0dHA6Ly93d3cudzMub3JnLzE5OTkveGh0bWwiPjxzcGFuIHN0eWxlPSIiIGNsYXNzPSJub2RlTGFiZWwgbWFya2Rvd24tbm9kZS1sYWJlbCI+PHA+K2NhbGN1bGFyKCkgOiA6IGludDwvcD48L3NwYW4+PC9kaXY+PC9mb3JlaWduT2JqZWN0PjwvZz48L2c+PGcgc3R5bGU9IiIgY2xhc3M9ImRpdmlkZXIiPjxwYXRoIHN0eWxlPSIiIGZpbGw9Im5vbmUiIHN0cm9rZS13aWR0aD0iMS4zIiBzdHJva2U9IiM5OTkiIGQ9Ik0tMTA1LjY1ODg1MTYyMzUzNTE2IC0zLjAwMTMwMDgxMTc2NzU3OCBDLTQ4LjE0NjE5NzgzMDA5NzE0NCAtMy4wMDEzMDA4MTE3Njc1NzgsIDkuMzY2NDU1OTYzMzQwODY5IC0zLjAwMTMwMDgxMTc2NzU3OCwgMTA1LjY1ODg1MTYyMzUzNTE2IC0zLjAwMTMwMDgxMTc2NzU3OCBNLTEwNS42NTg4NTE2MjM1MzUxNiAtMy4wMDEzMDA4MTE3Njc1NzggQy00NC44NzM2NDQ0ODM1MzYxNTQgLTMuMDAxMzAwODExNzY3NTc4LCAxNS45MTE1NjI2NTY0NjI4NDkgLTMuMDAxMzAwODExNzY3NTc4LCAxMDUuNjU4ODUxNjIzNTM1MTYgLTMuMDAxMzAwODExNzY3NTc4Ij48L3BhdGg+PC9nPjxnIHN0eWxlPSIiIGNsYXNzPSJkaXZpZGVyIj48cGF0aCBzdHlsZT0iIiBmaWxsPSJub25lIiBzdHJva2Utd2lkdGg9IjEuMyIgc3Ryb2tlPSIjOTk5IiBkPSJNLTEwNS42NTg4NTE2MjM1MzUxNiAyMC45OTg2OTkxODgyMzI0MjIgQy0yOC45NDc3NTI4NDUxOTgxNjcgMjAuOTk4Njk5MTg4MjMyNDIyLCA0Ny43NjMzNDU5MzMxMzg4MiAyMC45OTg2OTkxODgyMzI0MjIsIDEwNS42NTg4NTE2MjM1MzUxNiAyMC45OTg2OTkxODgyMzI0MjIgTS0xMDUuNjU4ODUxNjIzNTM1MTYgMjAuOTk4Njk5MTg4MjMyNDIyIEMtMjIuMjA4MTYwOTE1MjQ3OTg3IDIwLjk5ODY5OTE4ODIzMjQyMiwgNjEuMjQyNTI5NzkzMDM5MTggMjAuOTk4Njk5MTg4MjMyNDIyLCAxMDUuNjU4ODUxNjIzNTM1MTYgMjAuOTk4Njk5MTg4MjMyNDIyIj48L3BhdGg+PC9nPjwvZz48ZyB0cmFuc2Zvcm09InRyYW5zbGF0ZSgxMTcuMTk0MDA3ODczNTM1MTYsIDM5My45NzUyNTc4NzM1MzUxNikiIGlkPSJjbGFzc0lkLUNhbGN1bG9BbHF1aWxlckZpam8tMSIgY2xhc3M9Im5vZGUgZGVmYXVsdCI+PGcgY2xhc3M9ImJhc2ljIGxhYmVsLWNvbnRhaW5lciI+PHBhdGggc3R5bGU9IiIgZmlsbD0iI2VlZSIgc3Ryb2tlLXdpZHRoPSIwIiBzdHJva2U9Im5vbmUiIGQ9Ik0tMTA5LjE5NDAwNzg3MzUzNTE2IC03NC45OTYwODk5MzUzMDI3MyBMMTA5LjE5NDAwNzg3MzUzNTE2IC03NC45OTYwODk5MzUzMDI3MyBMMTA5LjE5NDAwNzg3MzUzNTE2IDc0Ljk5NjA4OTkzNTMwMjczIEwtMTA5LjE5NDAwNzg3MzUzNTE2IDc0Ljk5NjA4OTkzNTMwMjczIj48L3BhdGg+PHBhdGggc3R5bGU9IiIgZmlsbD0ibm9uZSIgc3Ryb2tlLXdpZHRoPSIxLjMiIHN0cm9rZT0iIzk5OSIgZD0iTS0xMDkuMTk0MDA3ODczNTM1MTYgLTc0Ljk5NjA4OTkzNTMwMjczIEMtNjQuODM1Mjc2MzI0MDQzMzIgLTc0Ljk5NjA4OTkzNTMwMjczLCAtMjAuNDc2NTQ0Nzc0NTUxNDg1IC03NC45OTYwODk5MzUzMDI3MywgMTA5LjE5NDAwNzg3MzUzNTE2IC03NC45OTYwODk5MzUzMDI3MyBNLTEwOS4xOTQwMDc4NzM1MzUxNiAtNzQuOTk2MDg5OTM1MzAyNzMgQy00OC40MjYwMjIxODE3NjM3NiAtNzQuOTk2MDg5OTM1MzAyNzMsIDEyLjM0MTk2MzUxMDAwNzYzIC03NC45OTYwODk5MzUzMDI3MywgMTA5LjE5NDAwNzg3MzUzNTE2IC03NC45OTYwODk5MzUzMDI3MyBNMTA5LjE5NDAwNzg3MzUzNTE2IC03NC45OTYwODk5MzUzMDI3MyBDMTA5LjE5NDAwNzg3MzUzNTE2IC00NC42NTg4NDM4NTM3MzYzNCwgMTA5LjE5NDAwNzg3MzUzNTE2IC0xNC4zMjE1OTc3NzIxNjk5NTksIDEwOS4xOTQwMDc4NzM1MzUxNiA3NC45OTYwODk5MzUzMDI3MyBNMTA5LjE5NDAwNzg3MzUzNTE2IC03NC45OTYwODk5MzUzMDI3MyBDMTA5LjE5NDAwNzg3MzUzNTE2IC0yOS41NDUwMjM0MzY0MzcwNywgMTA5LjE5NDAwNzg3MzUzNTE2IDE1LjkwNjA0MzA2MjQyODU5NCwgMTA5LjE5NDAwNzg3MzUzNTE2IDc0Ljk5NjA4OTkzNTMwMjczIE0xMDkuMTk0MDA3ODczNTM1MTYgNzQuOTk2MDg5OTM1MzAyNzMgQzI3Ljg3MTQ4NTExMzk5NzMzOCA3NC45OTYwODk5MzUzMDI3MywgLTUzLjQ1MTAzNzY0NTU0MDQ4IDc0Ljk5NjA4OTkzNTMwMjczLCAtMTA5LjE5NDAwNzg3MzUzNTE2IDc0Ljk5NjA4OTkzNTMwMjczIE0xMDkuMTk0MDA3ODczNTM1MTYgNzQuOTk2MDg5OTM1MzAyNzMgQzQ5LjI4NTM2MzgxNjg5MSA3NC45OTYwODk5MzUzMDI3MywgLTEwLjYyMzI4MDIzOTc1MzE1NyA3NC45OTYwODk5MzUzMDI3MywgLTEwOS4xOTQwMDc4NzM1MzUxNiA3NC45OTYwODk5MzUzMDI3MyBNLTEwOS4xOTQwMDc4NzM1MzUxNiA3NC45OTYwODk5MzUzMDI3MyBDLTEwOS4xOTQwMDc4NzM1MzUxNiAyNS43NTA2Mjc2OTQ0ODQzNTgsIC0xMDkuMTk0MDA3ODczNTM1MTYgLTIzLjQ5NDgzNDU0NjMzNDAyLCAtMTA5LjE5NDAwNzg3MzUzNTE2IC03NC45OTYwODk5MzUzMDI3MyBNLTEwOS4xOTQwMDc4NzM1MzUxNiA3NC45OTYwODk5MzUzMDI3MyBDLTEwOS4xOTQwMDc4NzM1MzUxNiAyMC43NjExMzIyNjIxNTEyNjQsIC0xMDkuMTk0MDA3ODczNTM1MTYgLTMzLjQ3MzgyNTQxMTAwMDIwNiwgLTEwOS4xOTQwMDc4NzM1MzUxNiAtNzQuOTk2MDg5OTM1MzAyNzMiPjwvcGF0aD48L2c+PGcgdHJhbnNmb3JtPSJ0cmFuc2xhdGUoLTQxLjE3MTg3ODgxNDY5NzI2NiwgLTUwLjk5NjA4OTkzNTMwMjczNCkiIGNsYXNzPSJhbm5vdGF0aW9uLWdyb3VwIHRleHQiPjxnIHRyYW5zZm9ybT0idHJhbnNsYXRlKDAsLTExLjk5ODY5NzI4MDg4Mzc4OSkiIHN0eWxlPSIiIGNsYXNzPSJsYWJlbCI+PGZvcmVpZ25PYmplY3QgaGVpZ2h0PSIyMy45OTczOTQ1NjE3Njc1NzgiIHdpZHRoPSI4Mi4zNDM3NTc2MjkzOTQ1MyI+PGRpdiBzdHlsZT0iZGlzcGxheTogdGFibGUtY2VsbDsgd2hpdGUtc3BhY2U6IG5vd3JhcDsgbGluZS1oZWlnaHQ6IDEuNTsgbWF4LXdpZHRoOiAxMjhweDsgdGV4dC1hbGlnbjogY2VudGVyOyIgeG1sbnM9Imh0dHA6Ly93d3cudzMub3JnLzE5OTkveGh0bWwiPjxzcGFuIHN0eWxlPSIiIGNsYXNzPSJub2RlTGFiZWwgbWFya2Rvd24tbm9kZS1sYWJlbCI+PHA+wqtpbnRlcmZhY2XCuzwvcD48L3NwYW4+PC9kaXY+PC9mb3JlaWduT2JqZWN0PjwvZz48L2c+PGcgdHJhbnNmb3JtPSJ0cmFuc2xhdGUoLTcxLjMyODEyNSwgLTI2Ljk5ODY5NTM3MzUzNTE1NikiIGNsYXNzPSJsYWJlbC1ncm91cCB0ZXh0Ij48ZyB0cmFuc2Zvcm09InRyYW5zbGF0ZSgwLC0xMS45OTg2OTcyODA4ODM3ODkpIiBzdHlsZT0iZm9udC13ZWlnaHQ6IGJvbGRlciIgY2xhc3M9ImxhYmVsIj48Zm9yZWlnbk9iamVjdCBoZWlnaHQ9IjIzLjk5NzM5NDU2MTc2NzU3OCIgd2lkdGg9IjE0Mi42NTYyNSI+PGRpdiBzdHlsZT0iZGlzcGxheTogdGFibGUtY2VsbDsgd2hpdGUtc3BhY2U6IG5vd3JhcDsgbGluZS1oZWlnaHQ6IDEuNTsgbWF4LXdpZHRoOiAxODFweDsgdGV4dC1hbGlnbjogY2VudGVyOyIgeG1sbnM9Imh0dHA6Ly93d3cudzMub3JnLzE5OTkveGh0bWwiPjxzcGFuIHN0eWxlPSIiIGNsYXNzPSJub2RlTGFiZWwgbWFya2Rvd24tbm9kZS1sYWJlbCI+PHA+Q2FsY3Vsb0FscXVpbGVyRmlqbzwvcD48L3NwYW4+PC9kaXY+PC9mb3JlaWduT2JqZWN0PjwvZz48L2c+PGcgdHJhbnNmb3JtPSJ0cmFuc2xhdGUoLTk3LjE5NDAwNzg3MzUzNTE2LCAyMC45OTg2OTkxODgyMzI0MjIpIiBjbGFzcz0ibWVtYmVycy1ncm91cCB0ZXh0Ij48L2c+PGcgdHJhbnNmb3JtPSJ0cmFuc2xhdGUoLTk3LjE5NDAwNzg3MzUzNTE2LCA1MC45OTg2OTkxODgyMzI0MikiIGNsYXNzPSJtZXRob2RzLWdyb3VwIHRleHQiPjxnIHRyYW5zZm9ybT0idHJhbnNsYXRlKDAsLTExLjk5ODY5NzI4MDg4Mzc4OSkiIHN0eWxlPSIiIGNsYXNzPSJsYWJlbCI+PGZvcmVpZ25PYmplY3QgaGVpZ2h0PSIyMy45OTczOTQ1NjE3Njc1NzgiIHdpZHRoPSIxMjMuMDU5ODkwNzQ3MDcwMzEiPjxkaXYgc3R5bGU9ImRpc3BsYXk6IHRhYmxlLWNlbGw7IHdoaXRlLXNwYWNlOiBub3dyYXA7IGxpbmUtaGVpZ2h0OiAxLjU7IG1heC13aWR0aDogMTcwcHg7IHRleHQtYWxpZ246IGNlbnRlcjsiIHhtbG5zPSJodHRwOi8vd3d3LnczLm9yZy8xOTk5L3hodG1sIj48c3BhbiBzdHlsZT0iIiBjbGFzcz0ibm9kZUxhYmVsIG1hcmtkb3duLW5vZGUtbGFiZWwiPjxwPitjYWxjdWxhcigpIDogOiBpbnQ8L3A+PC9zcGFuPjwvZGl2PjwvZm9yZWlnbk9iamVjdD48L2c+PC9nPjxnIHN0eWxlPSIiIGNsYXNzPSJkaXZpZGVyIj48cGF0aCBzdHlsZT0iIiBmaWxsPSJub25lIiBzdHJva2Utd2lkdGg9IjEuMyIgc3Ryb2tlPSIjOTk5IiBkPSJNLTEwOS4xOTQwMDc4NzM1MzUxNiAtMy4wMDEzMDA4MTE3Njc1NzggQy00Ny4zODc2NTc0MzMwMjQwOSAtMy4wMDEzMDA4MTE3Njc1NzgsIDE0LjQxODY5MzAwNzQ4Njk4IC0zLjAwMTMwMDgxMTc2NzU3OCwgMTA5LjE5NDAwNzg3MzUzNTE2IC0zLjAwMTMwMDgxMTc2NzU3OCBNLTEwOS4xOTQwMDc4NzM1MzUxNiAtMy4wMDEzMDA4MTE3Njc1NzggQy00OC4wMTc0MjA0NjM2NTkyIC0zLjAwMTMwMDgxMTc2NzU3OCwgMTMuMTU5MTY2OTQ2MjE2NzU3IC0zLjAwMTMwMDgxMTc2NzU3OCwgMTA5LjE5NDAwNzg3MzUzNTE2IC0zLjAwMTMwMDgxMTc2NzU3OCI+PC9wYXRoPjwvZz48ZyBzdHlsZT0iIiBjbGFzcz0iZGl2aWRlciI+PHBhdGggc3R5bGU9IiIgZmlsbD0ibm9uZSIgc3Ryb2tlLXdpZHRoPSIxLjMiIHN0cm9rZT0iIzk5OSIgZD0iTS0xMDkuMTk0MDA3ODczNTM1MTYgMjAuOTk4Njk5MTg4MjMyNDIyIEMtMjcuNDUyODYxNDk5MTk5NDMgMjAuOTk4Njk5MTg4MjMyNDIyLCA1NC4yODgyODQ4NzUxMzYzIDIwLjk5ODY5OTE4ODIzMjQyMiwgMTA5LjE5NDAwNzg3MzUzNTE2IDIwLjk5ODY5OTE4ODIzMjQyMiBNLTEwOS4xOTQwMDc4NzM1MzUxNiAyMC45OTg2OTkxODgyMzI0MjIgQy01My4xNzU0Mzc2MTYxNjAyOTUgMjAuOTk4Njk5MTg4MjMyNDIyLCAyLjg0MzEzMjY0MTIxNDU2NjUgMjAuOTk4Njk5MTg4MjMyNDIyLCAxMDkuMTk0MDA3ODczNTM1MTYgMjAuOTk4Njk5MTg4MjMyNDIyIj48L3BhdGg+PC9nPjwvZz48ZyB0cmFuc2Zvcm09InRyYW5zbGF0ZSgzOTguNjQ1MTcyMTE5MTQwNiwgMzkzLjk3NTI1Nzg3MzUzNTE2KSIgaWQ9ImNsYXNzSWQtQ2FsY3Vsb0FscXVpbGVyUG9yY2VudGFqZS0yIiBjbGFzcz0ibm9kZSBkZWZhdWx0Ij48ZyBjbGFzcz0iYmFzaWMgbGFiZWwtY29udGFpbmVyIj48cGF0aCBzdHlsZT0iIiBmaWxsPSIjZWVlIiBzdHJva2Utd2lkdGg9IjAiIHN0cm9rZT0ibm9uZSIgZD0iTS0xMjIuMjU3MTU2MzcyMDcwMzEgLTc0Ljk5NjA4OTkzNTMwMjczIEwxMjIuMjU3MTU2MzcyMDcwMzEgLTc0Ljk5NjA4OTkzNTMwMjczIEwxMjIuMjU3MTU2MzcyMDcwMzEgNzQuOTk2MDg5OTM1MzAyNzMgTC0xMjIuMjU3MTU2MzcyMDcwMzEgNzQuOTk2MDg5OTM1MzAyNzMiPjwvcGF0aD48cGF0aCBzdHlsZT0iIiBmaWxsPSJub25lIiBzdHJva2Utd2lkdGg9IjEuMyIgc3Ryb2tlPSIjOTk5IiBkPSJNLTEyMi4yNTcxNTYzNzIwNzAzMSAtNzQuOTk2MDg5OTM1MzAyNzMgQy01OC42ODkxMDQ1MzYzNDk5NiAtNzQuOTk2MDg5OTM1MzAyNzMsIDQuODc4OTQ3Mjk5MzcwMzk1IC03NC45OTYwODk5MzUzMDI3MywgMTIyLjI1NzE1NjM3MjA3MDMxIC03NC45OTYwODk5MzUzMDI3MyBNLTEyMi4yNTcxNTYzNzIwNzAzMSAtNzQuOTk2MDg5OTM1MzAyNzMgQy01OS4zNzI5NjcyOTgwNjQ4MTUgLTc0Ljk5NjA4OTkzNTMwMjczLCAzLjUxMTIyMTc3NTk0MDY4MyAtNzQuOTk2MDg5OTM1MzAyNzMsIDEyMi4yNTcxNTYzNzIwNzAzMSAtNzQuOTk2MDg5OTM1MzAyNzMgTTEyMi4yNTcxNTYzNzIwNzAzMSAtNzQuOTk2MDg5OTM1MzAyNzMgQzEyMi4yNTcxNTYzNzIwNzAzMSAtMjYuODMwODU3MTIwOTY5Njc1LCAxMjIuMjU3MTU2MzcyMDcwMzEgMjEuMzM0Mzc1NjkzMzYzMzg0LCAxMjIuMjU3MTU2MzcyMDcwMzEgNzQuOTk2MDg5OTM1MzAyNzMgTTEyMi4yNTcxNTYzNzIwNzAzMSAtNzQuOTk2MDg5OTM1MzAyNzMgQzEyMi4yNTcxNTYzNzIwNzAzMSAtMzcuODExODAyMTY4MzQ3NjUsIDEyMi4yNTcxNTYzNzIwNzAzMSAtMC42Mjc1MTQ0MDEzOTI1NTk4LCAxMjIuMjU3MTU2MzcyMDcwMzEgNzQuOTk2MDg5OTM1MzAyNzMgTTEyMi4yNTcxNTYzNzIwNzAzMSA3NC45OTYwODk5MzUzMDI3MyBDMjYuNjM4ODk2OTU5ODYyNDkzIDc0Ljk5NjA4OTkzNTMwMjczLCAtNjguOTc5MzYyNDUyMzQ1MzMgNzQuOTk2MDg5OTM1MzAyNzMsIC0xMjIuMjU3MTU2MzcyMDcwMzEgNzQuOTk2MDg5OTM1MzAyNzMgTTEyMi4yNTcxNTYzNzIwNzAzMSA3NC45OTYwODk5MzUzMDI3MyBDMzEuMzIxNzQ2MDIwMTk5OTQgNzQuOTk2MDg5OTM1MzAyNzMsIC01OS42MTM2NjQzMzE2NzA0MzUgNzQuOTk2MDg5OTM1MzAyNzMsIC0xMjIuMjU3MTU2MzcyMDcwMzEgNzQuOTk2MDg5OTM1MzAyNzMgTS0xMjIuMjU3MTU2MzcyMDcwMzEgNzQuOTk2MDg5OTM1MzAyNzMgQy0xMjIuMjU3MTU2MzcyMDcwMzEgMzEuOTkzMzgyNjg5NDE0MDQsIC0xMjIuMjU3MTU2MzcyMDcwMzEgLTExLjAwOTMyNDU1NjQ3NDY1MiwgLTEyMi4yNTcxNTYzNzIwNzAzMSAtNzQuOTk2MDg5OTM1MzAyNzMgTS0xMjIuMjU3MTU2MzcyMDcwMzEgNzQuOTk2MDg5OTM1MzAyNzMgQy0xMjIuMjU3MTU2MzcyMDcwMzEgMzYuMzE1MzE3NjY4MDMxMTg0LCAtMTIyLjI1NzE1NjM3MjA3MDMxIC0yLjM2NTQ1NDU5OTI0MDM2NTUsIC0xMjIuMjU3MTU2MzcyMDcwMzEgLTc0Ljk5NjA4OTkzNTMwMjczIj48L3BhdGg+PC9nPjxnIHRyYW5zZm9ybT0idHJhbnNsYXRlKC00MS4xNzE4Nzg4MTQ2OTcyNjYsIC01MC45OTYwODk5MzUzMDI3MzQpIiBjbGFzcz0iYW5ub3RhdGlvbi1ncm91cCB0ZXh0Ij48ZyB0cmFuc2Zvcm09InRyYW5zbGF0ZSgwLC0xMS45OTg2OTcyODA4ODM3ODkpIiBzdHlsZT0iIiBjbGFzcz0ibGFiZWwiPjxmb3JlaWduT2JqZWN0IGhlaWdodD0iMjMuOTk3Mzk0NTYxNzY3NTc4IiB3aWR0aD0iODIuMzQzNzU3NjI5Mzk0NTMiPjxkaXYgc3R5bGU9ImRpc3BsYXk6IHRhYmxlLWNlbGw7IHdoaXRlLXNwYWNlOiBub3dyYXA7IGxpbmUtaGVpZ2h0OiAxLjU7IG1heC13aWR0aDogMTI4cHg7IHRleHQtYWxpZ246IGNlbnRlcjsiIHhtbG5zPSJodHRwOi8vd3d3LnczLm9yZy8xOTk5L3hodG1sIj48c3BhbiBzdHlsZT0iIiBjbGFzcz0ibm9kZUxhYmVsIG1hcmtkb3duLW5vZGUtbGFiZWwiPjxwPsKraW50ZXJmYWNlwrs8L3A+PC9zcGFuPjwvZGl2PjwvZm9yZWlnbk9iamVjdD48L2c+PC9nPjxnIHRyYW5zZm9ybT0idHJhbnNsYXRlKC05Ny40NTQ0MjE5OTcwNzAzMSwgLTI2Ljk5ODY5NTM3MzUzNTE1NikiIGNsYXNzPSJsYWJlbC1ncm91cCB0ZXh0Ij48ZyB0cmFuc2Zvcm09InRyYW5zbGF0ZSgwLC0xMS45OTg2OTcyODA4ODM3ODkpIiBzdHlsZT0iZm9udC13ZWlnaHQ6IGJvbGRlciIgY2xhc3M9ImxhYmVsIj48Zm9yZWlnbk9iamVjdCBoZWlnaHQ9IjIzLjk5NzM5NDU2MTc2NzU3OCIgd2lkdGg9IjE5NC45MDg4NDM5OTQxNDA2MiI+PGRpdiBzdHlsZT0iZGlzcGxheTogdGFibGUtY2VsbDsgd2hpdGUtc3BhY2U6IG5vd3JhcDsgbGluZS1oZWlnaHQ6IDEuNTsgbWF4LXdpZHRoOiAyMzBweDsgdGV4dC1hbGlnbjogY2VudGVyOyIgeG1sbnM9Imh0dHA6Ly93d3cudzMub3JnLzE5OTkveGh0bWwiPjxzcGFuIHN0eWxlPSIiIGNsYXNzPSJub2RlTGFiZWwgbWFya2Rvd24tbm9kZS1sYWJlbCI+PHA+Q2FsY3Vsb0FscXVpbGVyUG9yY2VudGFqZTwvcD48L3NwYW4+PC9kaXY+PC9mb3JlaWduT2JqZWN0PjwvZz48L2c+PGcgdHJhbnNmb3JtPSJ0cmFuc2xhdGUoLTExMC4yNTcxNTYzNzIwNzAzMSwgMjAuOTk4Njk5MTg4MjMyNDIyKSIgY2xhc3M9Im1lbWJlcnMtZ3JvdXAgdGV4dCI+PC9nPjxnIHRyYW5zZm9ybT0idHJhbnNsYXRlKC0xMTAuMjU3MTU2MzcyMDcwMzEsIDUwLjk5ODY5OTE4ODIzMjQyKSIgY2xhc3M9Im1ldGhvZHMtZ3JvdXAgdGV4dCI+PGcgdHJhbnNmb3JtPSJ0cmFuc2xhdGUoMCwtMTEuOTk4Njk3MjgwODgzNzg5KSIgc3R5bGU9IiIgY2xhc3M9ImxhYmVsIj48Zm9yZWlnbk9iamVjdCBoZWlnaHQ9IjIzLjk5NzM5NDU2MTc2NzU3OCIgd2lkdGg9IjEyMy4wNTk4OTA3NDcwNzAzMSI+PGRpdiBzdHlsZT0iZGlzcGxheTogdGFibGUtY2VsbDsgd2hpdGUtc3BhY2U6IG5vd3JhcDsgbGluZS1oZWlnaHQ6IDEuNTsgbWF4LXdpZHRoOiAxNzBweDsgdGV4dC1hbGlnbjogY2VudGVyOyIgeG1sbnM9Imh0dHA6Ly93d3cudzMub3JnLzE5OTkveGh0bWwiPjxzcGFuIHN0eWxlPSIiIGNsYXNzPSJub2RlTGFiZWwgbWFya2Rvd24tbm9kZS1sYWJlbCI+PHA+K2NhbGN1bGFyKCkgOiA6IGludDwvcD48L3NwYW4+PC9kaXY+PC9mb3JlaWduT2JqZWN0PjwvZz48L2c+PGcgc3R5bGU9IiIgY2xhc3M9ImRpdmlkZXIiPjxwYXRoIHN0eWxlPSIiIGZpbGw9Im5vbmUiIHN0cm9rZS13aWR0aD0iMS4zIiBzdHJva2U9IiM5OTkiIGQ9Ik0tMTIyLjI1NzE1NjM3MjA3MDMxIC0zLjAwMTMwMDgxMTc2NzU3OCBDLTM2LjAzNjMyNzcyMDUxMTQyIC0zLjAwMTMwMDgxMTc2NzU3OCwgNTAuMTg0NTAwOTMxMDQ3NDcgLTMuMDAxMzAwODExNzY3NTc4LCAxMjIuMjU3MTU2MzcyMDcwMzEgLTMuMDAxMzAwODExNzY3NTc4IE0tMTIyLjI1NzE1NjM3MjA3MDMxIC0zLjAwMTMwMDgxMTc2NzU3OCBDLTQ1Ljk5NTc0MzEzOTAwODk1IC0zLjAwMTMwMDgxMTc2NzU3OCwgMzAuMjY1NjcwMDk0MDUyNDEgLTMuMDAxMzAwODExNzY3NTc4LCAxMjIuMjU3MTU2MzcyMDcwMzEgLTMuMDAxMzAwODExNzY3NTc4Ij48L3BhdGg+PC9nPjxnIHN0eWxlPSIiIGNsYXNzPSJkaXZpZGVyIj48cGF0aCBzdHlsZT0iIiBmaWxsPSJub25lIiBzdHJva2Utd2lkdGg9IjEuMyIgc3Ryb2tlPSIjOTk5IiBkPSJNLTEyMi4yNTcxNTYzNzIwNzAzMSAyMC45OTg2OTkxODgyMzI0MjIgQy02MS43NTQ5MDAyNjE1OTUyMSAyMC45OTg2OTkxODgyMzI0MjIsIC0xLjI1MjY0NDE1MTEyMDEwODUgMjAuOTk4Njk5MTg4MjMyNDIyLCAxMjIuMjU3MTU2MzcyMDcwMzEgMjAuOTk4Njk5MTg4MjMyNDIyIE0tMTIyLjI1NzE1NjM3MjA3MDMxIDIwLjk5ODY5OTE4ODIzMjQyMiBDLTUzLjQzNTcxMjg4MDYyNzgwNCAyMC45OTg2OTkxODgyMzI0MjIsIDE1LjM4NTczMDYxMDgxNDcwNCAyMC45OTg2OTkxODgyMzI0MjIsIDEyMi4yNTcxNTYzNzIwNzAzMSAyMC45OTg2OTkxODgyMzI0MjIiPjwvcGF0aD48L2c+PC9nPjxnIHRyYW5zZm9ybT0idHJhbnNsYXRlKDcwMC40MTg1OTQzNjAzNTE2LCAzOTMuOTc1MjU3ODczNTM1MTYpIiBpZD0iY2xhc3NJZC1DYWxjdWxvQWxxdWlsZXJQb3JjZW50YWplRmlqby0zIiBjbGFzcz0ibm9kZSBkZWZhdWx0Ij48ZyBjbGFzcz0iYmFzaWMgbGFiZWwtY29udGFpbmVyIj48cGF0aCBzdHlsZT0iIiBmaWxsPSIjZWVlIiBzdHJva2Utd2lkdGg9IjAiIHN0cm9rZT0ibm9uZSIgZD0iTS0xMjkuNTE2MjczNDk4NTM1MTYgLTc0Ljk5NjA4OTkzNTMwMjczIEwxMjkuNTE2MjczNDk4NTM1MTYgLTc0Ljk5NjA4OTkzNTMwMjczIEwxMjkuNTE2MjczNDk4NTM1MTYgNzQuOTk2MDg5OTM1MzAyNzMgTC0xMjkuNTE2MjczNDk4NTM1MTYgNzQuOTk2MDg5OTM1MzAyNzMiPjwvcGF0aD48cGF0aCBzdHlsZT0iIiBmaWxsPSJub25lIiBzdHJva2Utd2lkdGg9IjEuMyIgc3Ryb2tlPSIjOTk5IiBkPSJNLTEyOS41MTYyNzM0OTg1MzUxNiAtNzQuOTk2MDg5OTM1MzAyNzMgQy0zOS4yOTk1MDU3NzYyNTQyOCAtNzQuOTk2MDg5OTM1MzAyNzMsIDUwLjkxNzI2MTk0NjAyNjYgLTc0Ljk5NjA4OTkzNTMwMjczLCAxMjkuNTE2MjczNDk4NTM1MTYgLTc0Ljk5NjA4OTkzNTMwMjczIE0tMTI5LjUxNjI3MzQ5ODUzNTE2IC03NC45OTYwODk5MzUzMDI3MyBDLTQ3LjA0MTI3NzE2MDA5Nzc2IC03NC45OTYwODk5MzUzMDI3MywgMzUuNDMzNzE5MTc4MzM5NjMgLTc0Ljk5NjA4OTkzNTMwMjczLCAxMjkuNTE2MjczNDk4NTM1MTYgLTc0Ljk5NjA4OTkzNTMwMjczIE0xMjkuNTE2MjczNDk4NTM1MTYgLTc0Ljk5NjA4OTkzNTMwMjczIEMxMjkuNTE2MjczNDk4NTM1MTYgLTIxLjU5MjM1OTk1MjIyODEzLCAxMjkuNTE2MjczNDk4NTM1MTYgMzEuODExMzcwMDMwODQ2NDc2LCAxMjkuNTE2MjczNDk4NTM1MTYgNzQuOTk2MDg5OTM1MzAyNzMgTTEyOS41MTYyNzM0OTg1MzUxNiAtNzQuOTk2MDg5OTM1MzAyNzMgQzEyOS41MTYyNzM0OTg1MzUxNiAtMjUuNDY1MzMyNjU3NDkwMTEsIDEyOS41MTYyNzM0OTg1MzUxNiAyNC4wNjU0MjQ2MjAzMjI1MTcsIDEyOS41MTYyNzM0OTg1MzUxNiA3NC45OTYwODk5MzUzMDI3MyBNMTI5LjUxNjI3MzQ5ODUzNTE2IDc0Ljk5NjA4OTkzNTMwMjczIEM3Ni44OTg4NDAzMDg1NTE2OCA3NC45OTYwODk5MzUzMDI3MywgMjQuMjgxNDA3MTE4NTY4MjEgNzQuOTk2MDg5OTM1MzAyNzMsIC0xMjkuNTE2MjczNDk4NTM1MTYgNzQuOTk2MDg5OTM1MzAyNzMgTTEyOS41MTYyNzM0OTg1MzUxNiA3NC45OTYwODk5MzUzMDI3MyBDNzUuNjgwNzEwNTkwMjAyMyA3NC45OTYwODk5MzUzMDI3MywgMjEuODQ1MTQ3NjgxODY5NDM1IDc0Ljk5NjA4OTkzNTMwMjczLCAtMTI5LjUxNjI3MzQ5ODUzNTE2IDc0Ljk5NjA4OTkzNTMwMjczIE0tMTI5LjUxNjI3MzQ5ODUzNTE2IDc0Ljk5NjA4OTkzNTMwMjczIEMtMTI5LjUxNjI3MzQ5ODUzNTE2IDQyLjg4MDc1OTYwNTM4MDIzNCwgLTEyOS41MTYyNzM0OTg1MzUxNiAxMC43NjU0MjkyNzU0NTc3MzQsIC0xMjkuNTE2MjczNDk4NTM1MTYgLTc0Ljk5NjA4OTkzNTMwMjczIE0tMTI5LjUxNjI3MzQ5ODUzNTE2IDc0Ljk5NjA4OTkzNTMwMjczIEMtMTI5LjUxNjI3MzQ5ODUzNTE2IDQxLjMwNjEwMjQxNDI5Mzc1LCAtMTI5LjUxNjI3MzQ5ODUzNTE2IDcuNjE2MTE0ODkzMjg0NzU5NSwgLTEyOS41MTYyNzM0OTg1MzUxNiAtNzQuOTk2MDg5OTM1MzAyNzMiPjwvcGF0aD48L2c+PGcgdHJhbnNmb3JtPSJ0cmFuc2xhdGUoLTQxLjE3MTg3ODgxNDY5NzI2NiwgLTUwLjk5NjA4OTkzNTMwMjczNCkiIGNsYXNzPSJhbm5vdGF0aW9uLWdyb3VwIHRleHQiPjxnIHRyYW5zZm9ybT0idHJhbnNsYXRlKDAsLTExLjk5ODY5NzI4MDg4Mzc4OSkiIHN0eWxlPSIiIGNsYXNzPSJsYWJlbCI+PGZvcmVpZ25PYmplY3QgaGVpZ2h0PSIyMy45OTczOTQ1NjE3Njc1NzgiIHdpZHRoPSI4Mi4zNDM3NTc2MjkzOTQ1MyI+PGRpdiBzdHlsZT0iZGlzcGxheTogdGFibGUtY2VsbDsgd2hpdGUtc3BhY2U6IG5vd3JhcDsgbGluZS1oZWlnaHQ6IDEuNTsgbWF4LXdpZHRoOiAxMjhweDsgdGV4dC1hbGlnbjogY2VudGVyOyIgeG1sbnM9Imh0dHA6Ly93d3cudzMub3JnLzE5OTkveGh0bWwiPjxzcGFuIHN0eWxlPSIiIGNsYXNzPSJub2RlTGFiZWwgbWFya2Rvd24tbm9kZS1sYWJlbCI+PHA+wqtpbnRlcmZhY2XCuzwvcD48L3NwYW4+PC9kaXY+PC9mb3JlaWduT2JqZWN0PjwvZz48L2c+PGcgdHJhbnNmb3JtPSJ0cmFuc2xhdGUoLTExMS45NzI2NTYyNSwgLTI2Ljk5ODY5NTM3MzUzNTE1NikiIGNsYXNzPSJsYWJlbC1ncm91cCB0ZXh0Ij48ZyB0cmFuc2Zvcm09InRyYW5zbGF0ZSgwLC0xMS45OTg2OTcyODA4ODM3ODkpIiBzdHlsZT0iZm9udC13ZWlnaHQ6IGJvbGRlciIgY2xhc3M9ImxhYmVsIj48Zm9yZWlnbk9iamVjdCBoZWlnaHQ9IjIzLjk5NzM5NDU2MTc2NzU3OCIgd2lkdGg9IjIyMy45NDUzMTI1Ij48ZGl2IHN0eWxlPSJkaXNwbGF5OiB0YWJsZS1jZWxsOyB3aGl0ZS1zcGFjZTogbm93cmFwOyBsaW5lLWhlaWdodDogMS41OyBtYXgtd2lkdGg6IDI1NXB4OyB0ZXh0LWFsaWduOiBjZW50ZXI7IiB4bWxucz0iaHR0cDovL3d3dy53My5vcmcvMTk5OS94aHRtbCI+PHNwYW4gc3R5bGU9IiIgY2xhc3M9Im5vZGVMYWJlbCBtYXJrZG93bi1ub2RlLWxhYmVsIj48cD5DYWxjdWxvQWxxdWlsZXJQb3JjZW50YWplRmlqbzwvcD48L3NwYW4+PC9kaXY+PC9mb3JlaWduT2JqZWN0PjwvZz48L2c+PGcgdHJhbnNmb3JtPSJ0cmFuc2xhdGUoLTExNy41MTYyNzM0OTg1MzUxNiwgMjAuOTk4Njk5MTg4MjMyNDIyKSIgY2xhc3M9Im1lbWJlcnMtZ3JvdXAgdGV4dCI+PC9nPjxnIHRyYW5zZm9ybT0idHJhbnNsYXRlKC0xMTcuNTE2MjczNDk4NTM1MTYsIDUwLjk5ODY5OTE4ODIzMjQyKSIgY2xhc3M9Im1ldGhvZHMtZ3JvdXAgdGV4dCI+PGcgdHJhbnNmb3JtPSJ0cmFuc2xhdGUoMCwtMTEuOTk4Njk3MjgwODgzNzg5KSIgc3R5bGU9IiIgY2xhc3M9ImxhYmVsIj48Zm9yZWlnbk9iamVjdCBoZWlnaHQ9IjIzLjk5NzM5NDU2MTc2NzU3OCIgd2lkdGg9IjEyMy4wNTk4OTA3NDcwNzAzMSI+PGRpdiBzdHlsZT0iZGlzcGxheTogdGFibGUtY2VsbDsgd2hpdGUtc3BhY2U6IG5vd3JhcDsgbGluZS1oZWlnaHQ6IDEuNTsgbWF4LXdpZHRoOiAxNzBweDsgdGV4dC1hbGlnbjogY2VudGVyOyIgeG1sbnM9Imh0dHA6Ly93d3cudzMub3JnLzE5OTkveGh0bWwiPjxzcGFuIHN0eWxlPSIiIGNsYXNzPSJub2RlTGFiZWwgbWFya2Rvd24tbm9kZS1sYWJlbCI+PHA+K2NhbGN1bGFyKCkgOiA6IGludDwvcD48L3NwYW4+PC9kaXY+PC9mb3JlaWduT2JqZWN0PjwvZz48L2c+PGcgc3R5bGU9IiIgY2xhc3M9ImRpdmlkZXIiPjxwYXRoIHN0eWxlPSIiIGZpbGw9Im5vbmUiIHN0cm9rZS13aWR0aD0iMS4zIiBzdHJva2U9IiM5OTkiIGQ9Ik0tMTI5LjUxNjI2NTg2OTE0MDYyIC0zLjAwMTMwMDgxMTc2NzU3OCBDLTYwLjA0Njg3MDI4MzM0NDIzNCAtMy4wMDEzMDA4MTE3Njc1NzgsIDkuNDIyNTI1MzAyNDUyMTU4IC0zLjAwMTMwMDgxMTc2NzU3OCwgMTI5LjUxNjI2NTg2OTE0MDYyIC0zLjAwMTMwMDgxMTc2NzU3OCBNLTEyOS41MTYyNjU4NjkxNDA2MiAtMy4wMDEzMDA4MTE3Njc1NzggQy02My4xMjkyMjAxMDU2NjA0OCAtMy4wMDEzMDA4MTE3Njc1NzgsIDMuMjU3ODI1NjU3ODE5NjY2IC0zLjAwMTMwMDgxMTc2NzU3OCwgMTI5LjUxNjI2NTg2OTE0MDYyIC0zLjAwMTMwMDgxMTc2NzU3OCI+PC9wYXRoPjwvZz48ZyBzdHlsZT0iIiBjbGFzcz0iZGl2aWRlciI+PHBhdGggc3R5bGU9IiIgZmlsbD0ibm9uZSIgc3Ryb2tlLXdpZHRoPSIxLjMiIHN0cm9rZT0iIzk5OSIgZD0iTS0xMjkuNTE2MjY1ODY5MTQwNjIgMjAuOTk4Njk5MTg4MjMyNDIyIEMtNTYuODQ5NDEzMzQyODAwNDkgMjAuOTk4Njk5MTg4MjMyNDIyLCAxNS44MTc0MzkxODM1Mzk2NDggMjAuOTk4Njk5MTg4MjMyNDIyLCAxMjkuNTE2MjY1ODY5MTQwNjIgMjAuOTk4Njk5MTg4MjMyNDIyIE0tMTI5LjUxNjI2NTg2OTE0MDYyIDIwLjk5ODY5OTE4ODIzMjQyMiBDLTUxLjkzMTIwMTgyMDEwNjA0IDIwLjk5ODY5OTE4ODIzMjQyMiwgMjUuNjUzODYyMjI4OTI4NTQ2IDIwLjk5ODY5OTE4ODIzMjQyMiwgMTI5LjUxNjI2NTg2OTE0MDYyIDIwLjk5ODY5OTE4ODIzMjQyMiI+PC9wYXRoPjwvZz48L2c+PGcgdHJhbnNmb3JtPSJ0cmFuc2xhdGUoMTI5OS4yMTgwNjMzNTQ0OTIyLCAxMTUuOTkyMTg3NSkiIGlkPSJjbGFzc0lkLUVsZW1lbnRvQWxxdWlsZXItNCIgY2xhc3M9Im5vZGUgZGVmYXVsdCI+PGcgY2xhc3M9ImJhc2ljIGxhYmVsLWNvbnRhaW5lciI+PHBhdGggc3R5bGU9IiIgZmlsbD0iI2VlZSIgc3Ryb2tlLXdpZHRoPSIwIiBzdHJva2U9Im5vbmUiIGQ9Ik0tMjA2Ljg1MzUxNTYyNSAtMTA3Ljk5MjE4NzUgTDIwNi44NTM1MTU2MjUgLTEwNy45OTIxODc1IEwyMDYuODUzNTE1NjI1IDEwNy45OTIxODc1IEwtMjA2Ljg1MzUxNTYyNSAxMDcuOTkyMTg3NSI+PC9wYXRoPjxwYXRoIHN0eWxlPSIiIGZpbGw9Im5vbmUiIHN0cm9rZS13aWR0aD0iMS4zIiBzdHJva2U9IiM5OTkiIGQ9Ik0tMjA2Ljg1MzUxNTYyNSAtMTA3Ljk5MjE4NzUgQy0xMjIuOTc5MTc1MzQzNzg4NCAtMTA3Ljk5MjE4NzUsIC0zOS4xMDQ4MzUwNjI1NzY4IC0xMDcuOTkyMTg3NSwgMjA2Ljg1MzUxNTYyNSAtMTA3Ljk5MjE4NzUgTS0yMDYuODUzNTE1NjI1IC0xMDcuOTkyMTg3NSBDLTQ1LjI5MzUxNzkzMzIwODYyIC0xMDcuOTkyMTg3NSwgMTE2LjI2NjQ3OTc1ODU4Mjc2IC0xMDcuOTkyMTg3NSwgMjA2Ljg1MzUxNTYyNSAtMTA3Ljk5MjE4NzUgTTIwNi44NTM1MTU2MjUgLTEwNy45OTIxODc1IEMyMDYuODUzNTE1NjI1IC01MS41NDA3OTUwMTE4NzYyMDYsIDIwNi44NTM1MTU2MjUgNC45MTA1OTc0NzYyNDc1ODgsIDIwNi44NTM1MTU2MjUgMTA3Ljk5MjE4NzUgTTIwNi44NTM1MTU2MjUgLTEwNy45OTIxODc1IEMyMDYuODUzNTE1NjI1IC02MC42ODkyMTcwODExMjMyNDYsIDIwNi44NTM1MTU2MjUgLTEzLjM4NjI0NjY2MjI0NjQ5MiwgMjA2Ljg1MzUxNTYyNSAxMDcuOTkyMTg3NSBNMjA2Ljg1MzUxNTYyNSAxMDcuOTkyMTg3NSBDOTEuNjYwMzY4NTc2NDgwOSAxMDcuOTkyMTg3NSwgLTIzLjUzMjc3ODQ3MjAzODE5IDEwNy45OTIxODc1LCAtMjA2Ljg1MzUxNTYyNSAxMDcuOTkyMTg3NSBNMjA2Ljg1MzUxNTYyNSAxMDcuOTkyMTg3NSBDMTA2LjgzNzM4NzU4MjEyNTkgMTA3Ljk5MjE4NzUsIDYuODIxMjU5NTM5MjUxNzk4IDEwNy45OTIxODc1LCAtMjA2Ljg1MzUxNTYyNSAxMDcuOTkyMTg3NSBNLTIwNi44NTM1MTU2MjUgMTA3Ljk5MjE4NzUgQy0yMDYuODUzNTE1NjI1IDIxLjY2MDUwNTcxOTEwODc4NCwgLTIwNi44NTM1MTU2MjUgLTY0LjY3MTE3NjA2MTc4MjQzLCAtMjA2Ljg1MzUxNTYyNSAtMTA3Ljk5MjE4NzUgTS0yMDYuODUzNTE1NjI1IDEwNy45OTIxODc1IEMtMjA2Ljg1MzUxNTYyNSA1My4wNzQwODU1NjcwMTE2NywgLTIwNi44NTM1MTU2MjUgLTEuODQ0MDE2MzY1OTc2NjU2OSwgLTIwNi44NTM1MTU2MjUgLTEwNy45OTIxODc1Ij48L3BhdGg+PC9nPjxnIHRyYW5zZm9ybT0idHJhbnNsYXRlKC0zNy45MTAxNTYyNSwgLTgzLjk5MjE4NzUpIiBjbGFzcz0iYW5ub3RhdGlvbi1ncm91cCB0ZXh0Ij48ZyB0cmFuc2Zvcm09InRyYW5zbGF0ZSgwLC0xMS45OTg2OTcyODA4ODM3ODkpIiBzdHlsZT0iIiBjbGFzcz0ibGFiZWwiPjxmb3JlaWduT2JqZWN0IGhlaWdodD0iMjMuOTk3Mzk0NTYxNzY3NTc4IiB3aWR0aD0iNzUuODIwMzEyNSI+PGRpdiBzdHlsZT0iZGlzcGxheTogdGFibGUtY2VsbDsgd2hpdGUtc3BhY2U6IG5vd3JhcDsgbGluZS1oZWlnaHQ6IDEuNTsgbWF4LXdpZHRoOiAxMjNweDsgdGV4dC1hbGlnbjogY2VudGVyOyIgeG1sbnM9Imh0dHA6Ly93d3cudzMub3JnLzE5OTkveGh0bWwiPjxzcGFuIHN0eWxlPSIiIGNsYXNzPSJub2RlTGFiZWwgbWFya2Rvd24tbm9kZS1sYWJlbCI+PHA+wqthYnN0cmFjdMK7PC9wPjwvc3Bhbj48L2Rpdj48L2ZvcmVpZ25PYmplY3Q+PC9nPjwvZz48ZyB0cmFuc2Zvcm09InRyYW5zbGF0ZSgtNjQuOTkzNDg0NDk3MDcwMzEsIC01OS45OTQ3OTI5MzgyMzI0MikiIGNsYXNzPSJsYWJlbC1ncm91cCB0ZXh0Ij48ZyB0cmFuc2Zvcm09InRyYW5zbGF0ZSgwLC0xMS45OTg2OTcyODA4ODM3ODkpIiBzdHlsZT0iZm9udC13ZWlnaHQ6IGJvbGRlciIgY2xhc3M9ImxhYmVsIj48Zm9yZWlnbk9iamVjdCBoZWlnaHQ9IjIzLjk5NzM5NDU2MTc2NzU3OCIgd2lkdGg9IjEyOS45ODY5Njg5OTQxNDA2MiI+PGRpdiBzdHlsZT0iZGlzcGxheTogdGFibGUtY2VsbDsgd2hpdGUtc3BhY2U6IG5vd3JhcDsgbGluZS1oZWlnaHQ6IDEuNTsgbWF4LXdpZHRoOiAxNzFweDsgdGV4dC1hbGlnbjogY2VudGVyOyIgeG1sbnM9Imh0dHA6Ly93d3cudzMub3JnLzE5OTkveGh0bWwiPjxzcGFuIHN0eWxlPSIiIGNsYXNzPSJub2RlTGFiZWwgbWFya2Rvd24tbm9kZS1sYWJlbCI+PHA+RWxlbWVudG9BbHF1aWxlcjwvcD48L3NwYW4+PC9kaXY+PC9mb3JlaWduT2JqZWN0PjwvZz48L2c+PGcgdHJhbnNmb3JtPSJ0cmFuc2xhdGUoLTE5NC44NTM1MTU2MjUsIC0xMS45OTczOTgzNzY0NjQ4NDQpIiBjbGFzcz0ibWVtYmVycy1ncm91cCB0ZXh0Ij48ZyB0cmFuc2Zvcm09InRyYW5zbGF0ZSgwLC0xMS45OTg2OTcyODA4ODM3ODkpIiBzdHlsZT0iIiBjbGFzcz0ibGFiZWwiPjxmb3JlaWduT2JqZWN0IGhlaWdodD0iMjMuOTk3Mzk0NTYxNzY3NTc4IiB3aWR0aD0iMTgxLjE4NDg5MDc0NzA3MDMiPjxkaXYgc3R5bGU9ImRpc3BsYXk6IHRhYmxlLWNlbGw7IHdoaXRlLXNwYWNlOiBub3dyYXA7IGxpbmUtaGVpZ2h0OiAxLjU7IG1heC13aWR0aDogMjMzcHg7IHRleHQtYWxpZ246IGNlbnRlcjsiIHhtbG5zPSJodHRwOi8vd3d3LnczLm9yZy8xOTk5L3hodG1sIj48c3BhbiBzdHlsZT0iIiBjbGFzcz0ibm9kZUxhYmVsIG1hcmtkb3duLW5vZGUtbGFiZWwiPjxwPi1jb2RpZ29JZGVudGlmaWNhY2lvbjogaW50PC9wPjwvc3Bhbj48L2Rpdj48L2ZvcmVpZ25PYmplY3Q+PC9nPjwvZz48ZyB0cmFuc2Zvcm09InRyYW5zbGF0ZSgtMTk0Ljg1MzUxNTYyNSwgMzUuOTk5OTk2MTg1MzAyNzM0KSIgY2xhc3M9Im1ldGhvZHMtZ3JvdXAgdGV4dCI+PGcgdHJhbnNmb3JtPSJ0cmFuc2xhdGUoMCwtMTEuOTk4Njk3MjgwODgzNzg5KSIgc3R5bGU9IiIgY2xhc3M9ImxhYmVsIj48Zm9yZWlnbk9iamVjdCBoZWlnaHQ9IjIzLjk5NzM5NDU2MTc2NzU3OCIgd2lkdGg9IjMyNC43MTM1MzE0OTQxNDA2Ij48ZGl2IHN0eWxlPSJkaXNwbGF5OiB0YWJsZS1jZWxsOyB3aGl0ZS1zcGFjZTogbm93cmFwOyBsaW5lLWhlaWdodDogMS41OyBtYXgtd2lkdGg6IDM3NHB4OyB0ZXh0LWFsaWduOiBjZW50ZXI7IiB4bWxucz0iaHR0cDovL3d3dy53My5vcmcvMTk5OS94aHRtbCI+PHNwYW4gc3R5bGU9IiIgY2xhc3M9Im5vZGVMYWJlbCBtYXJrZG93bi1ub2RlLWxhYmVsIj48cD4rZ2V0Q29waWEoQ29uZGljaW9uIGMxKSA6IDogZWxlbWVudG9BbHF1aWxlcjwvcD48L3NwYW4+PC9kaXY+PC9mb3JlaWduT2JqZWN0PjwvZz48ZyB0cmFuc2Zvcm09InRyYW5zbGF0ZSgwLDExLjk5ODY5NzI4MDg4Mzc4OSkiIHN0eWxlPSIiIGNsYXNzPSJsYWJlbCI+PGZvcmVpZ25PYmplY3QgaGVpZ2h0PSIyMy45OTczOTQ1NjE3Njc1NzgiIHdpZHRoPSIxMzMuMjk0MjY1NzQ3MDcwMyI+PGRpdiBzdHlsZT0iZGlzcGxheTogdGFibGUtY2VsbDsgd2hpdGUtc3BhY2U6IG5vd3JhcDsgbGluZS1oZWlnaHQ6IDEuNTsgbWF4LXdpZHRoOiAxODNweDsgdGV4dC1hbGlnbjogY2VudGVyOyIgeG1sbnM9Imh0dHA6Ly93d3cudzMub3JnLzE5OTkveGh0bWwiPjxzcGFuIHN0eWxlPSIiIGNsYXNzPSJub2RlTGFiZWwgbWFya2Rvd24tbm9kZS1sYWJlbCI+PHA+K2dldFByZWNpbygpIDogOiBpbnQ8L3A+PC9zcGFuPjwvZGl2PjwvZm9yZWlnbk9iamVjdD48L2c+PGcgdHJhbnNmb3JtPSJ0cmFuc2xhdGUoMCwzNS45OTYwOTE4NDI2NTEzNykiIHN0eWxlPSIiIGNsYXNzPSJsYWJlbCI+PGZvcmVpZ25PYmplY3QgaGVpZ2h0PSIyMy45OTczOTQ1NjE3Njc1NzgiIHdpZHRoPSIxODEuMjEwOTUyNzU4Nzg5MDYiPjxkaXYgc3R5bGU9ImRpc3BsYXk6IHRhYmxlLWNlbGw7IHdoaXRlLXNwYWNlOiBub3dyYXA7IGxpbmUtaGVpZ2h0OiAxLjU7IG1heC13aWR0aDogMjMwcHg7IHRleHQtYWxpZ246IGNlbnRlcjsiIHhtbG5zPSJodHRwOi8vd3d3LnczLm9yZy8xOTk5L3hodG1sIj48c3BhbiBzdHlsZT0iIiBjbGFzcz0ibm9kZUxhYmVsIG1hcmtkb3duLW5vZGUtbGFiZWwiPjxwPitnZXRWYWxvckFscXVpbGVyKCkgOiA6IGludDwvcD48L3NwYW4+PC9kaXY+PC9mb3JlaWduT2JqZWN0PjwvZz48L2c+PGcgc3R5bGU9IiIgY2xhc3M9ImRpdmlkZXIiPjxwYXRoIHN0eWxlPSIiIGZpbGw9Im5vbmUiIHN0cm9rZS13aWR0aD0iMS4zIiBzdHJva2U9IiM5OTkiIGQ9Ik0tMjA2Ljg1MzUxNTYyNSAtMzUuOTk3Mzk4Mzc2NDY0ODQ0IEMtMTA3Ljg3NzkzMTI0MjMwMDczIC0zNS45OTczOTgzNzY0NjQ4NDQsIC04LjkwMjM0Njg1OTYwMTQ2NSAtMzUuOTk3Mzk4Mzc2NDY0ODQ0LCAyMDYuODUzNTE1NjI1IC0zNS45OTczOTgzNzY0NjQ4NDQgTS0yMDYuODUzNTE1NjI1IC0zNS45OTczOTgzNzY0NjQ4NDQgQy0xMDEuNjczMTMzOTkyNTA4NTEgLTM1Ljk5NzM5ODM3NjQ2NDg0NCwgMy41MDcyNDc2Mzk5ODI5NzggLTM1Ljk5NzM5ODM3NjQ2NDg0NCwgMjA2Ljg1MzUxNTYyNSAtMzUuOTk3Mzk4Mzc2NDY0ODQ0Ij48L3BhdGg+PC9nPjxnIHN0eWxlPSIiIGNsYXNzPSJkaXZpZGVyIj48cGF0aCBzdHlsZT0iIiBmaWxsPSJub25lIiBzdHJva2Utd2lkdGg9IjEuMyIgc3Ryb2tlPSIjOTk5IiBkPSJNLTIwNi44NTM1MTU2MjUgMTEuOTk5OTk2MTg1MzAyNzM0IEMtODYuNDcyMjkxNDkyOTU3MjggMTEuOTk5OTk2MTg1MzAyNzM0LCAzMy45MDg5MzI2MzkwODU0MzUgMTEuOTk5OTk2MTg1MzAyNzM0LCAyMDYuODUzNTE1NjI1IDExLjk5OTk5NjE4NTMwMjczNCBNLTIwNi44NTM1MTU2MjUgMTEuOTk5OTk2MTg1MzAyNzM0IEMtNzguODA4Nzg3Mzk5MDAyMDYgMTEuOTk5OTk2MTg1MzAyNzM0LCA0OS4yMzU5NDA4MjY5OTU4ODYgMTEuOTk5OTk2MTg1MzAyNzM0LCAyMDYuODUzNTE1NjI1IDExLjk5OTk5NjE4NTMwMjczNCI+PC9wYXRoPjwvZz48L2c+PGcgdHJhbnNmb3JtPSJ0cmFuc2xhdGUoMTA4MC40NTA0ODUyMjk0OTIyLCAzOTMuOTc1MjU3ODczNTM1MTYpIiBpZD0iY2xhc3NJZC1FbGVtZW50b0Jhc2UtNSIgY2xhc3M9Im5vZGUgZGVmYXVsdCI+PGcgY2xhc3M9ImJhc2ljIGxhYmVsLWNvbnRhaW5lciI+PHBhdGggc3R5bGU9IiIgZmlsbD0iI2VlZSIgc3Ryb2tlLXdpZHRoPSIwIiBzdHJva2U9Im5vbmUiIGQ9Ik0tMjAwLjUxNTYyNSAtMTE5Ljk5MDg4Mjg3MzUzNTE2IEwyMDAuNTE1NjI1IC0xMTkuOTkwODgyODczNTM1MTYgTDIwMC41MTU2MjUgMTE5Ljk5MDg4Mjg3MzUzNTE2IEwtMjAwLjUxNTYyNSAxMTkuOTkwODgyODczNTM1MTYiPjwvcGF0aD48cGF0aCBzdHlsZT0iIiBmaWxsPSJub25lIiBzdHJva2Utd2lkdGg9IjEuMyIgc3Ryb2tlPSIjOTk5IiBkPSJNLTIwMC41MTU2MjUgLTExOS45OTA4ODI4NzM1MzUxNiBDLTEwOC42Njc0OTgwNjUyMzk1NCAtMTE5Ljk5MDg4Mjg3MzUzNTE2LCAtMTYuODE5MzcxMTMwNDc5MDg0IC0xMTkuOTkwODgyODczNTM1MTYsIDIwMC41MTU2MjUgLTExOS45OTA4ODI4NzM1MzUxNiBNLTIwMC41MTU2MjUgLTExOS45OTA4ODI4NzM1MzUxNiBDLTEwMC4yNTgxNDY1NDc3NDEzMiAtMTE5Ljk5MDg4Mjg3MzUzNTE2LCAtMC4wMDA2NjgwOTU0ODI2Mzc5MDkzIC0xMTkuOTkwODgyODczNTM1MTYsIDIwMC41MTU2MjUgLTExOS45OTA4ODI4NzM1MzUxNiBNMjAwLjUxNTYyNSAtMTE5Ljk5MDg4Mjg3MzUzNTE2IEMyMDAuNTE1NjI1IC0yNS44NDY4MDgyMzM0MDk1NDcsIDIwMC41MTU2MjUgNjguMjk3MjY2NDA2NzE2MDYsIDIwMC41MTU2MjUgMTE5Ljk5MDg4Mjg3MzUzNTE2IE0yMDAuNTE1NjI1IC0xMTkuOTkwODgyODczNTM1MTYgQzIwMC41MTU2MjUgLTYzLjc2MTgzMDc1MTQ0NzY3NSwgMjAwLjUxNTYyNSAtNy41MzI3Nzg2MjkzNjAxOTUsIDIwMC41MTU2MjUgMTE5Ljk5MDg4Mjg3MzUzNTE2IE0yMDAuNTE1NjI1IDExOS45OTA4ODI4NzM1MzUxNiBDMTA1LjcyMDU1NTE1MzE4NzYyIDExOS45OTA4ODI4NzM1MzUxNiwgMTAuOTI1NDg1MzA2Mzc1MjM2IDExOS45OTA4ODI4NzM1MzUxNiwgLTIwMC41MTU2MjUgMTE5Ljk5MDg4Mjg3MzUzNTE2IE0yMDAuNTE1NjI1IDExOS45OTA4ODI4NzM1MzUxNiBDMTEzLjI2ODE5MzAwNjc1NTk2IDExOS45OTA4ODI4NzM1MzUxNiwgMjYuMDIwNzYxMDEzNTExOTMgMTE5Ljk5MDg4Mjg3MzUzNTE2LCAtMjAwLjUxNTYyNSAxMTkuOTkwODgyODczNTM1MTYgTS0yMDAuNTE1NjI1IDExOS45OTA4ODI4NzM1MzUxNiBDLTIwMC41MTU2MjUgNDkuMTkwMjg4MzYxNjc0ODYsIC0yMDAuNTE1NjI1IC0yMS42MTAzMDYxNTAxODU0MzcsIC0yMDAuNTE1NjI1IC0xMTkuOTkwODgyODczNTM1MTYgTS0yMDAuNTE1NjI1IDExOS45OTA4ODI4NzM1MzUxNiBDLTIwMC41MTU2MjUgNzAuNjYyMjI4NzY1MDQ5MywgLTIwMC41MTU2MjUgMjEuMzMzNTc0NjU2NTYzNDU3LCAtMjAwLjUxNTYyNSAtMTE5Ljk5MDg4Mjg3MzUzNTE2Ij48L3BhdGg+PC9nPjxnIHRyYW5zZm9ybT0idHJhbnNsYXRlKDAsIC05NS45OTA4ODI4NzM1MzUxNikiIGNsYXNzPSJhbm5vdGF0aW9uLWdyb3VwIHRleHQiPjwvZz48ZyB0cmFuc2Zvcm09InRyYW5zbGF0ZSgtNTIuNDczOTU3MDYxNzY3NTgsIC05NS45OTA4ODI4NzM1MzUxNikiIGNsYXNzPSJsYWJlbC1ncm91cCB0ZXh0Ij48ZyB0cmFuc2Zvcm09InRyYW5zbGF0ZSgwLC0xMS45OTg2OTcyODA4ODM3ODkpIiBzdHlsZT0iZm9udC13ZWlnaHQ6IGJvbGRlciIgY2xhc3M9ImxhYmVsIj48Zm9yZWlnbk9iamVjdCBoZWlnaHQ9IjIzLjk5NzM5NDU2MTc2NzU3OCIgd2lkdGg9IjEwNC45NDc5MTQxMjM1MzUxNiI+PGRpdiBzdHlsZT0iZGlzcGxheTogdGFibGUtY2VsbDsgd2hpdGUtc3BhY2U6IG5vd3JhcDsgbGluZS1oZWlnaHQ6IDEuNTsgbWF4LXdpZHRoOiAxNDlweDsgdGV4dC1hbGlnbjogY2VudGVyOyIgeG1sbnM9Imh0dHA6Ly93d3cudzMub3JnLzE5OTkveGh0bWwiPjxzcGFuIHN0eWxlPSIiIGNsYXNzPSJub2RlTGFiZWwgbWFya2Rvd24tbm9kZS1sYWJlbCI+PHA+RWxlbWVudG9CYXNlPC9wPjwvc3Bhbj48L2Rpdj48L2ZvcmVpZ25PYmplY3Q+PC9nPjwvZz48ZyB0cmFuc2Zvcm09InRyYW5zbGF0ZSgtMTg4LjUxNTYyNSwgLTQ3Ljk5MzQ4ODMxMTc2NzU4KSIgY2xhc3M9Im1lbWJlcnMtZ3JvdXAgdGV4dCI+PGcgdHJhbnNmb3JtPSJ0cmFuc2xhdGUoMCwtMTEuOTk4Njk3MjgwODgzNzg5KSIgc3R5bGU9IiIgY2xhc3M9ImxhYmVsIj48Zm9yZWlnbk9iamVjdCBoZWlnaHQ9IjIzLjk5NzM5NDU2MTc2NzU3OCIgd2lkdGg9IjE1Ny43NzM0Mzc1Ij48ZGl2IHN0eWxlPSJkaXNwbGF5OiB0YWJsZS1jZWxsOyB3aGl0ZS1zcGFjZTogbm93cmFwOyBsaW5lLWhlaWdodDogMS41OyBtYXgtd2lkdGg6IDIxNXB4OyB0ZXh0LWFsaWduOiBjZW50ZXI7IiB4bWxucz0iaHR0cDovL3d3dy53My5vcmcvMTk5OS94aHRtbCI+PHNwYW4gc3R5bGU9IiIgY2xhc3M9Im5vZGVMYWJlbCBtYXJrZG93bi1ub2RlLWxhYmVsIj48cD4tYW50aWd1ZWRhZE1lc2VzOiBpbnQ8L3A+PC9zcGFuPjwvZGl2PjwvZm9yZWlnbk9iamVjdD48L2c+PGcgdHJhbnNmb3JtPSJ0cmFuc2xhdGUoMCwxMS45OTg2OTcyODA4ODM3ODkpIiBzdHlsZT0iIiBjbGFzcz0ibGFiZWwiPjxmb3JlaWduT2JqZWN0IGhlaWdodD0iMjMuOTk3Mzk0NTYxNzY3NTc4IiB3aWR0aD0iMTM5LjcxMzUzMTQ5NDE0MDYyIj48ZGl2IHN0eWxlPSJkaXNwbGF5OiB0YWJsZS1jZWxsOyB3aGl0ZS1zcGFjZTogbm93cmFwOyBsaW5lLWhlaWdodDogMS41OyBtYXgtd2lkdGg6IDE5M3B4OyB0ZXh0LWFsaWduOiBjZW50ZXI7IiB4bWxucz0iaHR0cDovL3d3dy53My5vcmcvMTk5OS94aHRtbCI+PHNwYW4gc3R5bGU9IiIgY2xhc3M9Im5vZGVMYWJlbCBtYXJrZG93bi1ub2RlLWxhYmVsIj48cD4tZGVzY3JpcGNpb246IFN0cmluZzwvcD48L3NwYW4+PC9kaXY+PC9mb3JlaWduT2JqZWN0PjwvZz48ZyB0cmFuc2Zvcm09InRyYW5zbGF0ZSgwLDM1Ljk5NjA5MTg0MjY1MTM3KSIgc3R5bGU9IiIgY2xhc3M9ImxhYmVsIj48Zm9yZWlnbk9iamVjdCBoZWlnaHQ9IjIzLjk5NzM5NDU2MTc2NzU3OCIgd2lkdGg9IjI0OS44MTc3MDMyNDcwNzAzIj48ZGl2IHN0eWxlPSJkaXNwbGF5OiB0YWJsZS1jZWxsOyB3aGl0ZS1zcGFjZTogbm93cmFwOyBsaW5lLWhlaWdodDogMS41OyBtYXgtd2lkdGg6IDI5OHB4OyB0ZXh0LWFsaWduOiBjZW50ZXI7IiB4bWxucz0iaHR0cDovL3d3dy53My5vcmcvMTk5OS94aHRtbCI+PHNwYW4gc3R5bGU9IiIgY2xhc3M9Im5vZGVMYWJlbCBtYXJrZG93bi1ub2RlLWxhYmVsIj48cD4tZXN0cmFnaWFBbHF1aWVyOiBFc3RyYXRlZ2lhQ2FsY3VsbzwvcD48L3NwYW4+PC9kaXY+PC9mb3JlaWduT2JqZWN0PjwvZz48L2c+PGcgdHJhbnNmb3JtPSJ0cmFuc2xhdGUoLTE4OC41MTU2MjUsIDQ3Ljk5ODY5OTE4ODIzMjQyKSIgY2xhc3M9Im1ldGhvZHMtZ3JvdXAgdGV4dCI+PGcgdHJhbnNmb3JtPSJ0cmFuc2xhdGUoMCwtMTEuOTk4Njk3MjgwODgzNzg5KSIgc3R5bGU9IiIgY2xhc3M9ImxhYmVsIj48Zm9yZWlnbk9iamVjdCBoZWlnaHQ9IjIzLjk5NzM5NDU2MTc2NzU3OCIgd2lkdGg9IjMyNC41NTcyODE0OTQxNDA2Ij48ZGl2IHN0eWxlPSJkaXNwbGF5OiB0YWJsZS1jZWxsOyB3aGl0ZS1zcGFjZTogbm93cmFwOyBsaW5lLWhlaWdodDogMS41OyBtYXgtd2lkdGg6IDM3NHB4OyB0ZXh0LWFsaWduOiBjZW50ZXI7IiB4bWxucz0iaHR0cDovL3d3dy53My5vcmcvMTk5OS94aHRtbCI+PHNwYW4gc3R5bGU9IiIgY2xhc3M9Im5vZGVMYWJlbCBtYXJrZG93bi1ub2RlLWxhYmVsIj48cD4rZ2V0Q29waWEoQ29uZGljaW9uIGMxKSA6IDogRWxlbWV0bm9BbHF1aWxlcjwvcD48L3NwYW4+PC9kaXY+PC9mb3JlaWduT2JqZWN0PjwvZz48ZyB0cmFuc2Zvcm09InRyYW5zbGF0ZSgwLDExLjk5ODY5NzI4MDg4Mzc4OSkiIHN0eWxlPSIiIGNsYXNzPSJsYWJlbCI+PGZvcmVpZ25PYmplY3QgaGVpZ2h0PSIyMy45OTczOTQ1NjE3Njc1NzgiIHdpZHRoPSIxMzMuMjk0MjY1NzQ3MDcwMyI+PGRpdiBzdHlsZT0iZGlzcGxheTogdGFibGUtY2VsbDsgd2hpdGUtc3BhY2U6IG5vd3JhcDsgbGluZS1oZWlnaHQ6IDEuNTsgbWF4LXdpZHRoOiAxODNweDsgdGV4dC1hbGlnbjogY2VudGVyOyIgeG1sbnM9Imh0dHA6Ly93d3cudzMub3JnLzE5OTkveGh0bWwiPjxzcGFuIHN0eWxlPSIiIGNsYXNzPSJub2RlTGFiZWwgbWFya2Rvd24tbm9kZS1sYWJlbCI+PHA+K2dldFByZWNpbygpIDogOiBpbnQ8L3A+PC9zcGFuPjwvZGl2PjwvZm9yZWlnbk9iamVjdD48L2c+PGcgdHJhbnNmb3JtPSJ0cmFuc2xhdGUoMCwzNS45OTYwOTE4NDI2NTEzNykiIHN0eWxlPSIiIGNsYXNzPSJsYWJlbCI+PGZvcmVpZ25PYmplY3QgaGVpZ2h0PSIyMy45OTczOTQ1NjE3Njc1NzgiIHdpZHRoPSIxODEuMjEwOTUyNzU4Nzg5MDYiPjxkaXYgc3R5bGU9ImRpc3BsYXk6IHRhYmxlLWNlbGw7IHdoaXRlLXNwYWNlOiBub3dyYXA7IGxpbmUtaGVpZ2h0OiAxLjU7IG1heC13aWR0aDogMjMwcHg7IHRleHQtYWxpZ246IGNlbnRlcjsiIHhtbG5zPSJodHRwOi8vd3d3LnczLm9yZy8xOTk5L3hodG1sIj48c3BhbiBzdHlsZT0iIiBjbGFzcz0ibm9kZUxhYmVsIG1hcmtkb3duLW5vZGUtbGFiZWwiPjxwPitnZXRWYWxvckFscXVpbGVyKCkgOiA6IGludDwvcD48L3NwYW4+PC9kaXY+PC9mb3JlaWduT2JqZWN0PjwvZz48L2c+PGcgc3R5bGU9IiIgY2xhc3M9ImRpdmlkZXIiPjxwYXRoIHN0eWxlPSIiIGZpbGw9Im5vbmUiIHN0cm9rZS13aWR0aD0iMS4zIiBzdHJva2U9IiM5OTkiIGQ9Ik0tMjAwLjUxNTYyNSAtNzEuOTkzNDg4MzExNzY3NTggQy02Mi45NjU4NzExNDA4NjU1MiAtNzEuOTkzNDg4MzExNzY3NTgsIDc0LjU4Mzg4MjcxODI2ODk3IC03MS45OTM0ODgzMTE3Njc1OCwgMjAwLjUxNTYyNSAtNzEuOTkzNDg4MzExNzY3NTggTS0yMDAuNTE1NjI1IC03MS45OTM0ODgzMTE3Njc1OCBDLTk0LjM1OTY5MjgyNTQ5MDc3IC03MS45OTM0ODgzMTE3Njc1OCwgMTEuNzk2MjM5MzQ5MDE4NDY0IC03MS45OTM0ODgzMTE3Njc1OCwgMjAwLjUxNTYyNSAtNzEuOTkzNDg4MzExNzY3NTgiPjwvcGF0aD48L2c+PGcgc3R5bGU9IiIgY2xhc3M9ImRpdmlkZXIiPjxwYXRoIHN0eWxlPSIiIGZpbGw9Im5vbmUiIHN0cm9rZS13aWR0aD0iMS4zIiBzdHJva2U9IiM5OTkiIGQ9Ik0tMjAwLjUxNTYyNSAyMy45OTg2OTkxODgyMzI0MjIgQy04MC43MTE2NDI5ODU0NDEzIDIzLjk5ODY5OTE4ODIzMjQyMiwgMzkuMDkyMzM5MDI5MTE3NCAyMy45OTg2OTkxODgyMzI0MjIsIDIwMC41MTU2MjUgMjMuOTk4Njk5MTg4MjMyNDIyIE0tMjAwLjUxNTYyNSAyMy45OTg2OTkxODgyMzI0MjIgQy04OC4yNjYyNDcxNjgzNzc4MyAyMy45OTg2OTkxODgyMzI0MjIsIDIzLjk4MzEzMDY2MzI0NDM0IDIzLjk5ODY5OTE4ODIzMjQyMiwgMjAwLjUxNTYyNSAyMy45OTg2OTkxODgyMzI0MjIiPjwvcGF0aD48L2c+PC9nPjxnIHRyYW5zZm9ybT0idHJhbnNsYXRlKDE1MTcuOTg1NjQxNDc5NDkyMiwgMzkzLjk3NTI1Nzg3MzUzNTE2KSIgaWQ9ImNsYXNzSWQtQ29tYm8tNiIgY2xhc3M9Im5vZGUgZGVmYXVsdCI+PGcgY2xhc3M9ImJhc2ljIGxhYmVsLWNvbnRhaW5lciI+PHBhdGggc3R5bGU9IiIgZmlsbD0iI2VlZSIgc3Ryb2tlLXdpZHRoPSIwIiBzdHJva2U9Im5vbmUiIGQ9Ik0tMTg3LjAxOTUzMTI1IC0xMDcuOTkyMTg3NSBMMTg3LjAxOTUzMTI1IC0xMDcuOTkyMTg3NSBMMTg3LjAxOTUzMTI1IDEwNy45OTIxODc1IEwtMTg3LjAxOTUzMTI1IDEwNy45OTIxODc1Ij48L3BhdGg+PHBhdGggc3R5bGU9IiIgZmlsbD0ibm9uZSIgc3Ryb2tlLXdpZHRoPSIxLjMiIHN0cm9rZT0iIzk5OSIgZD0iTS0xODcuMDE5NTMxMjUgLTEwNy45OTIxODc1IEMtMTA3LjA2NjI1MDA5ODc2MTk4IC0xMDcuOTkyMTg3NSwgLTI3LjExMjk2ODk0NzUyMzk2NyAtMTA3Ljk5MjE4NzUsIDE4Ny4wMTk1MzEyNSAtMTA3Ljk5MjE4NzUgTS0xODcuMDE5NTMxMjUgLTEwNy45OTIxODc1IEMtODAuMTI5MzgxNzc2Mzk5MjQgLTEwNy45OTIxODc1LCAyNi43NjA3Njc2OTcyMDE1MTYgLTEwNy45OTIxODc1LCAxODcuMDE5NTMxMjUgLTEwNy45OTIxODc1IE0xODcuMDE5NTMxMjUgLTEwNy45OTIxODc1IEMxODcuMDE5NTMxMjUgLTY0LjI3MTI4OTAxNDY3NDg0LCAxODcuMDE5NTMxMjUgLTIwLjU1MDM5MDUyOTM0OTY1NiwgMTg3LjAxOTUzMTI1IDEwNy45OTIxODc1IE0xODcuMDE5NTMxMjUgLTEwNy45OTIxODc1IEMxODcuMDE5NTMxMjUgLTU3LjIzNzU5MDE2MDc0MDA4LCAxODcuMDE5NTMxMjUgLTYuNDgyOTkyODIxNDgwMTY3LCAxODcuMDE5NTMxMjUgMTA3Ljk5MjE4NzUgTTE4Ny4wMTk1MzEyNSAxMDcuOTkyMTg3NSBDOTcuMjU2MDg4MDU2NTAxOCAxMDcuOTkyMTg3NSwgNy40OTI2NDQ4NjMwMDM1OTEgMTA3Ljk5MjE4NzUsIC0xODcuMDE5NTMxMjUgMTA3Ljk5MjE4NzUgTTE4Ny4wMTk1MzEyNSAxMDcuOTkyMTg3NSBDODcuMDkwNDYzNzE2MDcwOSAxMDcuOTkyMTg3NSwgLTEyLjgzODYwMzgxNzg1ODIgMTA3Ljk5MjE4NzUsIC0xODcuMDE5NTMxMjUgMTA3Ljk5MjE4NzUgTS0xODcuMDE5NTMxMjUgMTA3Ljk5MjE4NzUgQy0xODcuMDE5NTMxMjUgMzguNTAxMzE4MzUxNDY4NDEsIC0xODcuMDE5NTMxMjUgLTMwLjk4OTU1MDc5NzA2MzE3NCwgLTE4Ny4wMTk1MzEyNSAtMTA3Ljk5MjE4NzUgTS0xODcuMDE5NTMxMjUgMTA3Ljk5MjE4NzUgQy0xODcuMDE5NTMxMjUgNTguNDI4MDA1MDU3MTIwMjgsIC0xODcuMDE5NTMxMjUgOC44NjM4MjI2MTQyNDA1NjEsIC0xODcuMDE5NTMxMjUgLTEwNy45OTIxODc1Ij48L3BhdGg+PC9nPjxnIHRyYW5zZm9ybT0idHJhbnNsYXRlKDAsIC04My45OTIxODc1KSIgY2xhc3M9ImFubm90YXRpb24tZ3JvdXAgdGV4dCI+PC9nPjxnIHRyYW5zZm9ybT0idHJhbnNsYXRlKC0yNS40ODE3Njk1NjE3Njc1NzgsIC04My45OTIxODc1KSIgY2xhc3M9ImxhYmVsLWdyb3VwIHRleHQiPjxnIHRyYW5zZm9ybT0idHJhbnNsYXRlKDAsLTExLjk5ODY5NzI4MDg4Mzc4OSkiIHN0eWxlPSJmb250LXdlaWdodDogYm9sZGVyIiBjbGFzcz0ibGFiZWwiPjxmb3JlaWduT2JqZWN0IGhlaWdodD0iMjMuOTk3Mzk0NTYxNzY3NTc4IiB3aWR0aD0iNTAuOTYzNTM5MTIzNTM1MTU2Ij48ZGl2IHN0eWxlPSJkaXNwbGF5OiB0YWJsZS1jZWxsOyB3aGl0ZS1zcGFjZTogbm93cmFwOyBsaW5lLWhlaWdodDogMS41OyBtYXgtd2lkdGg6IDEwMnB4OyB0ZXh0LWFsaWduOiBjZW50ZXI7IiB4bWxucz0iaHR0cDovL3d3dy53My5vcmcvMTk5OS94aHRtbCI+PHNwYW4gc3R5bGU9IiIgY2xhc3M9Im5vZGVMYWJlbCBtYXJrZG93bi1ub2RlLWxhYmVsIj48cD5Db21ibzwvcD48L3NwYW4+PC9kaXY+PC9mb3JlaWduT2JqZWN0PjwvZz48L2c+PGcgdHJhbnNmb3JtPSJ0cmFuc2xhdGUoLTE3NS4wMTk1MzEyNSwgLTM1Ljk5NDc5MjkzODIzMjQyKSIgY2xhc3M9Im1lbWJlcnMtZ3JvdXAgdGV4dCI+PGcgdHJhbnNmb3JtPSJ0cmFuc2xhdGUoMCwtMTEuOTk4Njk3MjgwODgzNzg5KSIgc3R5bGU9IiIgY2xhc3M9ImxhYmVsIj48Zm9yZWlnbk9iamVjdCBoZWlnaHQ9IjIzLjk5NzM5NDU2MTc2NzU3OCIgd2lkdGg9IjE1Ny43NzM0Mzc1Ij48ZGl2IHN0eWxlPSJkaXNwbGF5OiB0YWJsZS1jZWxsOyB3aGl0ZS1zcGFjZTogbm93cmFwOyBsaW5lLWhlaWdodDogMS41OyBtYXgtd2lkdGg6IDIxNXB4OyB0ZXh0LWFsaWduOiBjZW50ZXI7IiB4bWxucz0iaHR0cDovL3d3dy53My5vcmcvMTk5OS94aHRtbCI+PHNwYW4gc3R5bGU9IiIgY2xhc3M9Im5vZGVMYWJlbCBtYXJrZG93bi1ub2RlLWxhYmVsIj48cD4tYW50aWd1ZWRhZE1lc2VzOiBpbnQ8L3A+PC9zcGFuPjwvZGl2PjwvZm9yZWlnbk9iamVjdD48L2c+PGcgdHJhbnNmb3JtPSJ0cmFuc2xhdGUoMCwxMS45OTg2OTcyODA4ODM3ODkpIiBzdHlsZT0iIiBjbGFzcz0ibGFiZWwiPjxmb3JlaWduT2JqZWN0IGhlaWdodD0iMjMuOTk3Mzk0NTYxNzY3NTc4IiB3aWR0aD0iMTM5LjcxMzUzMTQ5NDE0MDYyIj48ZGl2IHN0eWxlPSJkaXNwbGF5OiB0YWJsZS1jZWxsOyB3aGl0ZS1zcGFjZTogbm93cmFwOyBsaW5lLWhlaWdodDogMS41OyBtYXgtd2lkdGg6IDE5M3B4OyB0ZXh0LWFsaWduOiBjZW50ZXI7IiB4bWxucz0iaHR0cDovL3d3dy53My5vcmcvMTk5OS94aHRtbCI+PHNwYW4gc3R5bGU9IiIgY2xhc3M9Im5vZGVMYWJlbCBtYXJrZG93bi1ub2RlLWxhYmVsIj48cD4tZGVzY3JpcGNpb246IFN0cmluZzwvcD48L3NwYW4+PC9kaXY+PC9mb3JlaWduT2JqZWN0PjwvZz48L2c+PGcgdHJhbnNmb3JtPSJ0cmFuc2xhdGUoLTE3NS4wMTk1MzEyNSwgMzUuOTk5OTk2MTg1MzAyNzM0KSIgY2xhc3M9Im1ldGhvZHMtZ3JvdXAgdGV4dCI+PGcgdHJhbnNmb3JtPSJ0cmFuc2xhdGUoMCwtMTEuOTk4Njk3MjgwODgzNzg5KSIgc3R5bGU9IiIgY2xhc3M9ImxhYmVsIj48Zm9yZWlnbk9iamVjdCBoZWlnaHQ9IjIzLjk5NzM5NDU2MTc2NzU3OCIgd2lkdGg9IjMyNC41NTcyODE0OTQxNDA2Ij48ZGl2IHN0eWxlPSJkaXNwbGF5OiB0YWJsZS1jZWxsOyB3aGl0ZS1zcGFjZTogbm93cmFwOyBsaW5lLWhlaWdodDogMS41OyBtYXgtd2lkdGg6IDM3NHB4OyB0ZXh0LWFsaWduOiBjZW50ZXI7IiB4bWxucz0iaHR0cDovL3d3dy53My5vcmcvMTk5OS94aHRtbCI+PHNwYW4gc3R5bGU9IiIgY2xhc3M9Im5vZGVMYWJlbCBtYXJrZG93bi1ub2RlLWxhYmVsIj48cD4rZ2V0Q29waWEoQ29uZGljaW9uIGMxKSA6IDogRWxlbWV0bm9BbHF1aWxlcjwvcD48L3NwYW4+PC9kaXY+PC9mb3JlaWduT2JqZWN0PjwvZz48ZyB0cmFuc2Zvcm09InRyYW5zbGF0ZSgwLDExLjk5ODY5NzI4MDg4Mzc4OSkiIHN0eWxlPSIiIGNsYXNzPSJsYWJlbCI+PGZvcmVpZ25PYmplY3QgaGVpZ2h0PSIyMy45OTczOTQ1NjE3Njc1NzgiIHdpZHRoPSIxMzMuMjk0MjY1NzQ3MDcwMyI+PGRpdiBzdHlsZT0iZGlzcGxheTogdGFibGUtY2VsbDsgd2hpdGUtc3BhY2U6IG5vd3JhcDsgbGluZS1oZWlnaHQ6IDEuNTsgbWF4LXdpZHRoOiAxODNweDsgdGV4dC1hbGlnbjogY2VudGVyOyIgeG1sbnM9Imh0dHA6Ly93d3cudzMub3JnLzE5OTkveGh0bWwiPjxzcGFuIHN0eWxlPSIiIGNsYXNzPSJub2RlTGFiZWwgbWFya2Rvd24tbm9kZS1sYWJlbCI+PHA+K2dldFByZWNpbygpIDogOiBpbnQ8L3A+PC9zcGFuPjwvZGl2PjwvZm9yZWlnbk9iamVjdD48L2c+PGcgdHJhbnNmb3JtPSJ0cmFuc2xhdGUoMCwzNS45OTYwOTE4NDI2NTEzNykiIHN0eWxlPSIiIGNsYXNzPSJsYWJlbCI+PGZvcmVpZ25PYmplY3QgaGVpZ2h0PSIyMy45OTczOTQ1NjE3Njc1NzgiIHdpZHRoPSIxODEuMjEwOTUyNzU4Nzg5MDYiPjxkaXYgc3R5bGU9ImRpc3BsYXk6IHRhYmxlLWNlbGw7IHdoaXRlLXNwYWNlOiBub3dyYXA7IGxpbmUtaGVpZ2h0OiAxLjU7IG1heC13aWR0aDogMjMwcHg7IHRleHQtYWxpZ246IGNlbnRlcjsiIHhtbG5zPSJodHRwOi8vd3d3LnczLm9yZy8xOTk5L3hodG1sIj48c3BhbiBzdHlsZT0iIiBjbGFzcz0ibm9kZUxhYmVsIG1hcmtkb3duLW5vZGUtbGFiZWwiPjxwPitnZXRWYWxvckFscXVpbGVyKCkgOiA6IGludDwvcD48L3NwYW4+PC9kaXY+PC9mb3JlaWduT2JqZWN0PjwvZz48L2c+PGcgc3R5bGU9IiIgY2xhc3M9ImRpdmlkZXIiPjxwYXRoIHN0eWxlPSIiIGZpbGw9Im5vbmUiIHN0cm9rZS13aWR0aD0iMS4zIiBzdHJva2U9IiM5OTkiIGQ9Ik0tMTg3LjAxOTUzMTI1IC01OS45OTQ3OTI5MzgyMzI0MiBDLTgxLjIzMTk3ODYwNjk5Nzc0IC01OS45OTQ3OTI5MzgyMzI0MiwgMjQuNTU1NTc0MDM2MDA0NTE1IC01OS45OTQ3OTI5MzgyMzI0MiwgMTg3LjAxOTUzMTI1IC01OS45OTQ3OTI5MzgyMzI0MiBNLTE4Ny4wMTk1MzEyNSAtNTkuOTk0NzkyOTM4MjMyNDIgQy04NS42MjQ2OTQzMzk1NzY3MiAtNTkuOTk0NzkyOTM4MjMyNDIsIDE1Ljc3MDE0MjU3MDg0NjU2IC01OS45OTQ3OTI5MzgyMzI0MiwgMTg3LjAxOTUzMTI1IC01OS45OTQ3OTI5MzgyMzI0MiI+PC9wYXRoPjwvZz48ZyBzdHlsZT0iIiBjbGFzcz0iZGl2aWRlciI+PHBhdGggc3R5bGU9IiIgZmlsbD0ibm9uZSIgc3Ryb2tlLXdpZHRoPSIxLjMiIHN0cm9rZT0iIzk5OSIgZD0iTS0xODcuMDE5NTMxMjUgMTEuOTk5OTk2MTg1MzAyNzM0IEMtNzMuMjM4NDk0NzgyMTkwNTkgMTEuOTk5OTk2MTg1MzAyNzM0LCA0MC41NDI1NDE2ODU2MTg4MyAxMS45OTk5OTYxODUzMDI3MzQsIDE4Ny4wMTk1MzEyNSAxMS45OTk5OTYxODUzMDI3MzQgTS0xODcuMDE5NTMxMjUgMTEuOTk5OTk2MTg1MzAyNzM0IEMtMTExLjI2MjIwODQzMjMzNzU3IDExLjk5OTk5NjE4NTMwMjczNCwgLTM1LjUwNDg4NTYxNDY3NTE0NiAxMS45OTk5OTYxODUzMDI3MzQsIDE4Ny4wMTk1MzEyNSAxMS45OTk5OTYxODUzMDI3MzQiPjwvcGF0aD48L2c+PC9nPjxnIHRyYW5zZm9ybT0idHJhbnNsYXRlKDEwODAuNDUwNDg1MjI5NDkyMiwgNjgzLjk1NzAyMzYyMDYwNTUpIiBpZD0iY2xhc3NJZC1FbGVtZW50b09ic29sZW5jaWEtNyIgY2xhc3M9Im5vZGUgZGVmYXVsdCI+PGcgY2xhc3M9ImJhc2ljIGxhYmVsLWNvbnRhaW5lciI+PHBhdGggc3R5bGU9IiIgZmlsbD0iI2VlZSIgc3Ryb2tlLXdpZHRoPSIwIiBzdHJva2U9Im5vbmUiIGQ9Ik0tMTc0LjUwMzI1MDEyMjA3MDMgLTExOS45OTA4ODI4NzM1MzUxNiBMMTc0LjUwMzI1MDEyMjA3MDMgLTExOS45OTA4ODI4NzM1MzUxNiBMMTc0LjUwMzI1MDEyMjA3MDMgMTE5Ljk5MDg4Mjg3MzUzNTE2IEwtMTc0LjUwMzI1MDEyMjA3MDMgMTE5Ljk5MDg4Mjg3MzUzNTE2Ij48L3BhdGg+PHBhdGggc3R5bGU9IiIgZmlsbD0ibm9uZSIgc3Ryb2tlLXdpZHRoPSIxLjMiIHN0cm9rZT0iIzk5OSIgZD0iTS0xNzQuNTAzMjUwMTIyMDcwMyAtMTE5Ljk5MDg4Mjg3MzUzNTE2IEMtODEuNTUyMTQ0MDkyNDI2NzQgLTExOS45OTA4ODI4NzM1MzUxNiwgMTEuMzk4OTYxOTM3MjE2ODI1IC0xMTkuOTkwODgyODczNTM1MTYsIDE3NC41MDMyNTAxMjIwNzAzIC0xMTkuOTkwODgyODczNTM1MTYgTS0xNzQuNTAzMjUwMTIyMDcwMyAtMTE5Ljk5MDg4Mjg3MzUzNTE2IEMtNDMuNDE5NTI4NzcxNTQ2OTEgLTExOS45OTA4ODI4NzM1MzUxNiwgODcuNjY0MTkyNTc4OTc2NSAtMTE5Ljk5MDg4Mjg3MzUzNTE2LCAxNzQuNTAzMjUwMTIyMDcwMyAtMTE5Ljk5MDg4Mjg3MzUzNTE2IE0xNzQuNTAzMjUwMTIyMDcwMyAtMTE5Ljk5MDg4Mjg3MzUzNTE2IEMxNzQuNTAzMjUwMTIyMDcwMyAtMzkuNDA5NDM4MjQ1MDY1NDYsIDE3NC41MDMyNTAxMjIwNzAzIDQxLjE3MjAwNjM4MzQwNDI0LCAxNzQuNTAzMjUwMTIyMDcwMyAxMTkuOTkwODgyODczNTM1MTYgTTE3NC41MDMyNTAxMjIwNzAzIC0xMTkuOTkwODgyODczNTM1MTYgQzE3NC41MDMyNTAxMjIwNzAzIC02My4wMzg3NDc1OTQyNTkzMDYsIDE3NC41MDMyNTAxMjIwNzAzIC02LjA4NjYxMjMxNDk4MzQ1NSwgMTc0LjUwMzI1MDEyMjA3MDMgMTE5Ljk5MDg4Mjg3MzUzNTE2IE0xNzQuNTAzMjUwMTIyMDcwMyAxMTkuOTkwODgyODczNTM1MTYgQzgzLjA3MDUxNDAyNTI2NzA3IDExOS45OTA4ODI4NzM1MzUxNiwgLTguMzYyMjIyMDcxNTM2MTY2IDExOS45OTA4ODI4NzM1MzUxNiwgLTE3NC41MDMyNTAxMjIwNzAzIDExOS45OTA4ODI4NzM1MzUxNiBNMTc0LjUwMzI1MDEyMjA3MDMgMTE5Ljk5MDg4Mjg3MzUzNTE2IEM5MC4zMjk1NDExMjQ5MjYyMSAxMTkuOTkwODgyODczNTM1MTYsIDYuMTU1ODMyMTI3NzgyMTA1IDExOS45OTA4ODI4NzM1MzUxNiwgLTE3NC41MDMyNTAxMjIwNzAzIDExOS45OTA4ODI4NzM1MzUxNiBNLTE3NC41MDMyNTAxMjIwNzAzIDExOS45OTA4ODI4NzM1MzUxNiBDLTE3NC41MDMyNTAxMjIwNzAzIDcwLjA2Mjg1NTE1NTAzODUzLCAtMTc0LjUwMzI1MDEyMjA3MDMgMjAuMTM0ODI3NDM2NTQxOTEsIC0xNzQuNTAzMjUwMTIyMDcwMyAtMTE5Ljk5MDg4Mjg3MzUzNTE2IE0tMTc0LjUwMzI1MDEyMjA3MDMgMTE5Ljk5MDg4Mjg3MzUzNTE2IEMtMTc0LjUwMzI1MDEyMjA3MDMgMjcuMzg3NTY4ODIyMTY5NzI2LCAtMTc0LjUwMzI1MDEyMjA3MDMgLTY1LjIxNTc0NTIyOTE5NTcsIC0xNzQuNTAzMjUwMTIyMDcwMyAtMTE5Ljk5MDg4Mjg3MzUzNTE2Ij48L3BhdGg+PC9nPjxnIHRyYW5zZm9ybT0idHJhbnNsYXRlKDAsIC05NS45OTA4ODI4NzM1MzUxNikiIGNsYXNzPSJhbm5vdGF0aW9uLWdyb3VwIHRleHQiPjwvZz48ZyB0cmFuc2Zvcm09InRyYW5zbGF0ZSgtNzYuMDc0MjE4NzUsIC05NS45OTA4ODI4NzM1MzUxNikiIGNsYXNzPSJsYWJlbC1ncm91cCB0ZXh0Ij48ZyB0cmFuc2Zvcm09InRyYW5zbGF0ZSgwLC0xMS45OTg2OTcyODA4ODM3ODkpIiBzdHlsZT0iZm9udC13ZWlnaHQ6IGJvbGRlciIgY2xhc3M9ImxhYmVsIj48Zm9yZWlnbk9iamVjdCBoZWlnaHQ9IjIzLjk5NzM5NDU2MTc2NzU3OCIgd2lkdGg9IjE1Mi4xNDg0Mzc1Ij48ZGl2IHN0eWxlPSJkaXNwbGF5OiB0YWJsZS1jZWxsOyB3aGl0ZS1zcGFjZTogbm93cmFwOyBsaW5lLWhlaWdodDogMS41OyBtYXgtd2lkdGg6IDE5NXB4OyB0ZXh0LWFsaWduOiBjZW50ZXI7IiB4bWxucz0iaHR0cDovL3d3dy53My5vcmcvMTk5OS94aHRtbCI+PHNwYW4gc3R5bGU9IiIgY2xhc3M9Im5vZGVMYWJlbCBtYXJrZG93bi1ub2RlLWxhYmVsIj48cD5FbGVtZW50b09ic29sZW5jaWE8L3A+PC9zcGFuPjwvZGl2PjwvZm9yZWlnbk9iamVjdD48L2c+PC9nPjxnIHRyYW5zZm9ybT0idHJhbnNsYXRlKC0xNjIuNTAzMjUwMTIyMDcwMywgLTQ3Ljk5MzQ4ODMxMTc2NzU4KSIgY2xhc3M9Im1lbWJlcnMtZ3JvdXAgdGV4dCI+PGcgdHJhbnNmb3JtPSJ0cmFuc2xhdGUoMCwtMTEuOTk4Njk3MjgwODgzNzg5KSIgc3R5bGU9IiIgY2xhc3M9ImxhYmVsIj48Zm9yZWlnbk9iamVjdCBoZWlnaHQ9IjIzLjk5NzM5NDU2MTc2NzU3OCIgd2lkdGg9IjQ5LjcwMDUxOTU2MTc2NzU4Ij48ZGl2IHN0eWxlPSJkaXNwbGF5OiB0YWJsZS1jZWxsOyB3aGl0ZS1zcGFjZTogbm93cmFwOyBsaW5lLWhlaWdodDogMS41OyBtYXgtd2lkdGg6IDEwM3B4OyB0ZXh0LWFsaWduOiBjZW50ZXI7IiB4bWxucz0iaHR0cDovL3d3dy53My5vcmcvMTk5OS94aHRtbCI+PHNwYW4gc3R5bGU9IiIgY2xhc3M9Im5vZGVMYWJlbCBtYXJrZG93bi1ub2RlLWxhYmVsIj48cD4taWQ6IGludDwvcD48L3NwYW4+PC9kaXY+PC9mb3JlaWduT2JqZWN0PjwvZz48ZyB0cmFuc2Zvcm09InRyYW5zbGF0ZSgwLDExLjk5ODY5NzI4MDg4Mzc4OSkiIHN0eWxlPSIiIGNsYXNzPSJsYWJlbCI+PGZvcmVpZ25PYmplY3QgaGVpZ2h0PSIyMy45OTczOTQ1NjE3Njc1NzgiIHdpZHRoPSIyMDMuNTkzNzY1MjU4Nzg5MDYiPjxkaXYgc3R5bGU9ImRpc3BsYXk6IHRhYmxlLWNlbGw7IHdoaXRlLXNwYWNlOiBub3dyYXA7IGxpbmUtaGVpZ2h0OiAxLjU7IG1heC13aWR0aDogMjU1cHg7IHRleHQtYWxpZ246IGNlbnRlcjsiIHhtbG5zPSJodHRwOi8vd3d3LnczLm9yZy8xOTk5L3hodG1sIj48c3BhbiBzdHlsZT0iIiBjbGFzcz0ibm9kZUxhYmVsIG1hcmtkb3duLW5vZGUtbGFiZWwiPjxwPi1lbGVtZW50bzogZWxlbWVudG9BbHF1aWVyPC9wPjwvc3Bhbj48L2Rpdj48L2ZvcmVpZ25PYmplY3Q+PC9nPjxnIHRyYW5zZm9ybT0idHJhbnNsYXRlKDAsMzUuOTk2MDkxODQyNjUxMzcpIiBzdHlsZT0iIiBjbGFzcz0ibGFiZWwiPjxmb3JlaWduT2JqZWN0IGhlaWdodD0iMjMuOTk3Mzk0NTYxNzY3NTc4IiB3aWR0aD0iMjMxLjIxMDkzNzUiPjxkaXYgc3R5bGU9ImRpc3BsYXk6IHRhYmxlLWNlbGw7IHdoaXRlLXNwYWNlOiBub3dyYXA7IGxpbmUtaGVpZ2h0OiAxLjU7IG1heC13aWR0aDogMjgwcHg7IHRleHQtYWxpZ246IGNlbnRlcjsiIHhtbG5zPSJodHRwOi8vd3d3LnczLm9yZy8xOTk5L3hodG1sIj48c3BhbiBzdHlsZT0iIiBjbGFzcz0ibm9kZUxhYmVsIG1hcmtkb3duLW5vZGUtbGFiZWwiPjxwPi1mYWN0b3JQcmVjaW9FbmV2ZWNpZG86IGRvdWJsZTs8L3A+PC9zcGFuPjwvZGl2PjwvZm9yZWlnbk9iamVjdD48L2c+PGcgdHJhbnNmb3JtPSJ0cmFuc2xhdGUoMCw1OS45OTM0ODY0MDQ0MTg5NDUpIiBzdHlsZT0iIiBjbGFzcz0ibGFiZWwiPjxmb3JlaWduT2JqZWN0IGhlaWdodD0iMjMuOTk3Mzk0NTYxNzY3NTc4IiB3aWR0aD0iMjQ4LjkzMjI4MTQ5NDE0MDYyIj48ZGl2IHN0eWxlPSJkaXNwbGF5OiB0YWJsZS1jZWxsOyB3aGl0ZS1zcGFjZTogbm93cmFwOyBsaW5lLWhlaWdodDogMS41OyBtYXgtd2lkdGg6IDI5NXB4OyB0ZXh0LWFsaWduOiBjZW50ZXI7IiB4bWxucz0iaHR0cDovL3d3dy53My5vcmcvMTk5OS94aHRtbCI+PHNwYW4gc3R5bGU9IiIgY2xhc3M9Im5vZGVMYWJlbCBtYXJrZG93bi1ub2RlLWxhYmVsIj48cD4tZmFjdG9yQWxxdWlsZXJFbnZlamVjaWRvOiBkb3VibGU7PC9wPjwvc3Bhbj48L2Rpdj48L2ZvcmVpZ25PYmplY3Q+PC9nPjwvZz48ZyB0cmFuc2Zvcm09InRyYW5zbGF0ZSgtMTYyLjUwMzI1MDEyMjA3MDMsIDcxLjk5NjA4OTkzNTMwMjczKSIgY2xhc3M9Im1ldGhvZHMtZ3JvdXAgdGV4dCI+PGcgdHJhbnNmb3JtPSJ0cmFuc2xhdGUoMCwtMTEuOTk4Njk3MjgwODgzNzg5KSIgc3R5bGU9IiIgY2xhc3M9ImxhYmVsIj48Zm9yZWlnbk9iamVjdCBoZWlnaHQ9IjIzLjk5NzM5NDU2MTc2NzU3OCIgd2lkdGg9Ijg3LjQzNDg5MDc0NzA3MDMxIj48ZGl2IHN0eWxlPSJkaXNwbGF5OiB0YWJsZS1jZWxsOyB3aGl0ZS1zcGFjZTogbm93cmFwOyBsaW5lLWhlaWdodDogMS41OyBtYXgtd2lkdGg6IDE0NHB4OyB0ZXh0LWFsaWduOiBjZW50ZXI7IiB4bWxucz0iaHR0cDovL3d3dy53My5vcmcvMTk5OS94aHRtbCI+PHNwYW4gc3R5bGU9IiIgY2xhc3M9Im5vZGVMYWJlbCBtYXJrZG93bi1ub2RlLWxhYmVsIj48cD4rZ2V0UHJlY2lvKCk8L3A+PC9zcGFuPjwvZGl2PjwvZm9yZWlnbk9iamVjdD48L2c+PGcgdHJhbnNmb3JtPSJ0cmFuc2xhdGUoMCwxMS45OTg2OTcyODA4ODM3ODkpIiBzdHlsZT0iIiBjbGFzcz0ibGFiZWwiPjxmb3JlaWduT2JqZWN0IGhlaWdodD0iMjMuOTk3Mzk0NTYxNzY3NTc4IiB3aWR0aD0iMTgxLjIxMDk1Mjc1ODc4OTA2Ij48ZGl2IHN0eWxlPSJkaXNwbGF5OiB0YWJsZS1jZWxsOyB3aGl0ZS1zcGFjZTogbm93cmFwOyBsaW5lLWhlaWdodDogMS41OyBtYXgtd2lkdGg6IDIzMHB4OyB0ZXh0LWFsaWduOiBjZW50ZXI7IiB4bWxucz0iaHR0cDovL3d3dy53My5vcmcvMTk5OS94aHRtbCI+PHNwYW4gc3R5bGU9IiIgY2xhc3M9Im5vZGVMYWJlbCBtYXJrZG93bi1ub2RlLWxhYmVsIj48cD4rZ2V0VmFsb3JBbHF1aWxlcigpIDogOiBpbnQ8L3A+PC9zcGFuPjwvZGl2PjwvZm9yZWlnbk9iamVjdD48L2c+PC9nPjxnIHN0eWxlPSIiIGNsYXNzPSJkaXZpZGVyIj48cGF0aCBzdHlsZT0iIiBmaWxsPSJub25lIiBzdHJva2Utd2lkdGg9IjEuMyIgc3Ryb2tlPSIjOTk5IiBkPSJNLTE3NC41MDMyNTAxMjIwNzAzIC03MS45OTM0ODgzMTE3Njc1OCBDLTgwLjkxNzI3OTIyNTAwMzQ0IC03MS45OTM0ODgzMTE3Njc1OCwgMTIuNjY4NjkxNjcyMDYzNDMxIC03MS45OTM0ODgzMTE3Njc1OCwgMTc0LjUwMzI1MDEyMjA3MDMgLTcxLjk5MzQ4ODMxMTc2NzU4IE0tMTc0LjUwMzI1MDEyMjA3MDMgLTcxLjk5MzQ4ODMxMTc2NzU4IEMtNDIuODE3MDg0MzUyNDgxODMgLTcxLjk5MzQ4ODMxMTc2NzU4LCA4OC44NjkwODE0MTcxMDY2NiAtNzEuOTkzNDg4MzExNzY3NTgsIDE3NC41MDMyNTAxMjIwNzAzIC03MS45OTM0ODgzMTE3Njc1OCI+PC9wYXRoPjwvZz48ZyBzdHlsZT0iIiBjbGFzcz0iZGl2aWRlciI+PHBhdGggc3R5bGU9IiIgZmlsbD0ibm9uZSIgc3Ryb2tlLXdpZHRoPSIxLjMiIHN0cm9rZT0iIzk5OSIgZD0iTS0xNzQuNTAzMjUwMTIyMDcwMyA0Ny45OTYwODk5MzUzMDI3MzQgQy00Ni41OTk1NzE1MDA4MTI1NDQgNDcuOTk2MDg5OTM1MzAyNzM0LCA4MS4zMDQxMDcxMjA0NDUyMiA0Ny45OTYwODk5MzUzMDI3MzQsIDE3NC41MDMyNTAxMjIwNzAzIDQ3Ljk5NjA4OTkzNTMwMjczNCBNLTE3NC41MDMyNTAxMjIwNzAzIDQ3Ljk5NjA4OTkzNTMwMjczNCBDLTM5LjE2MTk1MTA1MzM2NzIwNCA0Ny45OTYwODk5MzUzMDI3MzQsIDk2LjE3OTM0ODAxNTMzNTkgNDcuOTk2MDg5OTM1MzAyNzM0LCAxNzQuNTAzMjUwMTIyMDcwMyA0Ny45OTYwODk5MzUzMDI3MzQiPjwvcGF0aD48L2c+PC9nPjxnIHRyYW5zZm9ybT0idHJhbnNsYXRlKDI2MzguNTYzMDk1MDkyNzczNCwgMTE1Ljk5MjE4NzUpIiBpZD0iY2xhc3NJZC1Db25kaWNpb24tOCIgY2xhc3M9Im5vZGUgZGVmYXVsdCI+PGcgY2xhc3M9ImJhc2ljIGxhYmVsLWNvbnRhaW5lciI+PHBhdGggc3R5bGU9IiIgZmlsbD0iI2VlZSIgc3Ryb2tlLXdpZHRoPSIwIiBzdHJva2U9Im5vbmUiIGQ9Ik0tMTQzLjc1MTI5Njk5NzA3MDMgLTc0Ljk5NjA4OTkzNTMwMjczIEwxNDMuNzUxMjk2OTk3MDcwMyAtNzQuOTk2MDg5OTM1MzAyNzMgTDE0My43NTEyOTY5OTcwNzAzIDc0Ljk5NjA4OTkzNTMwMjczIEwtMTQzLjc1MTI5Njk5NzA3MDMgNzQuOTk2MDg5OTM1MzAyNzMiPjwvcGF0aD48cGF0aCBzdHlsZT0iIiBmaWxsPSJub25lIiBzdHJva2Utd2lkdGg9IjEuMyIgc3Ryb2tlPSIjOTk5IiBkPSJNLTE0My43NTEyOTY5OTcwNzAzIC03NC45OTYwODk5MzUzMDI3MyBDLTgyLjU4ODE4MDAyNzYzNjA0IC03NC45OTYwODk5MzUzMDI3MywgLTIxLjQyNTA2MzA1ODIwMTc4NiAtNzQuOTk2MDg5OTM1MzAyNzMsIDE0My43NTEyOTY5OTcwNzAzIC03NC45OTYwODk5MzUzMDI3MyBNLTE0My43NTEyOTY5OTcwNzAzIC03NC45OTYwODk5MzUzMDI3MyBDLTgxLjg4NzEyMDk3ODQ2OTQzIC03NC45OTYwODk5MzUzMDI3MywgLTIwLjAyMjk0NDk1OTg2ODU1MyAtNzQuOTk2MDg5OTM1MzAyNzMsIDE0My43NTEyOTY5OTcwNzAzIC03NC45OTYwODk5MzUzMDI3MyBNMTQzLjc1MTI5Njk5NzA3MDMgLTc0Ljk5NjA4OTkzNTMwMjczIEMxNDMuNzUxMjk2OTk3MDcwMyAtMzcuMDY3MTE0MDE0NjMyNjksIDE0My43NTEyOTY5OTcwNzAzIDAuODYxODYxOTA2MDM3MzQ3NiwgMTQzLjc1MTI5Njk5NzA3MDMgNzQuOTk2MDg5OTM1MzAyNzMgTTE0My43NTEyOTY5OTcwNzAzIC03NC45OTYwODk5MzUzMDI3MyBDMTQzLjc1MTI5Njk5NzA3MDMgLTM4LjM5NTkwOTUwMDQ0NDQwNCwgMTQzLjc1MTI5Njk5NzA3MDMgLTEuNzk1NzI5MDY1NTg2MDczMSwgMTQzLjc1MTI5Njk5NzA3MDMgNzQuOTk2MDg5OTM1MzAyNzMgTTE0My43NTEyOTY5OTcwNzAzIDc0Ljk5NjA4OTkzNTMwMjczIEM1OS4zOTAzMTcyMDU0NTM3NyA3NC45OTYwODk5MzUzMDI3MywgLTI0Ljk3MDY2MjU4NjE2Mjc3NCA3NC45OTYwODk5MzUzMDI3MywgLTE0My43NTEyOTY5OTcwNzAzIDc0Ljk5NjA4OTkzNTMwMjczIE0xNDMuNzUxMjk2OTk3MDcwMyA3NC45OTYwODk5MzUzMDI3MyBDNjguODg3MDA3NTIwNjc2MzMgNzQuOTk2MDg5OTM1MzAyNzMsIC01Ljk3NzI4MTk1NTcxNzY0MyA3NC45OTYwODk5MzUzMDI3MywgLTE0My43NTEyOTY5OTcwNzAzIDc0Ljk5NjA4OTkzNTMwMjczIE0tMTQzLjc1MTI5Njk5NzA3MDMgNzQuOTk2MDg5OTM1MzAyNzMgQy0xNDMuNzUxMjk2OTk3MDcwMyAzMi43NzY1MzY5MjM4NTUsIC0xNDMuNzUxMjk2OTk3MDcwMyAtOS40NDMwMTYwODc1OTI3MzgsIC0xNDMuNzUxMjk2OTk3MDcwMyAtNzQuOTk2MDg5OTM1MzAyNzMgTS0xNDMuNzUxMjk2OTk3MDcwMyA3NC45OTYwODk5MzUzMDI3MyBDLTE0My43NTEyOTY5OTcwNzAzIDM3LjgyNDEyNzAwOTA2NDg5NSwgLTE0My43NTEyOTY5OTcwNzAzIDAuNjUyMTY0MDgyODI3MDU2MywgLTE0My43NTEyOTY5OTcwNzAzIC03NC45OTYwODk5MzUzMDI3MyI+PC9wYXRoPjwvZz48ZyB0cmFuc2Zvcm09InRyYW5zbGF0ZSgtNDEuMTcxODc4ODE0Njk3MjY2LCAtNTAuOTk2MDg5OTM1MzAyNzM0KSIgY2xhc3M9ImFubm90YXRpb24tZ3JvdXAgdGV4dCI+PGcgdHJhbnNmb3JtPSJ0cmFuc2xhdGUoMCwtMTEuOTk4Njk3MjgwODgzNzg5KSIgc3R5bGU9IiIgY2xhc3M9ImxhYmVsIj48Zm9yZWlnbk9iamVjdCBoZWlnaHQ9IjIzLjk5NzM5NDU2MTc2NzU3OCIgd2lkdGg9IjgyLjM0Mzc1NzYyOTM5NDUzIj48ZGl2IHN0eWxlPSJkaXNwbGF5OiB0YWJsZS1jZWxsOyB3aGl0ZS1zcGFjZTogbm93cmFwOyBsaW5lLWhlaWdodDogMS41OyBtYXgtd2lkdGg6IDEyOHB4OyB0ZXh0LWFsaWduOiBjZW50ZXI7IiB4bWxucz0iaHR0cDovL3d3dy53My5vcmcvMTk5OS94aHRtbCI+PHNwYW4gc3R5bGU9IiIgY2xhc3M9Im5vZGVMYWJlbCBtYXJrZG93bi1ub2RlLWxhYmVsIj48cD7Cq2ludGVyZmFjZcK7PC9wPjwvc3Bhbj48L2Rpdj48L2ZvcmVpZ25PYmplY3Q+PC9nPjwvZz48ZyB0cmFuc2Zvcm09InRyYW5zbGF0ZSgtMzYuOTA3NTUwODExNzY3NTgsIC0yNi45OTg2OTUzNzM1MzUxNTYpIiBjbGFzcz0ibGFiZWwtZ3JvdXAgdGV4dCI+PGcgdHJhbnNmb3JtPSJ0cmFuc2xhdGUoMCwtMTEuOTk4Njk3MjgwODgzNzg5KSIgc3R5bGU9ImZvbnQtd2VpZ2h0OiBib2xkZXIiIGNsYXNzPSJsYWJlbCI+PGZvcmVpZ25PYmplY3QgaGVpZ2h0PSIyMy45OTczOTQ1NjE3Njc1NzgiIHdpZHRoPSI3My44MTUxMDE2MjM1MzUxNiI+PGRpdiBzdHlsZT0iZGlzcGxheTogdGFibGUtY2VsbDsgd2hpdGUtc3BhY2U6IG5vd3JhcDsgbGluZS1oZWlnaHQ6IDEuNTsgbWF4LXdpZHRoOiAxMjFweDsgdGV4dC1hbGlnbjogY2VudGVyOyIgeG1sbnM9Imh0dHA6Ly93d3cudzMub3JnLzE5OTkveGh0bWwiPjxzcGFuIHN0eWxlPSIiIGNsYXNzPSJub2RlTGFiZWwgbWFya2Rvd24tbm9kZS1sYWJlbCI+PHA+Q29uZGljaW9uPC9wPjwvc3Bhbj48L2Rpdj48L2ZvcmVpZ25PYmplY3Q+PC9nPjwvZz48ZyB0cmFuc2Zvcm09InRyYW5zbGF0ZSgtMTMxLjc1MTI5Njk5NzA3MDMsIDIwLjk5ODY5OTE4ODIzMjQyMikiIGNsYXNzPSJtZW1iZXJzLWdyb3VwIHRleHQiPjwvZz48ZyB0cmFuc2Zvcm09InRyYW5zbGF0ZSgtMTMxLjc1MTI5Njk5NzA3MDMsIDUwLjk5ODY5OTE4ODIzMjQyKSIgY2xhc3M9Im1ldGhvZHMtZ3JvdXAgdGV4dCI+PGcgdHJhbnNmb3JtPSJ0cmFuc2xhdGUoMCwtMTEuOTk4Njk3MjgwODgzNzg5KSIgc3R5bGU9IiIgY2xhc3M9ImxhYmVsIj48Zm9yZWlnbk9iamVjdCBoZWlnaHQ9IjIzLjk5NzM5NDU2MTc2NzU3OCIgd2lkdGg9IjIyMi4zMzA3MTg5OTQxNDA2MiI+PGRpdiBzdHlsZT0iZGlzcGxheTogdGFibGUtY2VsbDsgd2hpdGUtc3BhY2U6IG5vd3JhcDsgbGluZS1oZWlnaHQ6IDEuNTsgbWF4LXdpZHRoOiAyNzlweDsgdGV4dC1hbGlnbjogY2VudGVyOyIgeG1sbnM9Imh0dHA6Ly93d3cudzMub3JnLzE5OTkveGh0bWwiPjxzcGFuIHN0eWxlPSIiIGNsYXNzPSJub2RlTGFiZWwgbWFya2Rvd24tbm9kZS1sYWJlbCI+PHA+K2N1bXBsZUNvbihlbGVtZW50b0Jhc2UgZWIpPC9wPjwvc3Bhbj48L2Rpdj48L2ZvcmVpZ25PYmplY3Q+PC9nPjwvZz48ZyBzdHlsZT0iIiBjbGFzcz0iZGl2aWRlciI+PHBhdGggc3R5bGU9IiIgZmlsbD0ibm9uZSIgc3Ryb2tlLXdpZHRoPSIxLjMiIHN0cm9rZT0iIzk5OSIgZD0iTS0xNDMuNzUxMjk2OTk3MDcwMyAtMy4wMDEzMDA4MTE3Njc1NzggQy01NC45NTMzNDM3NTg3MjY1MDQgLTMuMDAxMzAwODExNzY3NTc4LCAzMy44NDQ2MDk0Nzk2MTczMDQgLTMuMDAxMzAwODExNzY3NTc4LCAxNDMuNzUxMjk2OTk3MDcwMyAtMy4wMDEzMDA4MTE3Njc1NzggTS0xNDMuNzUxMjk2OTk3MDcwMyAtMy4wMDEzMDA4MTE3Njc1NzggQy01My4wNTUwMzkwNjUzMjgxOSAtMy4wMDEzMDA4MTE3Njc1NzgsIDM3LjY0MTIxODg2NjQxMzkzNiAtMy4wMDEzMDA4MTE3Njc1NzgsIDE0My43NTEyOTY5OTcwNzAzIC0zLjAwMTMwMDgxMTc2NzU3OCI+PC9wYXRoPjwvZz48ZyBzdHlsZT0iIiBjbGFzcz0iZGl2aWRlciI+PHBhdGggc3R5bGU9IiIgZmlsbD0ibm9uZSIgc3Ryb2tlLXdpZHRoPSIxLjMiIHN0cm9rZT0iIzk5OSIgZD0iTS0xNDMuNzUxMjk2OTk3MDcwMyAyMC45OTg2OTkxODgyMzI0MjIgQy04Mi44MDMzMjU5NzExMDcyNiAyMC45OTg2OTkxODgyMzI0MjIsIC0yMS44NTUzNTQ5NDUxNDQyMTQgMjAuOTk4Njk5MTg4MjMyNDIyLCAxNDMuNzUxMjk2OTk3MDcwMyAyMC45OTg2OTkxODgyMzI0MjIgTS0xNDMuNzUxMjk2OTk3MDcwMyAyMC45OTg2OTkxODgyMzI0MjIgQy00MS4xMjM2ODI0MDA0MDYwMjUgMjAuOTk4Njk5MTg4MjMyNDIyLCA2MS41MDM5MzIxOTYyNTgyNiAyMC45OTg2OTkxODgyMzI0MjIsIDE0My43NTEyOTY5OTcwNzAzIDIwLjk5ODY5OTE4ODIzMjQyMiI+PC9wYXRoPjwvZz48L2c+PGcgdHJhbnNmb3JtPSJ0cmFuc2xhdGUoMTkxNy43NDQwOTQ4NDg2MzI4LCAzOTMuOTc1MjU3ODczNTM1MTYpIiBpZD0iY2xhc3NJZC1Db25kaWNpb25BbnRpZ3VlZGFkLTkiIGNsYXNzPSJub2RlIGRlZmF1bHQiPjxnIGNsYXNzPSJiYXNpYyBsYWJlbC1jb250YWluZXIiPjxwYXRoIHN0eWxlPSIiIGZpbGw9IiNlZWUiIHN0cm9rZS13aWR0aD0iMCIgc3Ryb2tlPSJub25lIiBkPSJNLTE2Mi43Mzg5MjIxMTkxNDA2MiAtNzEuOTk2MDg5OTM1MzAyNzMgTDE2Mi43Mzg5MjIxMTkxNDA2MiAtNzEuOTk2MDg5OTM1MzAyNzMgTDE2Mi43Mzg5MjIxMTkxNDA2MiA3MS45OTYwODk5MzUzMDI3MyBMLTE2Mi43Mzg5MjIxMTkxNDA2MiA3MS45OTYwODk5MzUzMDI3MyI+PC9wYXRoPjxwYXRoIHN0eWxlPSIiIGZpbGw9Im5vbmUiIHN0cm9rZS13aWR0aD0iMS4zIiBzdHJva2U9IiM5OTkiIGQ9Ik0tMTYyLjczODkyMjExOTE0MDYyIC03MS45OTYwODk5MzUzMDI3MyBDLTY4Ljc4NzExMzEwMDQwOCAtNzEuOTk2MDg5OTM1MzAyNzMsIDI1LjE2NDY5NTkxODMyNDYxIC03MS45OTYwODk5MzUzMDI3MywgMTYyLjczODkyMjExOTE0MDYyIC03MS45OTYwODk5MzUzMDI3MyBNLTE2Mi43Mzg5MjIxMTkxNDA2MiAtNzEuOTk2MDg5OTM1MzAyNzMgQy03My4wODg3MDYyMDY0OTI2IC03MS45OTYwODk5MzUzMDI3MywgMTYuNTYxNTA5NzA2MTU1NDIgLTcxLjk5NjA4OTkzNTMwMjczLCAxNjIuNzM4OTIyMTE5MTQwNjIgLTcxLjk5NjA4OTkzNTMwMjczIE0xNjIuNzM4OTIyMTE5MTQwNjIgLTcxLjk5NjA4OTkzNTMwMjczIEMxNjIuNzM4OTIyMTE5MTQwNjIgLTM4LjE4NzUyODY2NzQ2NDQ0LCAxNjIuNzM4OTIyMTE5MTQwNjIgLTQuMzc4OTY3Mzk5NjI2MTQ4NCwgMTYyLjczODkyMjExOTE0MDYyIDcxLjk5NjA4OTkzNTMwMjczIE0xNjIuNzM4OTIyMTE5MTQwNjIgLTcxLjk5NjA4OTkzNTMwMjczIEMxNjIuNzM4OTIyMTE5MTQwNjIgLTI0LjA1NDg2MDQ3MTI5OTM3LCAxNjIuNzM4OTIyMTE5MTQwNjIgMjMuODg2MzY4OTkyNzAzOTkzLCAxNjIuNzM4OTIyMTE5MTQwNjIgNzEuOTk2MDg5OTM1MzAyNzMgTTE2Mi43Mzg5MjIxMTkxNDA2MiA3MS45OTYwODk5MzUzMDI3MyBDNTQuNDc3Mjk4MTk2NjI0MzIgNzEuOTk2MDg5OTM1MzAyNzMsIC01My43ODQzMjU3MjU4OTE5OSA3MS45OTYwODk5MzUzMDI3MywgLTE2Mi43Mzg5MjIxMTkxNDA2MiA3MS45OTYwODk5MzUzMDI3MyBNMTYyLjczODkyMjExOTE0MDYyIDcxLjk5NjA4OTkzNTMwMjczIEM5NS40NzY0MzQ0MTcwODM1NyA3MS45OTYwODk5MzUzMDI3MywgMjguMjEzOTQ2NzE1MDI2NTEgNzEuOTk2MDg5OTM1MzAyNzMsIC0xNjIuNzM4OTIyMTE5MTQwNjIgNzEuOTk2MDg5OTM1MzAyNzMgTS0xNjIuNzM4OTIyMTE5MTQwNjIgNzEuOTk2MDg5OTM1MzAyNzMgQy0xNjIuNzM4OTIyMTE5MTQwNjIgMjkuNzIxMDYxNzk1OTQ3OTQ2LCAtMTYyLjczODkyMjExOTE0MDYyIC0xMi41NTM5NjYzNDM0MDY4NDIsIC0xNjIuNzM4OTIyMTE5MTQwNjIgLTcxLjk5NjA4OTkzNTMwMjczIE0tMTYyLjczODkyMjExOTE0MDYyIDcxLjk5NjA4OTkzNTMwMjczIEMtMTYyLjczODkyMjExOTE0MDYyIDI2LjYxMDY1MDA1MDMyMzg4MywgLTE2Mi43Mzg5MjIxMTkxNDA2MiAtMTguNzc0Nzg5ODM0NjU0OTY4LCAtMTYyLjczODkyMjExOTE0MDYyIC03MS45OTYwODk5MzUzMDI3MyI+PC9wYXRoPjwvZz48ZyB0cmFuc2Zvcm09InRyYW5zbGF0ZSgwLCAtNDcuOTk2MDg5OTM1MzAyNzM0KSIgY2xhc3M9ImFubm90YXRpb24tZ3JvdXAgdGV4dCI+PC9nPjxnIHRyYW5zZm9ybT0idHJhbnNsYXRlKC03OS4xNDcxMzI4NzM1MzUxNiwgLTQ3Ljk5NjA4OTkzNTMwMjczNCkiIGNsYXNzPSJsYWJlbC1ncm91cCB0ZXh0Ij48ZyB0cmFuc2Zvcm09InRyYW5zbGF0ZSgwLC0xMS45OTg2OTcyODA4ODM3ODkpIiBzdHlsZT0iZm9udC13ZWlnaHQ6IGJvbGRlciIgY2xhc3M9ImxhYmVsIj48Zm9yZWlnbk9iamVjdCBoZWlnaHQ9IjIzLjk5NzM5NDU2MTc2NzU3OCIgd2lkdGg9IjE1OC4yOTQyNjU3NDcwNzAzIj48ZGl2IHN0eWxlPSJkaXNwbGF5OiB0YWJsZS1jZWxsOyB3aGl0ZS1zcGFjZTogbm93cmFwOyBsaW5lLWhlaWdodDogMS41OyBtYXgtd2lkdGg6IDIwNHB4OyB0ZXh0LWFsaWduOiBjZW50ZXI7IiB4bWxucz0iaHR0cDovL3d3dy53My5vcmcvMTk5OS94aHRtbCI+PHNwYW4gc3R5bGU9IiIgY2xhc3M9Im5vZGVMYWJlbCBtYXJrZG93bi1ub2RlLWxhYmVsIj48cD5Db25kaWNpb25BbnRpZ3VlZGFkPC9wPjwvc3Bhbj48L2Rpdj48L2ZvcmVpZ25PYmplY3Q+PC9nPjwvZz48ZyB0cmFuc2Zvcm09InRyYW5zbGF0ZSgtMTUwLjczODkyMjExOTE0MDYyLCAwLjAwMTMwNDYyNjQ2NDg0Mzc1KSIgY2xhc3M9Im1lbWJlcnMtZ3JvdXAgdGV4dCI+PGcgdHJhbnNmb3JtPSJ0cmFuc2xhdGUoMCwtMTEuOTk4Njk3MjgwODgzNzg5KSIgc3R5bGU9IiIgY2xhc3M9ImxhYmVsIj48Zm9yZWlnbk9iamVjdCBoZWlnaHQ9IjIzLjk5NzM5NDU2MTc2NzU3OCIgd2lkdGg9IjExNi4wMTU2MjUiPjxkaXYgc3R5bGU9ImRpc3BsYXk6IHRhYmxlLWNlbGw7IHdoaXRlLXNwYWNlOiBub3dyYXA7IGxpbmUtaGVpZ2h0OiAxLjU7IG1heC13aWR0aDogMTcwcHg7IHRleHQtYWxpZ246IGNlbnRlcjsiIHhtbG5zPSJodHRwOi8vd3d3LnczLm9yZy8xOTk5L3hodG1sIj48c3BhbiBzdHlsZT0iIiBjbGFzcz0ibm9kZUxhYmVsIG1hcmtkb3duLW5vZGUtbGFiZWwiPjxwPi1hbnRpZ3VlZGFkOiBpbnQ8L3A+PC9zcGFuPjwvZGl2PjwvZm9yZWlnbk9iamVjdD48L2c+PC9nPjxnIHRyYW5zZm9ybT0idHJhbnNsYXRlKC0xNTAuNzM4OTIyMTE5MTQwNjIsIDQ3Ljk5ODY5OTE4ODIzMjQyKSIgY2xhc3M9Im1ldGhvZHMtZ3JvdXAgdGV4dCI+PGcgdHJhbnNmb3JtPSJ0cmFuc2xhdGUoMCwtMTEuOTk4Njk3MjgwODgzNzg5KSIgc3R5bGU9IiIgY2xhc3M9ImxhYmVsIj48Zm9yZWlnbk9iamVjdCBoZWlnaHQ9IjIzLjk5NzM5NDU2MTc2NzU3OCIgd2lkdGg9IjIyMi4zMzA3MTg5OTQxNDA2MiI+PGRpdiBzdHlsZT0iZGlzcGxheTogdGFibGUtY2VsbDsgd2hpdGUtc3BhY2U6IG5vd3JhcDsgbGluZS1oZWlnaHQ6IDEuNTsgbWF4LXdpZHRoOiAyNzlweDsgdGV4dC1hbGlnbjogY2VudGVyOyIgeG1sbnM9Imh0dHA6Ly93d3cudzMub3JnLzE5OTkveGh0bWwiPjxzcGFuIHN0eWxlPSIiIGNsYXNzPSJub2RlTGFiZWwgbWFya2Rvd24tbm9kZS1sYWJlbCI+PHA+K2N1bXBsZUNvbihlbGVtZW50b0Jhc2UgZWIpPC9wPjwvc3Bhbj48L2Rpdj48L2ZvcmVpZ25PYmplY3Q+PC9nPjwvZz48ZyBzdHlsZT0iIiBjbGFzcz0iZGl2aWRlciI+PHBhdGggc3R5bGU9IiIgZmlsbD0ibm9uZSIgc3Ryb2tlLXdpZHRoPSIxLjMiIHN0cm9rZT0iIzk5OSIgZD0iTS0xNjIuNzM4OTIyMTE5MTQwNjIgLTIzLjk5ODY5NTM3MzUzNTE1NiBDLTYzLjgyNDc0NjY2NDgyNDEzIC0yMy45OTg2OTUzNzM1MzUxNTYsIDM1LjA4OTQyODc4OTQ5MjM2IC0yMy45OTg2OTUzNzM1MzUxNTYsIDE2Mi43Mzg5MjIxMTkxNDA2MiAtMjMuOTk4Njk1MzczNTM1MTU2IE0tMTYyLjczODkyMjExOTE0MDYyIC0yMy45OTg2OTUzNzM1MzUxNTYgQy02Ny4xMDEzMTU1MDIyNDQ1OSAtMjMuOTk4Njk1MzczNTM1MTU2LCAyOC41MzYyOTExMTQ2NTE0NDggLTIzLjk5ODY5NTM3MzUzNTE1NiwgMTYyLjczODkyMjExOTE0MDYyIC0yMy45OTg2OTUzNzM1MzUxNTYiPjwvcGF0aD48L2c+PGcgc3R5bGU9IiIgY2xhc3M9ImRpdmlkZXIiPjxwYXRoIHN0eWxlPSIiIGZpbGw9Im5vbmUiIHN0cm9rZS13aWR0aD0iMS4zIiBzdHJva2U9IiM5OTkiIGQ9Ik0tMTYyLjczODkyMjExOTE0MDYyIDIzLjk5ODY5OTE4ODIzMjQyMiBDLTQ4LjE3NzY3MjI2MTgwNDE3NiAyMy45OTg2OTkxODgyMzI0MjIsIDY2LjM4MzU3NzU5NTUzMjI3IDIzLjk5ODY5OTE4ODIzMjQyMiwgMTYyLjczODkyMjExOTE0MDYyIDIzLjk5ODY5OTE4ODIzMjQyMiBNLTE2Mi43Mzg5MjIxMTkxNDA2MiAyMy45OTg2OTkxODgyMzI0MjIgQy00My45MTU2NjIwMjgyNDAyNSAyMy45OTg2OTkxODgyMzI0MjIsIDc0LjkwNzU5ODA2MjY2MDEzIDIzLjk5ODY5OTE4ODIzMjQyMiwgMTYyLjczODkyMjExOTE0MDYyIDIzLjk5ODY5OTE4ODIzMjQyMiI+PC9wYXRoPjwvZz48L2c+PGcgdHJhbnNmb3JtPSJ0cmFuc2xhdGUoMjI4Mi40NjM0ODU3MTc3NzM0LCAzOTMuOTc1MjU3ODczNTM1MTYpIiBpZD0iY2xhc3NJZC1Db25kaWNpb25UZXh0by0xMCIgY2xhc3M9Im5vZGUgZGVmYXVsdCI+PGcgY2xhc3M9ImJhc2ljIGxhYmVsLWNvbnRhaW5lciI+PHBhdGggc3R5bGU9IiIgZmlsbD0iI2VlZSIgc3Ryb2tlLXdpZHRoPSIwIiBzdHJva2U9Im5vbmUiIGQ9Ik0tMTUxLjk4MDQ2ODc1IC03MS45OTYwODk5MzUzMDI3MyBMMTUxLjk4MDQ2ODc1IC03MS45OTYwODk5MzUzMDI3MyBMMTUxLjk4MDQ2ODc1IDcxLjk5NjA4OTkzNTMwMjczIEwtMTUxLjk4MDQ2ODc1IDcxLjk5NjA4OTkzNTMwMjczIj48L3BhdGg+PHBhdGggc3R5bGU9IiIgZmlsbD0ibm9uZSIgc3Ryb2tlLXdpZHRoPSIxLjMiIHN0cm9rZT0iIzk5OSIgZD0iTS0xNTEuOTgwNDY4NzUgLTcxLjk5NjA4OTkzNTMwMjczIEMtNzUuMjg0OTkyNzYyMTc5MTYgLTcxLjk5NjA4OTkzNTMwMjczLCAxLjQxMDQ4MzIyNTY0MTY4NDIgLTcxLjk5NjA4OTkzNTMwMjczLCAxNTEuOTgwNDY4NzUgLTcxLjk5NjA4OTkzNTMwMjczIE0tMTUxLjk4MDQ2ODc1IC03MS45OTYwODk5MzUzMDI3MyBDLTYwLjEyNTc2OTExNzUyODY4IC03MS45OTYwODk5MzUzMDI3MywgMzEuNzI4OTMwNTE0OTQyNjQ3IC03MS45OTYwODk5MzUzMDI3MywgMTUxLjk4MDQ2ODc1IC03MS45OTYwODk5MzUzMDI3MyBNMTUxLjk4MDQ2ODc1IC03MS45OTYwODk5MzUzMDI3MyBDMTUxLjk4MDQ2ODc1IC0zNy44NzkyOTczMzk0ODgxMjYsIDE1MS45ODA0Njg3NSAtMy43NjI1MDQ3NDM2NzM1MTczLCAxNTEuOTgwNDY4NzUgNzEuOTk2MDg5OTM1MzAyNzMgTTE1MS45ODA0Njg3NSAtNzEuOTk2MDg5OTM1MzAyNzMgQzE1MS45ODA0Njg3NSAtMzguMzkzMTI5MjY0MDUyNDQsIDE1MS45ODA0Njg3NSAtNC43OTAxNjg1OTI4MDIxNDY1LCAxNTEuOTgwNDY4NzUgNzEuOTk2MDg5OTM1MzAyNzMgTTE1MS45ODA0Njg3NSA3MS45OTYwODk5MzUzMDI3MyBDNTQuMTYxOTA1NDI3ODgzNjk2IDcxLjk5NjA4OTkzNTMwMjczLCAtNDMuNjU2NjU3ODk0MjMyNjEgNzEuOTk2MDg5OTM1MzAyNzMsIC0xNTEuOTgwNDY4NzUgNzEuOTk2MDg5OTM1MzAyNzMgTTE1MS45ODA0Njg3NSA3MS45OTYwODk5MzUzMDI3MyBDNjguOTQ2MDgxMzM1OTM3NzIgNzEuOTk2MDg5OTM1MzAyNzMsIC0xNC4wODgzMDYwNzgxMjQ1NiA3MS45OTYwODk5MzUzMDI3MywgLTE1MS45ODA0Njg3NSA3MS45OTYwODk5MzUzMDI3MyBNLTE1MS45ODA0Njg3NSA3MS45OTYwODk5MzUzMDI3MyBDLTE1MS45ODA0Njg3NSAyOS4wNzg0OTgwMTAzNjE5MDUsIC0xNTEuOTgwNDY4NzUgLTEzLjgzOTA5MzkxNDU3ODkyNSwgLTE1MS45ODA0Njg3NSAtNzEuOTk2MDg5OTM1MzAyNzMgTS0xNTEuOTgwNDY4NzUgNzEuOTk2MDg5OTM1MzAyNzMgQy0xNTEuOTgwNDY4NzUgMzIuNzkwMDU0NjA1NzIyMTgsIC0xNTEuOTgwNDY4NzUgLTYuNDE1OTgwNzIzODU4MzY4LCAtMTUxLjk4MDQ2ODc1IC03MS45OTYwODk5MzUzMDI3MyI+PC9wYXRoPjwvZz48ZyB0cmFuc2Zvcm09InRyYW5zbGF0ZSgwLCAtNDcuOTk2MDg5OTM1MzAyNzM0KSIgY2xhc3M9ImFubm90YXRpb24tZ3JvdXAgdGV4dCI+PC9nPjxnIHRyYW5zZm9ybT0idHJhbnNsYXRlKC01Ny42MzAyMDcwNjE3Njc1OCwgLTQ3Ljk5NjA4OTkzNTMwMjczNCkiIGNsYXNzPSJsYWJlbC1ncm91cCB0ZXh0Ij48ZyB0cmFuc2Zvcm09InRyYW5zbGF0ZSgwLC0xMS45OTg2OTcyODA4ODM3ODkpIiBzdHlsZT0iZm9udC13ZWlnaHQ6IGJvbGRlciIgY2xhc3M9ImxhYmVsIj48Zm9yZWlnbk9iamVjdCBoZWlnaHQ9IjIzLjk5NzM5NDU2MTc2NzU3OCIgd2lkdGg9IjExNS4yNjA0MTQxMjM1MzUxNiI+PGRpdiBzdHlsZT0iZGlzcGxheTogdGFibGUtY2VsbDsgd2hpdGUtc3BhY2U6IG5vd3JhcDsgbGluZS1oZWlnaHQ6IDEuNTsgbWF4LXdpZHRoOiAxNTlweDsgdGV4dC1hbGlnbjogY2VudGVyOyIgeG1sbnM9Imh0dHA6Ly93d3cudzMub3JnLzE5OTkveGh0bWwiPjxzcGFuIHN0eWxlPSIiIGNsYXNzPSJub2RlTGFiZWwgbWFya2Rvd24tbm9kZS1sYWJlbCI+PHA+Q29uZGljaW9uVGV4dG88L3A+PC9zcGFuPjwvZGl2PjwvZm9yZWlnbk9iamVjdD48L2c+PC9nPjxnIHRyYW5zZm9ybT0idHJhbnNsYXRlKC0xMzkuOTgwNDY4NzUsIDAuMDAxMzA0NjI2NDY0ODQzNzUpIiBjbGFzcz0ibWVtYmVycy1ncm91cCB0ZXh0Ij48ZyB0cmFuc2Zvcm09InRyYW5zbGF0ZSgwLC0xMS45OTg2OTcyODA4ODM3ODkpIiBzdHlsZT0iIiBjbGFzcz0ibGFiZWwiPjxmb3JlaWduT2JqZWN0IGhlaWdodD0iMjMuOTk3Mzk0NTYxNzY3NTc4IiB3aWR0aD0iMTEyLjE0ODQzNzUiPjxkaXYgc3R5bGU9ImRpc3BsYXk6IHRhYmxlLWNlbGw7IHdoaXRlLXNwYWNlOiBub3dyYXA7IGxpbmUtaGVpZ2h0OiAxLjU7IG1heC13aWR0aDogMTY1cHg7IHRleHQtYWxpZ246IGNlbnRlcjsiIHhtbG5zPSJodHRwOi8vd3d3LnczLm9yZy8xOTk5L3hodG1sIj48c3BhbiBzdHlsZT0iIiBjbGFzcz0ibm9kZUxhYmVsIG1hcmtkb3duLW5vZGUtbGFiZWwiPjxwPi1wYWxhYnJhOiBTdHJpbmc8L3A+PC9zcGFuPjwvZGl2PjwvZm9yZWlnbk9iamVjdD48L2c+PC9nPjxnIHRyYW5zZm9ybT0idHJhbnNsYXRlKC0xMzkuOTgwNDY4NzUsIDQ3Ljk5ODY5OTE4ODIzMjQyKSIgY2xhc3M9Im1ldGhvZHMtZ3JvdXAgdGV4dCI+PGcgdHJhbnNmb3JtPSJ0cmFuc2xhdGUoMCwtMTEuOTk4Njk3MjgwODgzNzg5KSIgc3R5bGU9IiIgY2xhc3M9ImxhYmVsIj48Zm9yZWlnbk9iamVjdCBoZWlnaHQ9IjIzLjk5NzM5NDU2MTc2NzU3OCIgd2lkdGg9IjIyMi4zMzA3MTg5OTQxNDA2MiI+PGRpdiBzdHlsZT0iZGlzcGxheTogdGFibGUtY2VsbDsgd2hpdGUtc3BhY2U6IG5vd3JhcDsgbGluZS1oZWlnaHQ6IDEuNTsgbWF4LXdpZHRoOiAyNzlweDsgdGV4dC1hbGlnbjogY2VudGVyOyIgeG1sbnM9Imh0dHA6Ly93d3cudzMub3JnLzE5OTkveGh0bWwiPjxzcGFuIHN0eWxlPSIiIGNsYXNzPSJub2RlTGFiZWwgbWFya2Rvd24tbm9kZS1sYWJlbCI+PHA+K2N1bXBsZUNvbihlbGVtZW50b0Jhc2UgZWIpPC9wPjwvc3Bhbj48L2Rpdj48L2ZvcmVpZ25PYmplY3Q+PC9nPjwvZz48ZyBzdHlsZT0iIiBjbGFzcz0iZGl2aWRlciI+PHBhdGggc3R5bGU9IiIgZmlsbD0ibm9uZSIgc3Ryb2tlLXdpZHRoPSIxLjMiIHN0cm9rZT0iIzk5OSIgZD0iTS0xNTEuOTgwNDY4NzUgLTIzLjk5ODY5NTM3MzUzNTE1NiBDLTY1Ljc3MjQ5Mjg0MjM2MTg4IC0yMy45OTg2OTUzNzM1MzUxNTYsIDIwLjQzNTQ4MzA2NTI3NjIzIC0yMy45OTg2OTUzNzM1MzUxNTYsIDE1MS45ODA0Njg3NSAtMjMuOTk4Njk1MzczNTM1MTU2IE0tMTUxLjk4MDQ2ODc1IC0yMy45OTg2OTUzNzM1MzUxNTYgQy05MC4wMjE3NjAzNDk1NDU5OSAtMjMuOTk4Njk1MzczNTM1MTU2LCAtMjguMDYzMDUxOTQ5MDkxOTU3IC0yMy45OTg2OTUzNzM1MzUxNTYsIDE1MS45ODA0Njg3NSAtMjMuOTk4Njk1MzczNTM1MTU2Ij48L3BhdGg+PC9nPjxnIHN0eWxlPSIiIGNsYXNzPSJkaXZpZGVyIj48cGF0aCBzdHlsZT0iIiBmaWxsPSJub25lIiBzdHJva2Utd2lkdGg9IjEuMyIgc3Ryb2tlPSIjOTk5IiBkPSJNLTE1MS45ODA0Njg3NSAyMy45OTg2OTkxODgyMzI0MjIgQy04OS4yODk0OTQyMjExNjM5NSAyMy45OTg2OTkxODgyMzI0MjIsIC0yNi41OTg1MTk2OTIzMjc5MTIgMjMuOTk4Njk5MTg4MjMyNDIyLCAxNTEuOTgwNDY4NzUgMjMuOTk4Njk5MTg4MjMyNDIyIE0tMTUxLjk4MDQ2ODc1IDIzLjk5ODY5OTE4ODIzMjQyMiBDLTMxLjE4Njg4NzY5MTM4NTA1MyAyMy45OTg2OTkxODgyMzI0MjIsIDg5LjYwNjY5MzM2NzIyOTkgMjMuOTk4Njk5MTg4MjMyNDIyLCAxNTEuOTgwNDY4NzUgMjMuOTk4Njk5MTg4MjMyNDIyIj48L3BhdGg+PC9nPjwvZz48ZyB0cmFuc2Zvcm09InRyYW5zbGF0ZSgyNjM4LjU2MzA5NTA5Mjc3MzQsIDM5My45NzUyNTc4NzM1MzUxNikiIGlkPSJjbGFzc0lkLUNvbmRpY2lvbkNvZGlnby0xMSIgY2xhc3M9Im5vZGUgZGVmYXVsdCI+PGcgY2xhc3M9ImJhc2ljIGxhYmVsLWNvbnRhaW5lciI+PHBhdGggc3R5bGU9IiIgZmlsbD0iI2VlZSIgc3Ryb2tlLXdpZHRoPSIwIiBzdHJva2U9Im5vbmUiIGQ9Ik0tMTU0LjExOTE0MDYyNSAtNzEuOTk2MDg5OTM1MzAyNzMgTDE1NC4xMTkxNDA2MjUgLTcxLjk5NjA4OTkzNTMwMjczIEwxNTQuMTE5MTQwNjI1IDcxLjk5NjA4OTkzNTMwMjczIEwtMTU0LjExOTE0MDYyNSA3MS45OTYwODk5MzUzMDI3MyI+PC9wYXRoPjxwYXRoIHN0eWxlPSIiIGZpbGw9Im5vbmUiIHN0cm9rZS13aWR0aD0iMS4zIiBzdHJva2U9IiM5OTkiIGQ9Ik0tMTU0LjExOTE0MDYyNSAtNzEuOTk2MDg5OTM1MzAyNzMgQy03MS4xMDc0MTg0MDAzODc0NCAtNzEuOTk2MDg5OTM1MzAyNzMsIDExLjkwNDMwMzgyNDIyNTExIC03MS45OTYwODk5MzUzMDI3MywgMTU0LjExOTE0MDYyNSAtNzEuOTk2MDg5OTM1MzAyNzMgTS0xNTQuMTE5MTQwNjI1IC03MS45OTYwODk5MzUzMDI3MyBDLTg0LjExNjI1MDcwOTY4MjYyIC03MS45OTYwODk5MzUzMDI3MywgLTE0LjExMzM2MDc5NDM2NTIzNSAtNzEuOTk2MDg5OTM1MzAyNzMsIDE1NC4xMTkxNDA2MjUgLTcxLjk5NjA4OTkzNTMwMjczIE0xNTQuMTE5MTQwNjI1IC03MS45OTYwODk5MzUzMDI3MyBDMTU0LjExOTE0MDYyNSAtNDAuOTQ1MTU5ODIxMzQ4MTIsIDE1NC4xMTkxNDA2MjUgLTkuODk0MjI5NzA3MzkzNTA3LCAxNTQuMTE5MTQwNjI1IDcxLjk5NjA4OTkzNTMwMjczIE0xNTQuMTE5MTQwNjI1IC03MS45OTYwODk5MzUzMDI3MyBDMTU0LjExOTE0MDYyNSAtMjEuMTQ4MTg5NjU4NDQ5NTgsIDE1NC4xMTkxNDA2MjUgMjkuNjk5NzEwNjE4NDAzNTcsIDE1NC4xMTkxNDA2MjUgNzEuOTk2MDg5OTM1MzAyNzMgTTE1NC4xMTkxNDA2MjUgNzEuOTk2MDg5OTM1MzAyNzMgQzY4LjA2MDIxODkwNDMwNDM1IDcxLjk5NjA4OTkzNTMwMjczLCAtMTcuOTk4NzAyODE2MzkxMyA3MS45OTYwODk5MzUzMDI3MywgLTE1NC4xMTkxNDA2MjUgNzEuOTk2MDg5OTM1MzAyNzMgTTE1NC4xMTkxNDA2MjUgNzEuOTk2MDg5OTM1MzAyNzMgQzY1LjEzMzQwMDIyNjIzNTAxIDcxLjk5NjA4OTkzNTMwMjczLCAtMjMuODUyMzQwMTcyNTI5OTc4IDcxLjk5NjA4OTkzNTMwMjczLCAtMTU0LjExOTE0MDYyNSA3MS45OTYwODk5MzUzMDI3MyBNLTE1NC4xMTkxNDA2MjUgNzEuOTk2MDg5OTM1MzAyNzMgQy0xNTQuMTE5MTQwNjI1IDE1LjQwNjE3NzcyNDM5Mzg2NCwgLTE1NC4xMTkxNDA2MjUgLTQxLjE4MzczNDQ4NjUxNTAxLCAtMTU0LjExOTE0MDYyNSAtNzEuOTk2MDg5OTM1MzAyNzMgTS0xNTQuMTE5MTQwNjI1IDcxLjk5NjA4OTkzNTMwMjczIEMtMTU0LjExOTE0MDYyNSAyMC41NDYyMTAxMTM2Njk0NzQsIC0xNTQuMTE5MTQwNjI1IC0zMC45MDM2Njk3MDc5NjM3ODYsIC0xNTQuMTE5MTQwNjI1IC03MS45OTYwODk5MzUzMDI3MyI+PC9wYXRoPjwvZz48ZyB0cmFuc2Zvcm09InRyYW5zbGF0ZSgwLCAtNDcuOTk2MDg5OTM1MzAyNzM0KSIgY2xhc3M9ImFubm90YXRpb24tZ3JvdXAgdGV4dCI+PC9nPjxnIHRyYW5zZm9ybT0idHJhbnNsYXRlKC02MS45MDc1NTA4MTE3Njc1OCwgLTQ3Ljk5NjA4OTkzNTMwMjczNCkiIGNsYXNzPSJsYWJlbC1ncm91cCB0ZXh0Ij48ZyB0cmFuc2Zvcm09InRyYW5zbGF0ZSgwLC0xMS45OTg2OTcyODA4ODM3ODkpIiBzdHlsZT0iZm9udC13ZWlnaHQ6IGJvbGRlciIgY2xhc3M9ImxhYmVsIj48Zm9yZWlnbk9iamVjdCBoZWlnaHQ9IjIzLjk5NzM5NDU2MTc2NzU3OCIgd2lkdGg9IjEyMy44MTUxMDE2MjM1MzUxNiI+PGRpdiBzdHlsZT0iZGlzcGxheTogdGFibGUtY2VsbDsgd2hpdGUtc3BhY2U6IG5vd3JhcDsgbGluZS1oZWlnaHQ6IDEuNTsgbWF4LXdpZHRoOiAxNzNweDsgdGV4dC1hbGlnbjogY2VudGVyOyIgeG1sbnM9Imh0dHA6Ly93d3cudzMub3JnLzE5OTkveGh0bWwiPjxzcGFuIHN0eWxlPSIiIGNsYXNzPSJub2RlTGFiZWwgbWFya2Rvd24tbm9kZS1sYWJlbCI+PHA+Q29uZGljaW9uQ29kaWdvPC9wPjwvc3Bhbj48L2Rpdj48L2ZvcmVpZ25PYmplY3Q+PC9nPjwvZz48ZyB0cmFuc2Zvcm09InRyYW5zbGF0ZSgtMTQyLjExOTE0MDYyNSwgMC4wMDEzMDQ2MjY0NjQ4NDM3NSkiIGNsYXNzPSJtZW1iZXJzLWdyb3VwIHRleHQiPjxnIHRyYW5zZm9ybT0idHJhbnNsYXRlKDAsLTExLjk5ODY5NzI4MDg4Mzc4OSkiIHN0eWxlPSIiIGNsYXNzPSJsYWJlbCI+PGZvcmVpZ25PYmplY3QgaGVpZ2h0PSIyMy45OTczOTQ1NjE3Njc1NzgiIHdpZHRoPSI4Mi44MjU1MTU3NDcwNzAzMSI+PGRpdiBzdHlsZT0iZGlzcGxheTogdGFibGUtY2VsbDsgd2hpdGUtc3BhY2U6IG5vd3JhcDsgbGluZS1oZWlnaHQ6IDEuNTsgbWF4LXdpZHRoOiAxMzlweDsgdGV4dC1hbGlnbjogY2VudGVyOyIgeG1sbnM9Imh0dHA6Ly93d3cudzMub3JnLzE5OTkveGh0bWwiPjxzcGFuIHN0eWxlPSIiIGNsYXNzPSJub2RlTGFiZWwgbWFya2Rvd24tbm9kZS1sYWJlbCI+PHA+LWNvZGlnbzogaW50PC9wPjwvc3Bhbj48L2Rpdj48L2ZvcmVpZ25PYmplY3Q+PC9nPjwvZz48ZyB0cmFuc2Zvcm09InRyYW5zbGF0ZSgtMTQyLjExOTE0MDYyNSwgNDcuOTk4Njk5MTg4MjMyNDIpIiBjbGFzcz0ibWV0aG9kcy1ncm91cCB0ZXh0Ij48ZyB0cmFuc2Zvcm09InRyYW5zbGF0ZSgwLC0xMS45OTg2OTcyODA4ODM3ODkpIiBzdHlsZT0iIiBjbGFzcz0ibGFiZWwiPjxmb3JlaWduT2JqZWN0IGhlaWdodD0iMjMuOTk3Mzk0NTYxNzY3NTc4IiB3aWR0aD0iMjIyLjMzMDcxODk5NDE0MDYyIj48ZGl2IHN0eWxlPSJkaXNwbGF5OiB0YWJsZS1jZWxsOyB3aGl0ZS1zcGFjZTogbm93cmFwOyBsaW5lLWhlaWdodDogMS41OyBtYXgtd2lkdGg6IDI3OXB4OyB0ZXh0LWFsaWduOiBjZW50ZXI7IiB4bWxucz0iaHR0cDovL3d3dy53My5vcmcvMTk5OS94aHRtbCI+PHNwYW4gc3R5bGU9IiIgY2xhc3M9Im5vZGVMYWJlbCBtYXJrZG93bi1ub2RlLWxhYmVsIj48cD4rY3VtcGxlQ29uKGVsZW1lbnRvQmFzZSBlYik8L3A+PC9zcGFuPjwvZGl2PjwvZm9yZWlnbk9iamVjdD48L2c+PC9nPjxnIHN0eWxlPSIiIGNsYXNzPSJkaXZpZGVyIj48cGF0aCBzdHlsZT0iIiBmaWxsPSJub25lIiBzdHJva2Utd2lkdGg9IjEuMyIgc3Ryb2tlPSIjOTk5IiBkPSJNLTE1NC4xMTkxNDA2MjUgLTIzLjk5ODY5NTM3MzUzNTE1NiBDLTU1LjI2NDg2NzgyMzM3MzM1IC0yMy45OTg2OTUzNzM1MzUxNTYsIDQzLjU4OTQwNDk3ODI1MzMgLTIzLjk5ODY5NTM3MzUzNTE1NiwgMTU0LjExOTE0MDYyNSAtMjMuOTk4Njk1MzczNTM1MTU2IE0tMTU0LjExOTE0MDYyNSAtMjMuOTk4Njk1MzczNTM1MTU2IEMtNDUuNjM1MTg5NjY5MDYzMzIgLTIzLjk5ODY5NTM3MzUzNTE1NiwgNjIuODQ4NzYxMjg2ODczMzU1IC0yMy45OTg2OTUzNzM1MzUxNTYsIDE1NC4xMTkxNDA2MjUgLTIzLjk5ODY5NTM3MzUzNTE1NiI+PC9wYXRoPjwvZz48ZyBzdHlsZT0iIiBjbGFzcz0iZGl2aWRlciI+PHBhdGggc3R5bGU9IiIgZmlsbD0ibm9uZSIgc3Ryb2tlLXdpZHRoPSIxLjMiIHN0cm9rZT0iIzk5OSIgZD0iTS0xNTQuMTE5MTQwNjI1IDIzLjk5ODY5OTE4ODIzMjQyMiBDLTU2LjAzNTQ3MjcxNjg4MTUxNSAyMy45OTg2OTkxODgyMzI0MjIsIDQyLjA0ODE5NTE5MTIzNjk3IDIzLjk5ODY5OTE4ODIzMjQyMiwgMTU0LjExOTE0MDYyNSAyMy45OTg2OTkxODgyMzI0MjIgTS0xNTQuMTE5MTQwNjI1IDIzLjk5ODY5OTE4ODIzMjQyMiBDLTQ5LjUyMDM0NzQ4Mzc3OTA5IDIzLjk5ODY5OTE4ODIzMjQyMiwgNTUuMDc4NDQ1NjU3NDQxODIgMjMuOTk4Njk5MTg4MjMyNDIyLCAxNTQuMTE5MTQwNjI1IDIzLjk5ODY5OTE4ODIzMjQyMiI+PC9wYXRoPjwvZz48L2c+PGcgdHJhbnNmb3JtPSJ0cmFuc2xhdGUoMjk5Mi4wNzQ4MTM4NDI3NzM0LCAzOTMuOTc1MjU3ODczNTM1MTYpIiBpZD0iY2xhc3NJZC1Db25kaWNpb25BTkQtMTIiIGNsYXNzPSJub2RlIGRlZmF1bHQiPjxnIGNsYXNzPSJiYXNpYyBsYWJlbC1jb250YWluZXIiPjxwYXRoIHN0eWxlPSIiIGZpbGw9IiNlZWUiIHN0cm9rZS13aWR0aD0iMCIgc3Ryb2tlPSJub25lIiBkPSJNLTE0OS4zOTI1NzgxMjUgLTcxLjk5NjA4OTkzNTMwMjczIEwxNDkuMzkyNTc4MTI1IC03MS45OTYwODk5MzUzMDI3MyBMMTQ5LjM5MjU3ODEyNSA3MS45OTYwODk5MzUzMDI3MyBMLTE0OS4zOTI1NzgxMjUgNzEuOTk2MDg5OTM1MzAyNzMiPjwvcGF0aD48cGF0aCBzdHlsZT0iIiBmaWxsPSJub25lIiBzdHJva2Utd2lkdGg9IjEuMyIgc3Ryb2tlPSIjOTk5IiBkPSJNLTE0OS4zOTI1NzgxMjUgLTcxLjk5NjA4OTkzNTMwMjczIEMtNTEuODA0ODkzNjkzNjE4OTkgLTcxLjk5NjA4OTkzNTMwMjczLCA0NS43ODI3OTA3Mzc3NjIwMTQgLTcxLjk5NjA4OTkzNTMwMjczLCAxNDkuMzkyNTc4MTI1IC03MS45OTYwODk5MzUzMDI3MyBNLTE0OS4zOTI1NzgxMjUgLTcxLjk5NjA4OTkzNTMwMjczIEMtMzEuNjY3NzYyNjM4NTU3MjkyIC03MS45OTYwODk5MzUzMDI3MywgODYuMDU3MDUyODQ3ODg1NDIgLTcxLjk5NjA4OTkzNTMwMjczLCAxNDkuMzkyNTc4MTI1IC03MS45OTYwODk5MzUzMDI3MyBNMTQ5LjM5MjU3ODEyNSAtNzEuOTk2MDg5OTM1MzAyNzMgQzE0OS4zOTI1NzgxMjUgLTM3LjA2NDA3ODg2NzU3ODEsIDE0OS4zOTI1NzgxMjUgLTIuMTMyMDY3Nzk5ODUzNDU5LCAxNDkuMzkyNTc4MTI1IDcxLjk5NjA4OTkzNTMwMjczIE0xNDkuMzkyNTc4MTI1IC03MS45OTYwODk5MzUzMDI3MyBDMTQ5LjM5MjU3ODEyNSAtMzIuODU5OTQ5NzczMTEzMDQ0LCAxNDkuMzkyNTc4MTI1IDYuMjc2MTkwMzg5MDc2NjQ2LCAxNDkuMzkyNTc4MTI1IDcxLjk5NjA4OTkzNTMwMjczIE0xNDkuMzkyNTc4MTI1IDcxLjk5NjA4OTkzNTMwMjczIEM4NS44MjU5ODI4MjU4ODkyNyA3MS45OTYwODk5MzUzMDI3MywgMjIuMjU5Mzg3NTI2Nzc4NTUzIDcxLjk5NjA4OTkzNTMwMjczLCAtMTQ5LjM5MjU3ODEyNSA3MS45OTYwODk5MzUzMDI3MyBNMTQ5LjM5MjU3ODEyNSA3MS45OTYwODk5MzUzMDI3MyBDNjYuMzQ5MjUzNTAwMjM3NzcgNzEuOTk2MDg5OTM1MzAyNzMsIC0xNi42OTQwNzExMjQ1MjQ0NyA3MS45OTYwODk5MzUzMDI3MywgLTE0OS4zOTI1NzgxMjUgNzEuOTk2MDg5OTM1MzAyNzMgTS0xNDkuMzkyNTc4MTI1IDcxLjk5NjA4OTkzNTMwMjczIEMtMTQ5LjM5MjU3ODEyNSAzMi4xMDMwNjI5MDE2MzkwODUsIC0xNDkuMzkyNTc4MTI1IC03Ljc4OTk2NDEzMjAyNDU2NSwgLTE0OS4zOTI1NzgxMjUgLTcxLjk5NjA4OTkzNTMwMjczIE0tMTQ5LjM5MjU3ODEyNSA3MS45OTYwODk5MzUzMDI3MyBDLTE0OS4zOTI1NzgxMjUgMjAuNDk3Nzc1NjgyMTYwOTc3LCAtMTQ5LjM5MjU3ODEyNSAtMzEuMDAwNTM4NTcwOTgwNzgsIC0xNDkuMzkyNTc4MTI1IC03MS45OTYwODk5MzUzMDI3MyI+PC9wYXRoPjwvZz48ZyB0cmFuc2Zvcm09InRyYW5zbGF0ZSgwLCAtNDcuOTk2MDg5OTM1MzAyNzM0KSIgY2xhc3M9ImFubm90YXRpb24tZ3JvdXAgdGV4dCI+PC9nPjxnIHRyYW5zZm9ybT0idHJhbnNsYXRlKC01Mi40NTQ0MjU4MTE3Njc1OCwgLTQ3Ljk5NjA4OTkzNTMwMjczNCkiIGNsYXNzPSJsYWJlbC1ncm91cCB0ZXh0Ij48ZyB0cmFuc2Zvcm09InRyYW5zbGF0ZSgwLC0xMS45OTg2OTcyODA4ODM3ODkpIiBzdHlsZT0iZm9udC13ZWlnaHQ6IGJvbGRlciIgY2xhc3M9ImxhYmVsIj48Zm9yZWlnbk9iamVjdCBoZWlnaHQ9IjIzLjk5NzM5NDU2MTc2NzU3OCIgd2lkdGg9IjEwNC45MDg4NTE2MjM1MzUxNiI+PGRpdiBzdHlsZT0iZGlzcGxheTogdGFibGUtY2VsbDsgd2hpdGUtc3BhY2U6IG5vd3JhcDsgbGluZS1oZWlnaHQ6IDEuNTsgbWF4LXdpZHRoOiAxNTVweDsgdGV4dC1hbGlnbjogY2VudGVyOyIgeG1sbnM9Imh0dHA6Ly93d3cudzMub3JnLzE5OTkveGh0bWwiPjxzcGFuIHN0eWxlPSIiIGNsYXNzPSJub2RlTGFiZWwgbWFya2Rvd24tbm9kZS1sYWJlbCI+PHA+Q29uZGljaW9uQU5EPC9wPjwvc3Bhbj48L2Rpdj48L2ZvcmVpZ25PYmplY3Q+PC9nPjwvZz48ZyB0cmFuc2Zvcm09InRyYW5zbGF0ZSgtMTM3LjM5MjU3ODEyNSwgMC4wMDEzMDQ2MjY0NjQ4NDM3NSkiIGNsYXNzPSJtZW1iZXJzLWdyb3VwIHRleHQiPjxnIHRyYW5zZm9ybT0idHJhbnNsYXRlKDAsLTExLjk5ODY5NzI4MDg4Mzc4OSkiIHN0eWxlPSIiIGNsYXNzPSJsYWJlbCI+PGZvcmVpZ25PYmplY3QgaGVpZ2h0PSIyMy45OTczOTQ1NjE3Njc1NzgiIHdpZHRoPSIxMjUuMjYwNDE0MTIzNTM1MTYiPjxkaXYgc3R5bGU9ImRpc3BsYXk6IHRhYmxlLWNlbGw7IHdoaXRlLXNwYWNlOiBub3dyYXA7IGxpbmUtaGVpZ2h0OiAxLjU7IG1heC13aWR0aDogMTc4cHg7IHRleHQtYWxpZ246IGNlbnRlcjsiIHhtbG5zPSJodHRwOi8vd3d3LnczLm9yZy8xOTk5L3hodG1sIj48c3BhbiBzdHlsZT0iIiBjbGFzcz0ibm9kZUxhYmVsIG1hcmtkb3duLW5vZGUtbGFiZWwiPjxwPi1jMSxjMjogQ29uZGljaW9uPC9wPjwvc3Bhbj48L2Rpdj48L2ZvcmVpZ25PYmplY3Q+PC9nPjwvZz48ZyB0cmFuc2Zvcm09InRyYW5zbGF0ZSgtMTM3LjM5MjU3ODEyNSwgNDcuOTk4Njk5MTg4MjMyNDIpIiBjbGFzcz0ibWV0aG9kcy1ncm91cCB0ZXh0Ij48ZyB0cmFuc2Zvcm09InRyYW5zbGF0ZSgwLC0xMS45OTg2OTcyODA4ODM3ODkpIiBzdHlsZT0iIiBjbGFzcz0ibGFiZWwiPjxmb3JlaWduT2JqZWN0IGhlaWdodD0iMjMuOTk3Mzk0NTYxNzY3NTc4IiB3aWR0aD0iMjIyLjMzMDcxODk5NDE0MDYyIj48ZGl2IHN0eWxlPSJkaXNwbGF5OiB0YWJsZS1jZWxsOyB3aGl0ZS1zcGFjZTogbm93cmFwOyBsaW5lLWhlaWdodDogMS41OyBtYXgtd2lkdGg6IDI3OXB4OyB0ZXh0LWFsaWduOiBjZW50ZXI7IiB4bWxucz0iaHR0cDovL3d3dy53My5vcmcvMTk5OS94aHRtbCI+PHNwYW4gc3R5bGU9IiIgY2xhc3M9Im5vZGVMYWJlbCBtYXJrZG93bi1ub2RlLWxhYmVsIj48cD4rY3VtcGxlQ29uKGVsZW1lbnRvQmFzZSBlYik8L3A+PC9zcGFuPjwvZGl2PjwvZm9yZWlnbk9iamVjdD48L2c+PC9nPjxnIHN0eWxlPSIiIGNsYXNzPSJkaXZpZGVyIj48cGF0aCBzdHlsZT0iIiBmaWxsPSJub25lIiBzdHJva2Utd2lkdGg9IjEuMyIgc3Ryb2tlPSIjOTk5IiBkPSJNLTE0OS4zOTI1NzgxMjUgLTIzLjk5ODY5NTM3MzUzNTE1NiBDLTU1LjM1NjAwMTE5OTUzODgyNCAtMjMuOTk4Njk1MzczNTM1MTU2LCAzOC42ODA1NzU3MjU5MjIzNSAtMjMuOTk4Njk1MzczNTM1MTU2LCAxNDkuMzkyNTc4MTI1IC0yMy45OTg2OTUzNzM1MzUxNTYgTS0xNDkuMzkyNTc4MTI1IC0yMy45OTg2OTUzNzM1MzUxNTYgQy0zMS44NjcwMjg2ODc5MTI4OTIgLTIzLjk5ODY5NTM3MzUzNTE1NiwgODUuNjU4NTIwNzQ5MTc0MjIgLTIzLjk5ODY5NTM3MzUzNTE1NiwgMTQ5LjM5MjU3ODEyNSAtMjMuOTk4Njk1MzczNTM1MTU2Ij48L3BhdGg+PC9nPjxnIHN0eWxlPSIiIGNsYXNzPSJkaXZpZGVyIj48cGF0aCBzdHlsZT0iIiBmaWxsPSJub25lIiBzdHJva2Utd2lkdGg9IjEuMyIgc3Ryb2tlPSIjOTk5IiBkPSJNLTE0OS4zOTI1NzgxMjUgMjMuOTk4Njk5MTg4MjMyNDIyIEMtMzAuNjY3MTc1OTkyMjA4NjcgMjMuOTk4Njk5MTg4MjMyNDIyLCA4OC4wNTgyMjYxNDA1ODI2NiAyMy45OTg2OTkxODgyMzI0MjIsIDE0OS4zOTI1NzgxMjUgMjMuOTk4Njk5MTg4MjMyNDIyIE0tMTQ5LjM5MjU3ODEyNSAyMy45OTg2OTkxODgyMzI0MjIgQy03NS44OTI2Njc3NDkyNzgzNSAyMy45OTg2OTkxODgyMzI0MjIsIC0yLjM5Mjc1NzM3MzU1NjY5MSAyMy45OTg2OTkxODgyMzI0MjIsIDE0OS4zOTI1NzgxMjUgMjMuOTk4Njk5MTg4MjMyNDIyIj48L3BhdGg+PC9nPjwvZz48ZyB0cmFuc2Zvcm09InRyYW5zbGF0ZSgzMzM4LjM0MzY4ODk2NDg0MzgsIDM5My45NzUyNTc4NzM1MzUxNikiIGlkPSJjbGFzc0lkLUNvbmRpY2lvbk9SLTEzIiBjbGFzcz0ibm9kZSBkZWZhdWx0Ij48ZyBjbGFzcz0iYmFzaWMgbGFiZWwtY29udGFpbmVyIj48cGF0aCBzdHlsZT0iIiBmaWxsPSIjZWVlIiBzdHJva2Utd2lkdGg9IjAiIHN0cm9rZT0ibm9uZSIgZD0iTS0xNDYuODc2Mjk2OTk3MDcwMyAtNzEuOTk2MDg5OTM1MzAyNzMgTDE0Ni44NzYyOTY5OTcwNzAzIC03MS45OTYwODk5MzUzMDI3MyBMMTQ2Ljg3NjI5Njk5NzA3MDMgNzEuOTk2MDg5OTM1MzAyNzMgTC0xNDYuODc2Mjk2OTk3MDcwMyA3MS45OTYwODk5MzUzMDI3MyI+PC9wYXRoPjxwYXRoIHN0eWxlPSIiIGZpbGw9Im5vbmUiIHN0cm9rZS13aWR0aD0iMS4zIiBzdHJva2U9IiM5OTkiIGQ9Ik0tMTQ2Ljg3NjI5Njk5NzA3MDMgLTcxLjk5NjA4OTkzNTMwMjczIEMtNzMuNDE2MDc5OTkxOTg2ODUgLTcxLjk5NjA4OTkzNTMwMjczLCAwLjA0NDEzNzAxMzA5NjYxNjMzIC03MS45OTYwODk5MzUzMDI3MywgMTQ2Ljg3NjI5Njk5NzA3MDMgLTcxLjk5NjA4OTkzNTMwMjczIE0tMTQ2Ljg3NjI5Njk5NzA3MDMgLTcxLjk5NjA4OTkzNTMwMjczIEMtODcuMzc1OTkzNjIyNjc1ODUgLTcxLjk5NjA4OTkzNTMwMjczLCAtMjcuODc1NjkwMjQ4MjgxNCAtNzEuOTk2MDg5OTM1MzAyNzMsIDE0Ni44NzYyOTY5OTcwNzAzIC03MS45OTYwODk5MzUzMDI3MyBNMTQ2Ljg3NjI5Njk5NzA3MDMgLTcxLjk5NjA4OTkzNTMwMjczIEMxNDYuODc2Mjk2OTk3MDcwMyAtMzIuMDg1MjQ2NjU5NTkyMTEsIDE0Ni44NzYyOTY5OTcwNzAzIDcuODI1NTk2NjE2MTE4NTE3LCAxNDYuODc2Mjk2OTk3MDcwMyA3MS45OTYwODk5MzUzMDI3MyBNMTQ2Ljg3NjI5Njk5NzA3MDMgLTcxLjk5NjA4OTkzNTMwMjczIEMxNDYuODc2Mjk2OTk3MDcwMyAtMjMuMjk1OTc3ODM5MTI4NjA0LCAxNDYuODc2Mjk2OTk3MDcwMyAyNS40MDQxMzQyNTcwNDU1MjcsIDE0Ni44NzYyOTY5OTcwNzAzIDcxLjk5NjA4OTkzNTMwMjczIE0xNDYuODc2Mjk2OTk3MDcwMyA3MS45OTYwODk5MzUzMDI3MyBDMzcuNDA1MzkxNTk0MzgzOTQgNzEuOTk2MDg5OTM1MzAyNzMsIC03Mi4wNjU1MTM4MDgzMDI0MyA3MS45OTYwODk5MzUzMDI3MywgLTE0Ni44NzYyOTY5OTcwNzAzIDcxLjk5NjA4OTkzNTMwMjczIE0xNDYuODc2Mjk2OTk3MDcwMyA3MS45OTYwODk5MzUzMDI3MyBDNzUuNzYwODg0MDgyODczMzIgNzEuOTk2MDg5OTM1MzAyNzMsIDQuNjQ1NDcxMTY4Njc2MzIzIDcxLjk5NjA4OTkzNTMwMjczLCAtMTQ2Ljg3NjI5Njk5NzA3MDMgNzEuOTk2MDg5OTM1MzAyNzMgTS0xNDYuODc2Mjk2OTk3MDcwMyA3MS45OTYwODk5MzUzMDI3MyBDLTE0Ni44NzYyOTY5OTcwNzAzIDIwLjc3MzYyODUxNDExMTI2NiwgLTE0Ni44NzYyOTY5OTcwNzAzIC0zMC40NDg4MzI5MDcwODAyMDIsIC0xNDYuODc2Mjk2OTk3MDcwMyAtNzEuOTk2MDg5OTM1MzAyNzMgTS0xNDYuODc2Mjk2OTk3MDcwMyA3MS45OTYwODk5MzUzMDI3MyBDLTE0Ni44NzYyOTY5OTcwNzAzIDM4LjM1NDIwNTA4NjE3MzY4NSwgLTE0Ni44NzYyOTY5OTcwNzAzIDQuNzEyMzIwMjM3MDQ0NjM2LCAtMTQ2Ljg3NjI5Njk5NzA3MDMgLTcxLjk5NjA4OTkzNTMwMjczIj48L3BhdGg+PC9nPjxnIHRyYW5zZm9ybT0idHJhbnNsYXRlKDAsIC00Ny45OTYwODk5MzUzMDI3MzQpIiBjbGFzcz0iYW5ub3RhdGlvbi1ncm91cCB0ZXh0Ij48L2c+PGcgdHJhbnNmb3JtPSJ0cmFuc2xhdGUoLTQ3LjQyMTg3ODgxNDY5NzI2NiwgLTQ3Ljk5NjA4OTkzNTMwMjczNCkiIGNsYXNzPSJsYWJlbC1ncm91cCB0ZXh0Ij48ZyB0cmFuc2Zvcm09InRyYW5zbGF0ZSgwLC0xMS45OTg2OTcyODA4ODM3ODkpIiBzdHlsZT0iZm9udC13ZWlnaHQ6IGJvbGRlciIgY2xhc3M9ImxhYmVsIj48Zm9yZWlnbk9iamVjdCBoZWlnaHQ9IjIzLjk5NzM5NDU2MTc2NzU3OCIgd2lkdGg9Ijk0Ljg0Mzc1NzYyOTM5NDUzIj48ZGl2IHN0eWxlPSJkaXNwbGF5OiB0YWJsZS1jZWxsOyB3aGl0ZS1zcGFjZTogbm93cmFwOyBsaW5lLWhlaWdodDogMS41OyBtYXgtd2lkdGg6IDE0M3B4OyB0ZXh0LWFsaWduOiBjZW50ZXI7IiB4bWxucz0iaHR0cDovL3d3dy53My5vcmcvMTk5OS94aHRtbCI+PHNwYW4gc3R5bGU9IiIgY2xhc3M9Im5vZGVMYWJlbCBtYXJrZG93bi1ub2RlLWxhYmVsIj48cD5Db25kaWNpb25PUjwvcD48L3NwYW4+PC9kaXY+PC9mb3JlaWduT2JqZWN0PjwvZz48L2c+PGcgdHJhbnNmb3JtPSJ0cmFuc2xhdGUoLTEzNC44NzYyOTY5OTcwNzAzLCAwLjAwMTMwNDYyNjQ2NDg0Mzc1KSIgY2xhc3M9Im1lbWJlcnMtZ3JvdXAgdGV4dCI+PGcgdHJhbnNmb3JtPSJ0cmFuc2xhdGUoMCwtMTEuOTk4Njk3MjgwODgzNzg5KSIgc3R5bGU9IiIgY2xhc3M9ImxhYmVsIj48Zm9yZWlnbk9iamVjdCBoZWlnaHQ9IjIzLjk5NzM5NDU2MTc2NzU3OCIgd2lkdGg9IjEyNS4yNjA0MTQxMjM1MzUxNiI+PGRpdiBzdHlsZT0iZGlzcGxheTogdGFibGUtY2VsbDsgd2hpdGUtc3BhY2U6IG5vd3JhcDsgbGluZS1oZWlnaHQ6IDEuNTsgbWF4LXdpZHRoOiAxNzhweDsgdGV4dC1hbGlnbjogY2VudGVyOyIgeG1sbnM9Imh0dHA6Ly93d3cudzMub3JnLzE5OTkveGh0bWwiPjxzcGFuIHN0eWxlPSIiIGNsYXNzPSJub2RlTGFiZWwgbWFya2Rvd24tbm9kZS1sYWJlbCI+PHA+LWMxLGMyOiBDb25kaWNpb248L3A+PC9zcGFuPjwvZGl2PjwvZm9yZWlnbk9iamVjdD48L2c+PC9nPjxnIHRyYW5zZm9ybT0idHJhbnNsYXRlKC0xMzQuODc2Mjk2OTk3MDcwMywgNDcuOTk4Njk5MTg4MjMyNDIpIiBjbGFzcz0ibWV0aG9kcy1ncm91cCB0ZXh0Ij48ZyB0cmFuc2Zvcm09InRyYW5zbGF0ZSgwLC0xMS45OTg2OTcyODA4ODM3ODkpIiBzdHlsZT0iIiBjbGFzcz0ibGFiZWwiPjxmb3JlaWduT2JqZWN0IGhlaWdodD0iMjMuOTk3Mzk0NTYxNzY3NTc4IiB3aWR0aD0iMjIyLjMzMDcxODk5NDE0MDYyIj48ZGl2IHN0eWxlPSJkaXNwbGF5OiB0YWJsZS1jZWxsOyB3aGl0ZS1zcGFjZTogbm93cmFwOyBsaW5lLWhlaWdodDogMS41OyBtYXgtd2lkdGg6IDI3OXB4OyB0ZXh0LWFsaWduOiBjZW50ZXI7IiB4bWxucz0iaHR0cDovL3d3dy53My5vcmcvMTk5OS94aHRtbCI+PHNwYW4gc3R5bGU9IiIgY2xhc3M9Im5vZGVMYWJlbCBtYXJrZG93bi1ub2RlLWxhYmVsIj48cD4rY3VtcGxlQ29uKGVsZW1lbnRvQmFzZSBlYik8L3A+PC9zcGFuPjwvZGl2PjwvZm9yZWlnbk9iamVjdD48L2c+PC9nPjxnIHN0eWxlPSIiIGNsYXNzPSJkaXZpZGVyIj48cGF0aCBzdHlsZT0iIiBmaWxsPSJub25lIiBzdHJva2Utd2lkdGg9IjEuMyIgc3Ryb2tlPSIjOTk5IiBkPSJNLTE0Ni44NzYyOTY5OTcwNzAzIC0yMy45OTg2OTUzNzM1MzUxNTYgQy02OC43Mzc4NjQ3MjczMzAxNSAtMjMuOTk4Njk1MzczNTM1MTU2LCA5LjQwMDU2NzU0MjQxMDAxNiAtMjMuOTk4Njk1MzczNTM1MTU2LCAxNDYuODc2Mjk2OTk3MDcwMyAtMjMuOTk4Njk1MzczNTM1MTU2IE0tMTQ2Ljg3NjI5Njk5NzA3MDMgLTIzLjk5ODY5NTM3MzUzNTE1NiBDLTc1LjQ0OTE1MjE1OTQ1OTYgLTIzLjk5ODY5NTM3MzUzNTE1NiwgLTQuMDIyMDA3MzIxODQ4ODg5IC0yMy45OTg2OTUzNzM1MzUxNTYsIDE0Ni44NzYyOTY5OTcwNzAzIC0yMy45OTg2OTUzNzM1MzUxNTYiPjwvcGF0aD48L2c+PGcgc3R5bGU9IiIgY2xhc3M9ImRpdmlkZXIiPjxwYXRoIHN0eWxlPSIiIGZpbGw9Im5vbmUiIHN0cm9rZS13aWR0aD0iMS4zIiBzdHJva2U9IiM5OTkiIGQ9Ik0tMTQ2Ljg3NjI5Njk5NzA3MDMgMjMuOTk4Njk5MTg4MjMyNDIyIEMtNjQuNjk3OTIyNTAwOTM3NzEgMjMuOTk4Njk5MTg4MjMyNDIyLCAxNy40ODA0NTE5OTUxOTQ4OTggMjMuOTk4Njk5MTg4MjMyNDIyLCAxNDYuODc2Mjk2OTk3MDcwMyAyMy45OTg2OTkxODgyMzI0MjIgTS0xNDYuODc2Mjk2OTk3MDcwMyAyMy45OTg2OTkxODgyMzI0MjIgQy04NC4xMDAwODYzNzM5Mjk4NiAyMy45OTg2OTkxODgyMzI0MjIsIC0yMS4zMjM4NzU3NTA3ODkzODQgMjMuOTk4Njk5MTg4MjMyNDIyLCAxNDYuODc2Mjk2OTk3MDcwMyAyMy45OTg2OTkxODgyMzI0MjIiPjwvcGF0aD48L2c+PC9nPjwvZz48L2c+PC9nPjwvc3ZnPg==;imageBackground=none;imageBorder=none;shadow=0;" parent="1" vertex="1">
                        <mxGeometry x="-1440" y="-10" width="3493.22021484375" height="811.9478759765625" as="geometry"/>
                    </mxCell>
                </UserObject>
            </root>
        </mxGraphModel>
    </diagram>
</mxfile>